  0
SECTION
  2
ENTITIES
999
DXF created from EnergyPlus
999
Program Version,EnergyPlus, Version 22.1.0-ed759b17ee, YMD=2026.07.28 23:12
999
Polygon Action,ThickPolyline
999
Color Scheme,Default
999
Text - True North
  0
TEXT
  8
1
  6
Continuous
 62
  3
 10
      -11.00000
 20
        3.00000
 30
        0.10000
 40
 .25
  1
True North
 41
 0.0
  7
MONOTXT
210
0.0
220
0.0
230
1.0
999
Text - Building Title
  0
TEXT
  8
1
  6
Continuous
 62
  3
 10
      -14.00000
 20
       -1.00000
 30
        0.10000
 40
 .4
  1
Building - RetailStripmall
 41
 0.0
  7
MONOTXT
210
0.0
220
0.0
230
1.0
999
North Arrow Stem
  0
3DFACE
  8
1
 62
  3
 10
      -10.00000
 20
        3.00000
 30
        0.10000
 11
      -10.00000
 21
        3.00000
 31
        0.00000
 12
      -10.00000
 22
        0.00000
 32
        0.00000
 13
      -10.00000
 23
        0.00000
 33
        0.10000
999
North Arrow Head 1
  0
3DFACE
  8
1
 62
  3
 10
      -10.00000
 20
        3.00000
 30
        0.10000
 11
      -10.00000
 21
        3.00000
 31
        0.00000
 12
      -10.50000
 22
        2.13397
 32
        0.00000
 13
      -10.50000
 23
        2.13397
 33
        0.10000
999
North Arrow Head 2
  0
3DFACE
  8
1
 62
  3
 10
      -10.00000
 20
        3.00000
 30
        0.10000
 11
      -10.00000
 21
        3.00000
 31
        0.00000
 12
       -9.50000
 22
        2.13397
 32
        0.00000
 13
       -9.50000
 23
        2.13397
 33
        0.10000
999
North Arrow Side 1
  0
3DFACE
  8
1
 62
  3
 10
      -10.50000
 20
        4.50000
 30
        0.10000
 11
      -10.50000
 21
        4.50000
 31
        0.00000
 12
      -10.50000
 22
        3.50000
 32
        0.00000
 13
      -10.50000
 23
        3.50000
 33
        0.10000
999
North Arrow Side 2
  0
3DFACE
  8
1
 62
  3
 10
      -10.50000
 20
        4.50000
 30
        0.10000
 11
      -10.50000
 21
        4.50000
 31
        0.00000
 12
       -9.50000
 22
        3.50000
 32
        0.00000
 13
       -9.50000
 23
        3.50000
 33
        0.10000
999
North Arrow Side 3
  0
3DFACE
  8
1
 62
  3
 10
       -9.50000
 20
        4.50000
 30
        0.10000
 11
       -9.50000
 21
        4.50000
 31
        0.00000
 12
       -9.50000
 22
        3.50000
 32
        0.00000
 13
       -9.50000
 23
        3.50000
 33
        0.10000
999
Zone Names
999
Zone=1:LGSTORE1
999
Zone=2:SMSTORE1
999
Zone=3:SMSTORE2
999
Zone=4:SMSTORE3
999
Zone=5:SMSTORE4
999
Zone=6:LGSTORE2
999
Zone=7:SMSTORE5
999
Zone=8:SMSTORE6
999
Zone=9:SMSTORE7
999
Zone=10:SMSTORE8
999
LGSTORE1:LGSTORE1_WALL_2
  0
3DFACE
  8
LGSTORE1
 62
 43
 10
        0.00000
 20
       22.86000
 30
        5.18000
 11
        0.00000
 21
       22.86000
 31
        0.00000
 12
        0.00000
 22
        0.00000
 32
        0.00000
 13
        0.00000
 23
        0.00000
 33
        5.18000
999
LGSTORE1:LGSTORE1_WALL_3
  0
3DFACE
  8
LGSTORE1
 62
 43
 10
       15.24000
 20
       22.86000
 30
        5.18000
 11
       15.24000
 21
       22.86000
 31
        0.00000
 12
        0.00000
 22
       22.86000
 32
        0.00000
 13
        0.00000
 23
       22.86000
 33
        5.18000
999
LGSTORE1:LGSTORE1_WALL_3_DOOR_1
  0
3DFACE
  8
LGSTORE1
 62
 45
 10
        4.73000
 20
       22.86000
 30
        2.13000
 11
        4.73000
 21
       22.86000
 31
        0.00000
 12
        2.90000
 22
       22.86000
 32
        0.00000
 13
        2.90000
 23
       22.86000
 33
        2.13000
999
LGSTORE1:LGSTORE1_WALL_3_DOOR_2
  0
3DFACE
  8
LGSTORE1
 62
 45
 10
       12.35000
 20
       22.86000
 30
        2.13000
 11
       12.35000
 21
       22.86000
 31
        0.00000
 12
       10.52000
 22
       22.86000
 32
        0.00000
 13
       10.52000
 23
       22.86000
 33
        2.13000
999
LGSTORE1:LGSTORE1_WALL_4
  0
3DFACE
  8
LGSTORE1
 62
 43
 10
       15.24000
 20
        0.00000
 30
        5.18000
 11
       15.24000
 21
        0.00000
 31
        0.00000
 12
       15.24000
 22
       22.86000
 32
        0.00000
 13
       15.24000
 23
       22.86000
 33
        5.18000
999
LGSTORE1:LGSTORE1_WALL_1
  0
3DFACE
  8
LGSTORE1
 62
 43
 10
        0.00000
 20
        0.00000
 30
        5.18000
 11
        0.00000
 21
        0.00000
 31
        0.00000
 12
       15.24000
 22
        0.00000
 32
        0.00000
 13
       15.24000
 23
        0.00000
 33
        5.18000
999
LGSTORE1:LGSTORE1_WALL_1_WINDOW_1
  0
3DFACE
  8
LGSTORE1
 62
143
 10
        0.61000
 20
        0.00000
 30
        4.24000
 11
        0.61000
 21
        0.00000
 31
        2.71773
 12
        2.74000
 22
        0.00000
 32
        2.71773
 13
        2.74000
 23
        0.00000
 33
        4.24000
999
LGSTORE1:LGSTORE1_WALL_1_WINDOW_2
  0
3DFACE
  8
LGSTORE1
 62
143
 10
        4.88000
 20
        0.00000
 30
        4.24000
 11
        4.88000
 21
        0.00000
 31
        2.71773
 12
        7.01000
 22
        0.00000
 32
        2.71773
 13
        7.01000
 23
        0.00000
 33
        4.24000
999
LGSTORE1:LGSTORE1_WALL_1_WINDOW_3
  0
3DFACE
  8
LGSTORE1
 62
143
 10
        8.23000
 20
        0.00000
 30
        4.24000
 11
        8.23000
 21
        0.00000
 31
        2.71773
 12
       10.36000
 22
        0.00000
 32
        2.71773
 13
       10.36000
 23
        0.00000
 33
        4.24000
999
LGSTORE1:LGSTORE1_WALL_1_WINDOW_4
  0
3DFACE
  8
LGSTORE1
 62
143
 10
       12.50000
 20
        0.00000
 30
        4.24000
 11
       12.50000
 21
        0.00000
 31
        2.71773
 12
       14.63000
 22
        0.00000
 32
        2.71773
 13
       14.63000
 23
        0.00000
 33
        4.24000
999
LGSTORE1:LGSTORE1_WALL_1_DOOR_1
  0
3DFACE
  8
LGSTORE1
 62
143
 10
        2.90000
 20
        0.00000
 30
        2.13000
 11
        2.90000
 21
        0.00000
 31
        0.00000
 12
        4.73000
 22
        0.00000
 32
        0.00000
 13
        4.73000
 23
        0.00000
 33
        2.13000
999
LGSTORE1:LGSTORE1_WALL_1_DOOR_2
  0
3DFACE
  8
LGSTORE1
 62
143
 10
       10.52000
 20
        0.00000
 30
        2.13000
 11
       10.52000
 21
        0.00000
 31
        0.00000
 12
       12.35000
 22
        0.00000
 32
        0.00000
 13
       12.35000
 23
        0.00000
 33
        2.13000
999
LGSTORE1:LGSTORE1_FLOOR
  0
3DFACE
  8
LGSTORE1
 62
  8
 10
        0.00000
 20
       22.86000
 30
        0.00000
 11
       15.24000
 21
       22.86000
 31
        0.00000
 12
       15.24000
 22
        0.00000
 32
        0.00000
 13
        0.00000
 23
        0.00000
 33
        0.00000
999
LGSTORE1:LGSTORE1_ROOF
  0
3DFACE
  8
LGSTORE1
 62
 15
 10
       15.24000
 20
       22.86000
 30
        5.18000
 11
        0.00000
 21
       22.86000
 31
        5.18000
 12
        0.00000
 22
        0.00000
 32
        5.18000
 13
       15.24000
 23
        0.00000
 33
        5.18000
999
SMSTORE1:SMSTORE1_WALL_1
  0
3DFACE
  8
SMSTORE1
 62
 43
 10
       15.24000
 20
        0.00000
 30
        5.18000
 11
       15.24000
 21
        0.00000
 31
        0.00000
 12
       22.86000
 22
        0.00000
 32
        0.00000
 13
       22.86000
 23
        0.00000
 33
        5.18000
999
SMSTORE1:SMSTORE1_WALL_1_WINDOW_1
  0
3DFACE
  8
SMSTORE1
 62
143
 10
       15.85000
 20
        0.00000
 30
        4.24000
 11
       15.85000
 21
        0.00000
 31
        2.71773
 12
       17.98000
 22
        0.00000
 32
        2.71773
 13
       17.98000
 23
        0.00000
 33
        4.24000
999
SMSTORE1:SMSTORE1_WALL_1_WINDOW_2
  0
3DFACE
  8
SMSTORE1
 62
143
 10
       20.12000
 20
        0.00000
 30
        4.24000
 11
       20.12000
 21
        0.00000
 31
        2.71773
 12
       22.25000
 22
        0.00000
 32
        2.71773
 13
       22.25000
 23
        0.00000
 33
        4.24000
999
SMSTORE1:SMSTORE1_WALL_1_DOOR
  0
3DFACE
  8
SMSTORE1
 62
143
 10
       18.14000
 20
        0.00000
 30
        2.13000
 11
       18.14000
 21
        0.00000
 31
        0.00000
 12
       19.97000
 22
        0.00000
 32
        0.00000
 13
       19.97000
 23
        0.00000
 33
        2.13000
999
SMSTORE1:SMSTORE1_WALL_2
  0
3DFACE
  8
SMSTORE1
 62
 43
 10
       15.24000
 20
       22.86000
 30
        5.18000
 11
       15.24000
 21
       22.86000
 31
        0.00000
 12
       15.24000
 22
        0.00000
 32
        0.00000
 13
       15.24000
 23
        0.00000
 33
        5.18000
999
SMSTORE1:SMSTORE1_WALL_3
  0
3DFACE
  8
SMSTORE1
 62
 43
 10
       22.86000
 20
       22.86000
 30
        5.18000
 11
       22.86000
 21
       22.86000
 31
        0.00000
 12
       15.24000
 22
       22.86000
 32
        0.00000
 13
       15.24000
 23
       22.86000
 33
        5.18000
999
SMSTORE1:SMSTORE1_WALL_3_DOOR
  0
3DFACE
  8
SMSTORE1
 62
 45
 10
       19.97000
 20
       22.86000
 30
        2.13000
 11
       19.97000
 21
       22.86000
 31
        0.00000
 12
       18.14000
 22
       22.86000
 32
        0.00000
 13
       18.14000
 23
       22.86000
 33
        2.13000
999
SMSTORE1:SMSTORE1_WALL_4
  0
3DFACE
  8
SMSTORE1
 62
 43
 10
       22.86000
 20
        0.00000
 30
        5.18000
 11
       22.86000
 21
        0.00000
 31
        0.00000
 12
       22.86000
 22
       22.86000
 32
        0.00000
 13
       22.86000
 23
       22.86000
 33
        5.18000
999
SMSTORE1:SMSTORE1_FLOOR
  0
3DFACE
  8
SMSTORE1
 62
  8
 10
       15.24000
 20
       22.86000
 30
        0.00000
 11
       22.86000
 21
       22.86000
 31
        0.00000
 12
       22.86000
 22
        0.00000
 32
        0.00000
 13
       15.24000
 23
        0.00000
 33
        0.00000
999
SMSTORE1:SMSTORE1_ROOF
  0
3DFACE
  8
SMSTORE1
 62
 15
 10
       22.86000
 20
       22.86000
 30
        5.18000
 11
       15.24000
 21
       22.86000
 31
        5.18000
 12
       15.24000
 22
        0.00000
 32
        5.18000
 13
       22.86000
 23
        0.00000
 33
        5.18000
999
SMSTORE2:SMSTORE2_WALL_1
  0
3DFACE
  8
SMSTORE2
 62
 43
 10
       22.86000
 20
        0.00000
 30
        5.18000
 11
       22.86000
 21
        0.00000
 31
        0.00000
 12
       30.48000
 22
        0.00000
 32
        0.00000
 13
       30.48000
 23
        0.00000
 33
        5.18000
999
SMSTORE2:SMSTORE2_WALL_1_WINDOW_1
  0
3DFACE
  8
SMSTORE2
 62
143
 10
       23.47000
 20
        0.00000
 30
        4.24000
 11
       23.47000
 21
        0.00000
 31
        2.71773
 12
       25.60000
 22
        0.00000
 32
        2.71773
 13
       25.60000
 23
        0.00000
 33
        4.24000
999
SMSTORE2:SMSTORE2_WALL_1_WINDOW_2
  0
3DFACE
  8
SMSTORE2
 62
143
 10
       27.74000
 20
        0.00000
 30
        4.24000
 11
       27.74000
 21
        0.00000
 31
        2.71773
 12
       29.87000
 22
        0.00000
 32
        2.71773
 13
       29.87000
 23
        0.00000
 33
        4.24000
999
SMSTORE2:SMSTORE2_WALL_1_DOOR
  0
3DFACE
  8
SMSTORE2
 62
143
 10
       25.76000
 20
        0.00000
 30
        2.13000
 11
       25.76000
 21
        0.00000
 31
        0.00000
 12
       27.58000
 22
        0.00000
 32
        0.00000
 13
       27.58000
 23
        0.00000
 33
        2.13000
999
SMSTORE2:SMSTORE2_WALL_2
  0
3DFACE
  8
SMSTORE2
 62
 43
 10
       22.86000
 20
       22.86000
 30
        5.18000
 11
       22.86000
 21
       22.86000
 31
        0.00000
 12
       22.86000
 22
        0.00000
 32
        0.00000
 13
       22.86000
 23
        0.00000
 33
        5.18000
999
SMSTORE2:SMSTORE2_WALL_3
  0
3DFACE
  8
SMSTORE2
 62
 43
 10
       30.48000
 20
       22.86000
 30
        5.18000
 11
       30.48000
 21
       22.86000
 31
        0.00000
 12
       22.86000
 22
       22.86000
 32
        0.00000
 13
       22.86000
 23
       22.86000
 33
        5.18000
999
SMSTORE2:SMSTORE2_WALL_3_DOOR
  0
3DFACE
  8
SMSTORE2
 62
 45
 10
       27.58000
 20
       22.86000
 30
        2.13000
 11
       27.58000
 21
       22.86000
 31
        0.00000
 12
       25.76000
 22
       22.86000
 32
        0.00000
 13
       25.76000
 23
       22.86000
 33
        2.13000
999
SMSTORE2:SMSTORE2_WALL_4
  0
3DFACE
  8
SMSTORE2
 62
 43
 10
       30.48000
 20
        0.00000
 30
        5.18000
 11
       30.48000
 21
        0.00000
 31
        0.00000
 12
       30.48000
 22
       22.86000
 32
        0.00000
 13
       30.48000
 23
       22.86000
 33
        5.18000
999
SMSTORE2:SMSTORE2_FLOOR
  0
3DFACE
  8
SMSTORE2
 62
  8
 10
       22.86000
 20
       22.86000
 30
        0.00000
 11
       30.48000
 21
       22.86000
 31
        0.00000
 12
       30.48000
 22
        0.00000
 32
        0.00000
 13
       22.86000
 23
        0.00000
 33
        0.00000
999
SMSTORE2:SMSTORE2_ROOF
  0
3DFACE
  8
SMSTORE2
 62
 15
 10
       30.48000
 20
       22.86000
 30
        5.18000
 11
       22.86000
 21
       22.86000
 31
        5.18000
 12
       22.86000
 22
        0.00000
 32
        5.18000
 13
       30.48000
 23
        0.00000
 33
        5.18000
999
SMSTORE3:SMSTORE3_WALL_1
  0
3DFACE
  8
SMSTORE3
 62
 43
 10
       30.48000
 20
        0.00000
 30
        5.18000
 11
       30.48000
 21
        0.00000
 31
        0.00000
 12
       38.10000
 22
        0.00000
 32
        0.00000
 13
       38.10000
 23
        0.00000
 33
        5.18000
999
SMSTORE3:SMSTORE3_WALL_1_WINDOW_1
  0
3DFACE
  8
SMSTORE3
 62
143
 10
       31.09000
 20
        0.00000
 30
        4.24000
 11
       31.09000
 21
        0.00000
 31
        2.71773
 12
       33.22000
 22
        0.00000
 32
        2.71773
 13
       33.22000
 23
        0.00000
 33
        4.24000
999
SMSTORE3:SMSTORE3_WALL_1_WINDOW_2
  0
3DFACE
  8
SMSTORE3
 62
143
 10
       35.36000
 20
        0.00000
 30
        4.24000
 11
       35.36000
 21
        0.00000
 31
        2.71773
 12
       37.49000
 22
        0.00000
 32
        2.71773
 13
       37.49000
 23
        0.00000
 33
        4.24000
999
SMSTORE3:SMSTORE3_WALL_1_DOOR
  0
3DFACE
  8
SMSTORE3
 62
143
 10
       33.38000
 20
        0.00000
 30
        2.13000
 11
       33.38000
 21
        0.00000
 31
        0.00000
 12
       35.20000
 22
        0.00000
 32
        0.00000
 13
       35.20000
 23
        0.00000
 33
        2.13000
999
SMSTORE3:SMSTORE3_WALL_2
  0
3DFACE
  8
SMSTORE3
 62
 43
 10
       30.48000
 20
       22.86000
 30
        5.18000
 11
       30.48000
 21
       22.86000
 31
        0.00000
 12
       30.48000
 22
        0.00000
 32
        0.00000
 13
       30.48000
 23
        0.00000
 33
        5.18000
999
SMSTORE3:SMSTORE3_WALL_3
  0
3DFACE
  8
SMSTORE3
 62
 43
 10
       38.10000
 20
       22.86000
 30
        5.18000
 11
       38.10000
 21
       22.86000
 31
        0.00000
 12
       30.48000
 22
       22.86000
 32
        0.00000
 13
       30.48000
 23
       22.86000
 33
        5.18000
999
SMSTORE3:SMSTORE3_WALL_3_DOOR
  0
3DFACE
  8
SMSTORE3
 62
 45
 10
       35.20000
 20
       22.86000
 30
        2.13000
 11
       35.20000
 21
       22.86000
 31
        0.00000
 12
       33.38000
 22
       22.86000
 32
        0.00000
 13
       33.38000
 23
       22.86000
 33
        2.13000
999
SMSTORE3:SMSTORE3_WALL_4
  0
3DFACE
  8
SMSTORE3
 62
 43
 10
       38.10000
 20
        0.00000
 30
        5.18000
 11
       38.10000
 21
        0.00000
 31
        0.00000
 12
       38.10000
 22
       22.86000
 32
        0.00000
 13
       38.10000
 23
       22.86000
 33
        5.18000
999
SMSTORE3:SMSTORE3_FLOOR
  0
3DFACE
  8
SMSTORE3
 62
  8
 10
       30.48000
 20
       22.86000
 30
        0.00000
 11
       38.10000
 21
       22.86000
 31
        0.00000
 12
       38.10000
 22
        0.00000
 32
        0.00000
 13
       30.48000
 23
        0.00000
 33
        0.00000
999
SMSTORE3:SMSTORE3_ROOF
  0
3DFACE
  8
SMSTORE3
 62
 15
 10
       38.10000
 20
       22.86000
 30
        5.18000
 11
       30.48000
 21
       22.86000
 31
        5.18000
 12
       30.48000
 22
        0.00000
 32
        5.18000
 13
       38.10000
 23
        0.00000
 33
        5.18000
999
SMSTORE4:SMSTORE4_WALL_1
  0
3DFACE
  8
SMSTORE4
 62
 43
 10
       38.10000
 20
        0.00000
 30
        5.18000
 11
       38.10000
 21
        0.00000
 31
        0.00000
 12
       45.72000
 22
        0.00000
 32
        0.00000
 13
       45.72000
 23
        0.00000
 33
        5.18000
999
SMSTORE4:SMSTORE4_WALL_1_WINDOW_1
  0
3DFACE
  8
SMSTORE4
 62
143
 10
       38.71000
 20
        0.00000
 30
        4.24000
 11
       38.71000
 21
        0.00000
 31
        2.71773
 12
       40.84000
 22
        0.00000
 32
        2.71773
 13
       40.84000
 23
        0.00000
 33
        4.24000
999
SMSTORE4:SMSTORE4_WALL_1_WINDOW_2
  0
3DFACE
  8
SMSTORE4
 62
143
 10
       42.98000
 20
        0.00000
 30
        4.24000
 11
       42.98000
 21
        0.00000
 31
        2.71773
 12
       45.11000
 22
        0.00000
 32
        2.71773
 13
       45.11000
 23
        0.00000
 33
        4.24000
999
SMSTORE4:SMSTORE4_WALL_1_DOOR
  0
3DFACE
  8
SMSTORE4
 62
143
 10
       41.00000
 20
        0.00000
 30
        2.13000
 11
       41.00000
 21
        0.00000
 31
        0.00000
 12
       42.82000
 22
        0.00000
 32
        0.00000
 13
       42.82000
 23
        0.00000
 33
        2.13000
999
SMSTORE4:SMSTORE4_WALL_2
  0
3DFACE
  8
SMSTORE4
 62
 43
 10
       38.10000
 20
       22.86000
 30
        5.18000
 11
       38.10000
 21
       22.86000
 31
        0.00000
 12
       38.10000
 22
        0.00000
 32
        0.00000
 13
       38.10000
 23
        0.00000
 33
        5.18000
999
SMSTORE4:SMSTORE4_WALL_3
  0
3DFACE
  8
SMSTORE4
 62
 43
 10
       45.72000
 20
       22.86000
 30
        5.18000
 11
       45.72000
 21
       22.86000
 31
        0.00000
 12
       38.10000
 22
       22.86000
 32
        0.00000
 13
       38.10000
 23
       22.86000
 33
        5.18000
999
SMSTORE4:SMSTORE4_WALL_3_DOOR
  0
3DFACE
  8
SMSTORE4
 62
 45
 10
       42.82000
 20
       22.86000
 30
        2.13000
 11
       42.82000
 21
       22.86000
 31
        0.00000
 12
       41.00000
 22
       22.86000
 32
        0.00000
 13
       41.00000
 23
       22.86000
 33
        2.13000
999
SMSTORE4:SMSTORE4_WALL_4
  0
3DFACE
  8
SMSTORE4
 62
 43
 10
       45.72000
 20
        0.00000
 30
        5.18000
 11
       45.72000
 21
        0.00000
 31
        0.00000
 12
       45.72000
 22
       22.86000
 32
        0.00000
 13
       45.72000
 23
       22.86000
 33
        5.18000
999
SMSTORE4:SMSTORE4_FLOOR
  0
3DFACE
  8
SMSTORE4
 62
  8
 10
       38.10000
 20
       22.86000
 30
        0.00000
 11
       45.72000
 21
       22.86000
 31
        0.00000
 12
       45.72000
 22
        0.00000
 32
        0.00000
 13
       38.10000
 23
        0.00000
 33
        0.00000
999
SMSTORE4:SMSTORE4_ROOF
  0
3DFACE
  8
SMSTORE4
 62
 15
 10
       45.72000
 20
       22.86000
 30
        5.18000
 11
       38.10000
 21
       22.86000
 31
        5.18000
 12
       38.10000
 22
        0.00000
 32
        5.18000
 13
       45.72000
 23
        0.00000
 33
        5.18000
999
LGSTORE2:LGSTORE2_WALL_2
  0
3DFACE
  8
LGSTORE2
 62
 43
 10
       45.72000
 20
       22.86000
 30
        5.18000
 11
       45.72000
 21
       22.86000
 31
        0.00000
 12
       45.72000
 22
        0.00000
 32
        0.00000
 13
       45.72000
 23
        0.00000
 33
        5.18000
999
LGSTORE2:LGSTORE2_WALL_3
  0
3DFACE
  8
LGSTORE2
 62
 43
 10
       60.96000
 20
       22.86000
 30
        5.18000
 11
       60.96000
 21
       22.86000
 31
        0.00000
 12
       45.72000
 22
       22.86000
 32
        0.00000
 13
       45.72000
 23
       22.86000
 33
        5.18000
999
LGSTORE2:LGSTORE2_WALL_3_DOOR_1
  0
3DFACE
  8
LGSTORE2
 62
 45
 10
       50.44000
 20
       22.86000
 30
        2.13000
 11
       50.44000
 21
       22.86000
 31
        0.00000
 12
       48.62000
 22
       22.86000
 32
        0.00000
 13
       48.62000
 23
       22.86000
 33
        2.13000
999
LGSTORE2:LGSTORE2_WALL_3_DOOR_2
  0
3DFACE
  8
LGSTORE2
 62
 45
 10
       58.06000
 20
       22.86000
 30
        2.13000
 11
       58.06000
 21
       22.86000
 31
        0.00000
 12
       56.24000
 22
       22.86000
 32
        0.00000
 13
       56.24000
 23
       22.86000
 33
        2.13000
999
LGSTORE2:LGSTORE2_WALL_4
  0
3DFACE
  8
LGSTORE2
 62
 43
 10
       60.96000
 20
        0.00000
 30
        5.18000
 11
       60.96000
 21
        0.00000
 31
        0.00000
 12
       60.96000
 22
       22.86000
 32
        0.00000
 13
       60.96000
 23
       22.86000
 33
        5.18000
999
LGSTORE2:LGSTORE2_WALL_1
  0
3DFACE
  8
LGSTORE2
 62
 43
 10
       45.72000
 20
        0.00000
 30
        5.18000
 11
       45.72000
 21
        0.00000
 31
        0.00000
 12
       60.96000
 22
        0.00000
 32
        0.00000
 13
       60.96000
 23
        0.00000
 33
        5.18000
999
LGSTORE2:LGSTORE2_WALL_1_WINDOW_1
  0
3DFACE
  8
LGSTORE2
 62
143
 10
       46.33000
 20
        0.00000
 30
        4.24000
 11
       46.33000
 21
        0.00000
 31
        2.71773
 12
       48.46000
 22
        0.00000
 32
        2.71773
 13
       48.46000
 23
        0.00000
 33
        4.24000
999
LGSTORE2:LGSTORE2_WALL_1_WINDOW_2
  0
3DFACE
  8
LGSTORE2
 62
143
 10
       50.60000
 20
        0.00000
 30
        4.24000
 11
       50.60000
 21
        0.00000
 31
        2.71773
 12
       52.73000
 22
        0.00000
 32
        2.71773
 13
       52.73000
 23
        0.00000
 33
        4.24000
999
LGSTORE2:LGSTORE2_WALL_1_WINDOW_3
  0
3DFACE
  8
LGSTORE2
 62
143
 10
       53.95000
 20
        0.00000
 30
        4.24000
 11
       53.95000
 21
        0.00000
 31
        2.71773
 12
       56.08000
 22
        0.00000
 32
        2.71773
 13
       56.08000
 23
        0.00000
 33
        4.24000
999
LGSTORE2:LGSTORE2_WALL_1_WINDOW_4
  0
3DFACE
  8
LGSTORE2
 62
143
 10
       58.22000
 20
        0.00000
 30
        4.24000
 11
       58.22000
 21
        0.00000
 31
        2.71773
 12
       60.35000
 22
        0.00000
 32
        2.71773
 13
       60.35000
 23
        0.00000
 33
        4.24000
999
LGSTORE2:LGSTORE2_WALL_1_DOOR_1
  0
3DFACE
  8
LGSTORE2
 62
143
 10
       48.62000
 20
        0.00000
 30
        2.13000
 11
       48.62000
 21
        0.00000
 31
        0.00000
 12
       50.44000
 22
        0.00000
 32
        0.00000
 13
       50.44000
 23
        0.00000
 33
        2.13000
999
LGSTORE2:LGSTORE2_WALL_1_DOOR_2
  0
3DFACE
  8
LGSTORE2
 62
143
 10
       56.24000
 20
        0.00000
 30
        2.13000
 11
       56.24000
 21
        0.00000
 31
        0.00000
 12
       58.06000
 22
        0.00000
 32
        0.00000
 13
       58.06000
 23
        0.00000
 33
        2.13000
999
LGSTORE2:LGSTORE2_FLOOR
  0
3DFACE
  8
LGSTORE2
 62
  8
 10
       45.72000
 20
       22.86000
 30
        0.00000
 11
       60.96000
 21
       22.86000
 31
        0.00000
 12
       60.96000
 22
        0.00000
 32
        0.00000
 13
       45.72000
 23
        0.00000
 33
        0.00000
999
LGSTORE2:LGSTORE2_ROOF
  0
3DFACE
  8
LGSTORE2
 62
 15
 10
       60.96000
 20
       22.86000
 30
        5.18000
 11
       45.72000
 21
       22.86000
 31
        5.18000
 12
       45.72000
 22
        0.00000
 32
        5.18000
 13
       60.96000
 23
        0.00000
 33
        5.18000
999
SMSTORE5:SMSTORE5_WALL_1
  0
3DFACE
  8
SMSTORE5
 62
 43
 10
       60.96000
 20
        0.00000
 30
        5.18000
 11
       60.96000
 21
        0.00000
 31
        0.00000
 12
       68.58000
 22
        0.00000
 32
        0.00000
 13
       68.58000
 23
        0.00000
 33
        5.18000
999
SMSTORE5:SMSTORE5_WALL_1_WINDOW_1
  0
3DFACE
  8
SMSTORE5
 62
143
 10
       61.57000
 20
        0.00000
 30
        4.24000
 11
       61.57000
 21
        0.00000
 31
        2.71773
 12
       63.70000
 22
        0.00000
 32
        2.71773
 13
       63.70000
 23
        0.00000
 33
        4.24000
999
SMSTORE5:SMSTORE5_WALL_1_WINDOW_2
  0
3DFACE
  8
SMSTORE5
 62
143
 10
       65.84000
 20
        0.00000
 30
        4.24000
 11
       65.84000
 21
        0.00000
 31
        2.71773
 12
       67.97000
 22
        0.00000
 32
        2.71773
 13
       67.97000
 23
        0.00000
 33
        4.24000
999
SMSTORE5:SMSTORE5_WALL_1_DOOR
  0
3DFACE
  8
SMSTORE5
 62
143
 10
       63.86000
 20
        0.00000
 30
        2.13000
 11
       63.86000
 21
        0.00000
 31
        0.00000
 12
       65.68000
 22
        0.00000
 32
        0.00000
 13
       65.68000
 23
        0.00000
 33
        2.13000
999
SMSTORE5:SMSTORE5_WALL_2
  0
3DFACE
  8
SMSTORE5
 62
 43
 10
       60.96000
 20
       22.86000
 30
        5.18000
 11
       60.96000
 21
       22.86000
 31
        0.00000
 12
       60.96000
 22
        0.00000
 32
        0.00000
 13
       60.96000
 23
        0.00000
 33
        5.18000
999
SMSTORE5:SMSTORE5_WALL_3
  0
3DFACE
  8
SMSTORE5
 62
 43
 10
       68.58000
 20
       22.86000
 30
        5.18000
 11
       68.58000
 21
       22.86000
 31
        0.00000
 12
       60.96000
 22
       22.86000
 32
        0.00000
 13
       60.96000
 23
       22.86000
 33
        5.18000
999
SMSTORE5:SMSTORE5_WALL_3_DOOR
  0
3DFACE
  8
SMSTORE5
 62
 45
 10
       65.68000
 20
       22.86000
 30
        2.13000
 11
       65.68000
 21
       22.86000
 31
        0.00000
 12
       63.86000
 22
       22.86000
 32
        0.00000
 13
       63.86000
 23
       22.86000
 33
        2.13000
999
SMSTORE5:SMSTORE5_WALL_4
  0
3DFACE
  8
SMSTORE5
 62
 43
 10
       68.58000
 20
        0.00000
 30
        5.18000
 11
       68.58000
 21
        0.00000
 31
        0.00000
 12
       68.58000
 22
       22.86000
 32
        0.00000
 13
       68.58000
 23
       22.86000
 33
        5.18000
999
SMSTORE5:SMSTORE5_FLOOR
  0
3DFACE
  8
SMSTORE5
 62
  8
 10
       60.96000
 20
       22.86000
 30
        0.00000
 11
       68.58000
 21
       22.86000
 31
        0.00000
 12
       68.58000
 22
        0.00000
 32
        0.00000
 13
       60.96000
 23
        0.00000
 33
        0.00000
999
SMSTORE5:SMSTORE5_ROOF
  0
3DFACE
  8
SMSTORE5
 62
 15
 10
       68.58000
 20
       22.86000
 30
        5.18000
 11
       60.96000
 21
       22.86000
 31
        5.18000
 12
       60.96000
 22
        0.00000
 32
        5.18000
 13
       68.58000
 23
        0.00000
 33
        5.18000
999
SMSTORE6:SMSTORE6_WALL_1
  0
3DFACE
  8
SMSTORE6
 62
 43
 10
       68.58000
 20
        0.00000
 30
        5.18000
 11
       68.58000
 21
        0.00000
 31
        0.00000
 12
       76.20000
 22
        0.00000
 32
        0.00000
 13
       76.20000
 23
        0.00000
 33
        5.18000
999
SMSTORE6:SMSTORE6_WALL_1_WINDOW_1
  0
3DFACE
  8
SMSTORE6
 62
143
 10
       69.19000
 20
        0.00000
 30
        4.24000
 11
       69.19000
 21
        0.00000
 31
        2.71773
 12
       71.32000
 22
        0.00000
 32
        2.71773
 13
       71.32000
 23
        0.00000
 33
        4.24000
999
SMSTORE6:SMSTORE6_WALL_1_WINDOW_2
  0
3DFACE
  8
SMSTORE6
 62
143
 10
       73.46000
 20
        0.00000
 30
        4.24000
 11
       73.46000
 21
        0.00000
 31
        2.71773
 12
       75.59000
 22
        0.00000
 32
        2.71773
 13
       75.59000
 23
        0.00000
 33
        4.24000
999
SMSTORE6:SMSTORE6_WALL_1_DOOR
  0
3DFACE
  8
SMSTORE6
 62
143
 10
       71.48000
 20
        0.00000
 30
        2.13000
 11
       71.48000
 21
        0.00000
 31
        0.00000
 12
       73.30000
 22
        0.00000
 32
        0.00000
 13
       73.30000
 23
        0.00000
 33
        2.13000
999
SMSTORE6:SMSTORE6_WALL_2
  0
3DFACE
  8
SMSTORE6
 62
 43
 10
       68.58000
 20
       22.86000
 30
        5.18000
 11
       68.58000
 21
       22.86000
 31
        0.00000
 12
       68.58000
 22
        0.00000
 32
        0.00000
 13
       68.58000
 23
        0.00000
 33
        5.18000
999
SMSTORE6:SMSTORE6_WALL_3
  0
3DFACE
  8
SMSTORE6
 62
 43
 10
       76.20000
 20
       22.86000
 30
        5.18000
 11
       76.20000
 21
       22.86000
 31
        0.00000
 12
       68.58000
 22
       22.86000
 32
        0.00000
 13
       68.58000
 23
       22.86000
 33
        5.18000
999
SMSTORE6:SMSTORE6_WALL_3_DOOR
  0
3DFACE
  8
SMSTORE6
 62
 45
 10
       73.30000
 20
       22.86000
 30
        2.13000
 11
       73.30000
 21
       22.86000
 31
        0.00000
 12
       71.48000
 22
       22.86000
 32
        0.00000
 13
       71.48000
 23
       22.86000
 33
        2.13000
999
SMSTORE6:SMSTORE6_WALL_4
  0
3DFACE
  8
SMSTORE6
 62
 43
 10
       76.20000
 20
        0.00000
 30
        5.18000
 11
       76.20000
 21
        0.00000
 31
        0.00000
 12
       76.20000
 22
       22.86000
 32
        0.00000
 13
       76.20000
 23
       22.86000
 33
        5.18000
999
SMSTORE6:SMSTORE6_FLOOR
  0
3DFACE
  8
SMSTORE6
 62
  8
 10
       68.58000
 20
       22.86000
 30
        0.00000
 11
       76.20000
 21
       22.86000
 31
        0.00000
 12
       76.20000
 22
        0.00000
 32
        0.00000
 13
       68.58000
 23
        0.00000
 33
        0.00000
999
SMSTORE6:SMSTORE6_ROOF
  0
3DFACE
  8
SMSTORE6
 62
 15
 10
       76.20000
 20
       22.86000
 30
        5.18000
 11
       68.58000
 21
       22.86000
 31
        5.18000
 12
       68.58000
 22
        0.00000
 32
        5.18000
 13
       76.20000
 23
        0.00000
 33
        5.18000
999
SMSTORE7:SMSTORE7_WALL_1
  0
3DFACE
  8
SMSTORE7
 62
 43
 10
       76.20000
 20
        0.00000
 30
        5.18000
 11
       76.20000
 21
        0.00000
 31
        0.00000
 12
       83.82000
 22
        0.00000
 32
        0.00000
 13
       83.82000
 23
        0.00000
 33
        5.18000
999
SMSTORE7:SMSTORE7_WALL_1_WINDOW_1
  0
3DFACE
  8
SMSTORE7
 62
143
 10
       76.81000
 20
        0.00000
 30
        4.24000
 11
       76.81000
 21
        0.00000
 31
        2.71773
 12
       78.94000
 22
        0.00000
 32
        2.71773
 13
       78.94000
 23
        0.00000
 33
        4.24000
999
SMSTORE7:SMSTORE7_WALL_1_WINDOW_2
  0
3DFACE
  8
SMSTORE7
 62
143
 10
       81.08000
 20
        0.00000
 30
        4.24000
 11
       81.08000
 21
        0.00000
 31
        2.71773
 12
       83.21000
 22
        0.00000
 32
        2.71773
 13
       83.21000
 23
        0.00000
 33
        4.24000
999
SMSTORE7:SMSTORE7_WALL_1_DOOR
  0
3DFACE
  8
SMSTORE7
 62
143
 10
       79.10000
 20
        0.00000
 30
        2.13000
 11
       79.10000
 21
        0.00000
 31
        0.00000
 12
       80.92000
 22
        0.00000
 32
        0.00000
 13
       80.92000
 23
        0.00000
 33
        2.13000
999
SMSTORE7:SMSTORE7_WALL_2
  0
3DFACE
  8
SMSTORE7
 62
 43
 10
       76.20000
 20
       22.86000
 30
        5.18000
 11
       76.20000
 21
       22.86000
 31
        0.00000
 12
       76.20000
 22
        0.00000
 32
        0.00000
 13
       76.20000
 23
        0.00000
 33
        5.18000
999
SMSTORE7:SMSTORE7_WALL_3
  0
3DFACE
  8
SMSTORE7
 62
 43
 10
       83.82000
 20
       22.86000
 30
        5.18000
 11
       83.82000
 21
       22.86000
 31
        0.00000
 12
       76.20000
 22
       22.86000
 32
        0.00000
 13
       76.20000
 23
       22.86000
 33
        5.18000
999
SMSTORE7:SMSTORE7_WALL_3_DOOR
  0
3DFACE
  8
SMSTORE7
 62
 45
 10
       80.92000
 20
       22.86000
 30
        2.13000
 11
       80.92000
 21
       22.86000
 31
        0.00000
 12
       79.10000
 22
       22.86000
 32
        0.00000
 13
       79.10000
 23
       22.86000
 33
        2.13000
999
SMSTORE7:SMSTORE7_WALL_4
  0
3DFACE
  8
SMSTORE7
 62
 43
 10
       83.82000
 20
        0.00000
 30
        5.18000
 11
       83.82000
 21
        0.00000
 31
        0.00000
 12
       83.82000
 22
       22.86000
 32
        0.00000
 13
       83.82000
 23
       22.86000
 33
        5.18000
999
SMSTORE7:SMSTORE7_FLOOR
  0
3DFACE
  8
SMSTORE7
 62
  8
 10
       76.20000
 20
       22.86000
 30
        0.00000
 11
       83.82000
 21
       22.86000
 31
        0.00000
 12
       83.82000
 22
        0.00000
 32
        0.00000
 13
       76.20000
 23
        0.00000
 33
        0.00000
999
SMSTORE7:SMSTORE7_ROOF
  0
3DFACE
  8
SMSTORE7
 62
 15
 10
       83.82000
 20
       22.86000
 30
        5.18000
 11
       76.20000
 21
       22.86000
 31
        5.18000
 12
       76.20000
 22
        0.00000
 32
        5.18000
 13
       83.82000
 23
        0.00000
 33
        5.18000
999
SMSTORE8:SMSTORE8_WALL_1
  0
3DFACE
  8
SMSTORE8
 62
 43
 10
       83.82000
 20
        0.00000
 30
        5.18000
 11
       83.82000
 21
        0.00000
 31
        0.00000
 12
       91.44000
 22
        0.00000
 32
        0.00000
 13
       91.44000
 23
        0.00000
 33
        5.18000
999
SMSTORE8:SMSTORE8_WALL_1_WINDOW_1
  0
3DFACE
  8
SMSTORE8
 62
143
 10
       84.43000
 20
        0.00000
 30
        4.24000
 11
       84.43000
 21
        0.00000
 31
        2.71773
 12
       86.56000
 22
        0.00000
 32
        2.71773
 13
       86.56000
 23
        0.00000
 33
        4.24000
999
SMSTORE8:SMSTORE8_WALL_1_WINDOW_2
  0
3DFACE
  8
SMSTORE8
 62
143
 10
       88.70000
 20
        0.00000
 30
        4.24000
 11
       88.70000
 21
        0.00000
 31
        2.71773
 12
       90.83000
 22
        0.00000
 32
        2.71773
 13
       90.83000
 23
        0.00000
 33
        4.24000
999
SMSTORE8:SMSTORE8_WALL_1_DOOR
  0
3DFACE
  8
SMSTORE8
 62
143
 10
       86.72000
 20
        0.00000
 30
        2.13000
 11
       86.72000
 21
        0.00000
 31
        0.00000
 12
       88.54000
 22
        0.00000
 32
        0.00000
 13
       88.54000
 23
        0.00000
 33
        2.13000
999
SMSTORE8:SMSTORE8_WALL_2
  0
3DFACE
  8
SMSTORE8
 62
 43
 10
       83.82000
 20
       22.86000
 30
        5.18000
 11
       83.82000
 21
       22.86000
 31
        0.00000
 12
       83.82000
 22
        0.00000
 32
        0.00000
 13
       83.82000
 23
        0.00000
 33
        5.18000
999
SMSTORE8:SMSTORE8_WALL_3
  0
3DFACE
  8
SMSTORE8
 62
 43
 10
       91.44000
 20
       22.86000
 30
        5.18000
 11
       91.44000
 21
       22.86000
 31
        0.00000
 12
       83.82000
 22
       22.86000
 32
        0.00000
 13
       83.82000
 23
       22.86000
 33
        5.18000
999
SMSTORE8:SMSTORE8_WALL_3_DOOR
  0
3DFACE
  8
SMSTORE8
 62
 45
 10
       88.54000
 20
       22.86000
 30
        2.13000
 11
       88.54000
 21
       22.86000
 31
        0.00000
 12
       86.72000
 22
       22.86000
 32
        0.00000
 13
       86.72000
 23
       22.86000
 33
        2.13000
999
SMSTORE8:SMSTORE8_WALL_4
  0
3DFACE
  8
SMSTORE8
 62
 43
 10
       91.44000
 20
        0.00000
 30
        5.18000
 11
       91.44000
 21
        0.00000
 31
        0.00000
 12
       91.44000
 22
       22.86000
 32
        0.00000
 13
       91.44000
 23
       22.86000
 33
        5.18000
999
SMSTORE8:SMSTORE8_FLOOR
  0
3DFACE
  8
SMSTORE8
 62
  8
 10
       83.82000
 20
       22.86000
 30
        0.00000
 11
       91.44000
 21
       22.86000
 31
        0.00000
 12
       91.44000
 22
        0.00000
 32
        0.00000
 13
       83.82000
 23
        0.00000
 33
        0.00000
999
SMSTORE8:SMSTORE8_ROOF
  0
3DFACE
  8
SMSTORE8
 62
 15
 10
       91.44000
 20
       22.86000
 30
        5.18000
 11
       83.82000
 21
       22.86000
 31
        5.18000
 12
       83.82000
 22
        0.00000
 32
        5.18000
 13
       91.44000
 23
        0.00000
 33
        5.18000
  0
ENDSEC
  0
EOF
