  0
SECTION
  2
ENTITIES
999
DXF created from EnergyPlus
999
Program Version,EnergyPlus, Version 22.1.0-ed759b17ee, YMD=2026.07.29 06:16
999
Polygon Action,ThickPolyline
999
Color Scheme,Default
999
Text - True North
  0
TEXT
  8
1
  6
Continuous
 62
  3
 10
      -75.00000
 20
        3.00000
 30
        0.10000
 40
 .25
  1
True North
 41
 0.0
  7
MONOTXT
210
0.0
220
0.0
230
1.0
999
Text - Building Title
  0
TEXT
  8
1
  6
Continuous
 62
  3
 10
      -78.00000
 20
       -1.00000
 30
        0.10000
 40
 .4
  1
Building - SchoolPrimary
 41
 0.0
  7
MONOTXT
210
0.0
220
0.0
230
1.0
999
North Arrow Stem
  0
3DFACE
  8
1
 62
  3
 10
      -74.00000
 20
        3.00000
 30
        0.10000
 11
      -74.00000
 21
        3.00000
 31
        0.00000
 12
      -74.00000
 22
        0.00000
 32
        0.00000
 13
      -74.00000
 23
        0.00000
 33
        0.10000
999
North Arrow Head 1
  0
3DFACE
  8
1
 62
  3
 10
      -74.00000
 20
        3.00000
 30
        0.10000
 11
      -74.00000
 21
        3.00000
 31
        0.00000
 12
      -74.50000
 22
        2.13397
 32
        0.00000
 13
      -74.50000
 23
        2.13397
 33
        0.10000
999
North Arrow Head 2
  0
3DFACE
  8
1
 62
  3
 10
      -74.00000
 20
        3.00000
 30
        0.10000
 11
      -74.00000
 21
        3.00000
 31
        0.00000
 12
      -73.50000
 22
        2.13397
 32
        0.00000
 13
      -73.50000
 23
        2.13397
 33
        0.10000
999
North Arrow Side 1
  0
3DFACE
  8
1
 62
  3
 10
      -74.50000
 20
        4.50000
 30
        0.10000
 11
      -74.50000
 21
        4.50000
 31
        0.00000
 12
      -74.50000
 22
        3.50000
 32
        0.00000
 13
      -74.50000
 23
        3.50000
 33
        0.10000
999
North Arrow Side 2
  0
3DFACE
  8
1
 62
  3
 10
      -74.50000
 20
        4.50000
 30
        0.10000
 11
      -74.50000
 21
        4.50000
 31
        0.00000
 12
      -73.50000
 22
        3.50000
 32
        0.00000
 13
      -73.50000
 23
        3.50000
 33
        0.10000
999
North Arrow Side 3
  0
3DFACE
  8
1
 62
  3
 10
      -73.50000
 20
        4.50000
 30
        0.10000
 11
      -73.50000
 21
        4.50000
 31
        0.00000
 12
      -73.50000
 22
        3.50000
 32
        0.00000
 13
      -73.50000
 23
        3.50000
 33
        0.10000
999
Zone Names
999
Zone=1:CORNER_CLASS_1_POD_1_ZN_1_FLR_1
999
Zone=2:MULT_CLASS_1_POD_1_ZN_1_FLR_1
999
Zone=3:CORRIDOR_POD_1_ZN_1_FLR_1
999
Zone=4:CORNER_CLASS_2_POD_1_ZN_1_FLR_1
999
Zone=5:MULT_CLASS_2_POD_1_ZN_1_FLR_1
999
Zone=6:CORNER_CLASS_1_POD_2_ZN_1_FLR_1
999
Zone=7:MULT_CLASS_1_POD_2_ZN_1_FLR_1
999
Zone=8:CORRIDOR_POD_2_ZN_1_FLR_1
999
Zone=9:CORNER_CLASS_2_POD_2_ZN_1_FLR_1
999
Zone=10:MULT_CLASS_2_POD_2_ZN_1_FLR_1
999
Zone=11:CORNER_CLASS_1_POD_3_ZN_1_FLR_1
999
Zone=12:MULT_CLASS_1_POD_3_ZN_1_FLR_1
999
Zone=13:CORRIDOR_POD_3_ZN_1_FLR_1
999
Zone=14:CORNER_CLASS_2_POD_3_ZN_1_FLR_1
999
Zone=15:MULT_CLASS_2_POD_3_ZN_1_FLR_1
999
Zone=16:COMPUTER_CLASS_ZN_1_FLR_1
999
Zone=17:MAIN_CORRIDOR_ZN_1_FLR_1
999
Zone=18:LOBBY_ZN_1_FLR_1
999
Zone=19:MECH_ZN_1_FLR_1
999
Zone=20:BATH_ZN_1_FLR_1
999
Zone=21:OFFICES_ZN_1_FLR_1
999
Zone=22:GYM_ZN_1_FLR_1
999
Zone=23:KITCHEN_ZN_1_FLR_1
999
Zone=24:CAFETERIA_ZN_1_FLR_1
999
Zone=25:LIBRARY_MEDIA_CENTER_ZN_1_FLR_1
999
CORNER_CLASS_1_POD_1_ZN_1_FLR_1:CORNER_CLASS_1_POD_1_ZN_1_FLR_1_WALL_1
  0
3DFACE
  8
CORNER_CLASS_1_POD_1_ZN_1_FLR_1
 62
 43
 10
      -64.00000
 20
        0.00000
 30
        4.00000
 11
      -64.00000
 21
        0.00000
 31
        0.00000
 12
      -53.00000
 22
        0.00000
 32
        0.00000
 13
      -53.00000
 23
        0.00000
 33
        4.00000
999
CORNER_CLASS_1_POD_1_ZN_1_FLR_1:CORNER_CLASS_1_POD_1_ZN_1_FLR_1_WALL_1_WINDOW1
  0
3DFACE
  8
CORNER_CLASS_1_POD_1_ZN_1_FLR_1
 62
143
 10
      -63.95000
 20
        0.00000
 30
        2.51284
 11
      -63.95000
 21
        0.00000
 31
        0.92207
 12
      -62.73080
 22
        0.00000
 32
        0.92207
 13
      -62.73080
 23
        0.00000
 33
        2.51284
999
CORNER_CLASS_1_POD_1_ZN_1_FLR_1:CORNER_CLASS_1_POD_1_ZN_1_FLR_1_WALL_1_WINDOW2
  0
3DFACE
  8
CORNER_CLASS_1_POD_1_ZN_1_FLR_1
 62
143
 10
      -61.51160
 20
        0.00000
 30
        2.51284
 11
      -61.51160
 21
        0.00000
 31
        0.92207
 12
      -53.05000
 22
        0.00000
 32
        0.92207
 13
      -53.05000
 23
        0.00000
 33
        2.51284
999
CORNER_CLASS_1_POD_1_ZN_1_FLR_1:CORNER_CLASS_1_POD_1_ZN_1_FLR_1_WALL_1_DOOR
  0
3DFACE
  8
CORNER_CLASS_1_POD_1_ZN_1_FLR_1
 62
 45
 10
      -62.59076
 20
        0.00000
 30
        2.13360
 11
      -62.59076
 21
        0.00000
 31
        0.00000
 12
      -61.67636
 22
        0.00000
 32
        0.00000
 13
      -61.67636
 23
        0.00000
 33
        2.13360
999
CORNER_CLASS_1_POD_1_ZN_1_FLR_1:CORNER_CLASS_1_POD_1_ZN_1_FLR_1_WALL_2
  0
3DFACE
  8
CORNER_CLASS_1_POD_1_ZN_1_FLR_1
 62
 43
 10
      -53.00000
 20
        0.00000
 30
        4.00000
 11
      -53.00000
 21
        0.00000
 31
        0.00000
 12
      -53.00000
 22
        9.00000
 32
        0.00000
 13
      -53.00000
 23
        9.00000
 33
        4.00000
999
CORNER_CLASS_1_POD_1_ZN_1_FLR_1:CORNER_CLASS_1_POD_1_ZN_1_FLR_1_WALL_3
  0
3DFACE
  8
CORNER_CLASS_1_POD_1_ZN_1_FLR_1
 62
 43
 10
      -53.00000
 20
        9.00000
 30
        4.00000
 11
      -53.00000
 21
        9.00000
 31
        0.00000
 12
      -64.00000
 22
        9.00000
 32
        0.00000
 13
      -64.00000
 23
        9.00000
 33
        4.00000
999
CORNER_CLASS_1_POD_1_ZN_1_FLR_1:CORNER_CLASS_1_POD_1_ZN_1_FLR_1_WALL_4
  0
3DFACE
  8
CORNER_CLASS_1_POD_1_ZN_1_FLR_1
 62
 43
 10
      -64.00000
 20
        9.00000
 30
        4.00000
 11
      -64.00000
 21
        9.00000
 31
        0.00000
 12
      -64.00000
 22
        0.00000
 32
        0.00000
 13
      -64.00000
 23
        0.00000
 33
        4.00000
999
CORNER_CLASS_1_POD_1_ZN_1_FLR_1:CORNER_CLASS_1_POD_1_ZN_1_FLR_1_WALL_4_WINDOW_1
  0
3DFACE
  8
CORNER_CLASS_1_POD_1_ZN_1_FLR_1
 62
143
 10
      -64.00000
 20
        8.95000
 30
        2.51572
 11
      -64.00000
 21
        8.95000
 31
        1.10000
 12
      -64.00000
 22
        0.05000
 32
        1.10000
 13
      -64.00000
 23
        0.05000
 33
        2.51572
999
CORNER_CLASS_1_POD_1_ZN_1_FLR_1:CORNER_CLASS_1_POD_1_ZN_1_FLR_1_FLOOR
  0
3DFACE
  8
CORNER_CLASS_1_POD_1_ZN_1_FLR_1
 62
  8
 10
      -64.00000
 20
        9.00000
 30
        0.00000
 11
      -53.00000
 21
        9.00000
 31
        0.00000
 12
      -53.00000
 22
        0.00000
 32
        0.00000
 13
      -64.00000
 23
        0.00000
 33
        0.00000
999
CORNER_CLASS_1_POD_1_ZN_1_FLR_1:CORNER_CLASS_1_POD_1_ZN_1_FLR_1_CEILING
  0
3DFACE
  8
CORNER_CLASS_1_POD_1_ZN_1_FLR_1
 62
 15
 10
      -64.00000
 20
        0.00000
 30
        4.00000
 11
      -53.00000
 21
        0.00000
 31
        4.00000
 12
      -53.00000
 22
        9.00000
 32
        4.00000
 13
      -64.00000
 23
        9.00000
 33
        4.00000
999
MULT_CLASS_1_POD_1_ZN_1_FLR_1:MULT_CLASS_1_POD_1_ZN_1_FLR_1_WALL_1
  0
3DFACE
  8
MULT_CLASS_1_POD_1_ZN_1_FLR_1
 62
 43
 10
      -53.00000
 20
        0.00000
 30
        4.00000
 11
      -53.00000
 21
        0.00000
 31
        0.00000
 12
        0.00000
 22
        0.00000
 32
        0.00000
 13
        0.00000
 23
        0.00000
 33
        4.00000
999
MULT_CLASS_1_POD_1_ZN_1_FLR_1:MULT_CLASS_1_POD_1_ZN_1_FLR_1_WALL_1_WINDOW1
  0
3DFACE
  8
MULT_CLASS_1_POD_1_ZN_1_FLR_1
 62
143
 10
      -52.95000
 20
        0.00000
 30
        2.50266
 11
      -52.95000
 21
        0.00000
 31
        1.03222
 12
      -36.12936
 22
        0.00000
 32
        1.03222
 13
      -36.12936
 23
        0.00000
 33
        2.50266
999
MULT_CLASS_1_POD_1_ZN_1_FLR_1:MULT_CLASS_1_POD_1_ZN_1_FLR_1_WALL_1_WINDOW2
  0
3DFACE
  8
MULT_CLASS_1_POD_1_ZN_1_FLR_1
 62
143
 10
      -34.91016
 20
        0.00000
 30
        2.50266
 11
      -34.91016
 21
        0.00000
 31
        1.03222
 12
      -18.08952
 22
        0.00000
 32
        1.03222
 13
      -18.08952
 23
        0.00000
 33
        2.50266
999
MULT_CLASS_1_POD_1_ZN_1_FLR_1:MULT_CLASS_1_POD_1_ZN_1_FLR_1_WALL_1_WINDOW3
  0
3DFACE
  8
MULT_CLASS_1_POD_1_ZN_1_FLR_1
 62
143
 10
      -16.87032
 20
        0.00000
 30
        2.50266
 11
      -16.87032
 21
        0.00000
 31
        1.03222
 12
       -0.05000
 22
        0.00000
 32
        1.03222
 13
       -0.05000
 23
        0.00000
 33
        2.50266
999
MULT_CLASS_1_POD_1_ZN_1_FLR_1:MULT_CLASS_1_POD_1_ZN_1_FLR_1_WALL_1_DOOR1
  0
3DFACE
  8
MULT_CLASS_1_POD_1_ZN_1_FLR_1
 62
 45
 10
      -35.93760
 20
        0.00000
 30
        2.13360
 11
      -35.93760
 21
        0.00000
 31
        0.00000
 12
      -35.02320
 22
        0.00000
 32
        0.00000
 13
      -35.02320
 23
        0.00000
 33
        2.13360
999
MULT_CLASS_1_POD_1_ZN_1_FLR_1:MULT_CLASS_1_POD_1_ZN_1_FLR_1_WALL_1_DOOR2
  0
3DFACE
  8
MULT_CLASS_1_POD_1_ZN_1_FLR_1
 62
 45
 10
      -17.88099
 20
        0.00000
 30
        2.13360
 11
      -17.88099
 21
        0.00000
 31
        0.00000
 12
      -16.96659
 22
        0.00000
 32
        0.00000
 13
      -16.96659
 23
        0.00000
 33
        2.13360
999
MULT_CLASS_1_POD_1_ZN_1_FLR_1:MULT_CLASS_1_POD_1_ZN_1_FLR_1_WALL_2
  0
3DFACE
  8
MULT_CLASS_1_POD_1_ZN_1_FLR_1
 62
 43
 10
        0.00000
 20
        0.00000
 30
        4.00000
 11
        0.00000
 21
        0.00000
 31
        0.00000
 12
        0.00000
 22
        9.00000
 32
        0.00000
 13
        0.00000
 23
        9.00000
 33
        4.00000
999
MULT_CLASS_1_POD_1_ZN_1_FLR_1:MULT_CLASS_1_POD_1_ZN_1_FLR_1_WALL_3
  0
3DFACE
  8
MULT_CLASS_1_POD_1_ZN_1_FLR_1
 62
 43
 10
        0.00000
 20
        9.00000
 30
        4.00000
 11
        0.00000
 21
        9.00000
 31
        0.00000
 12
      -53.00000
 22
        9.00000
 32
        0.00000
 13
      -53.00000
 23
        9.00000
 33
        4.00000
999
MULT_CLASS_1_POD_1_ZN_1_FLR_1:MULT_CLASS_1_POD_1_ZN_1_FLR_1_WALL_4
  0
3DFACE
  8
MULT_CLASS_1_POD_1_ZN_1_FLR_1
 62
 43
 10
      -53.00000
 20
        9.00000
 30
        4.00000
 11
      -53.00000
 21
        9.00000
 31
        0.00000
 12
      -53.00000
 22
        0.00000
 32
        0.00000
 13
      -53.00000
 23
        0.00000
 33
        4.00000
999
MULT_CLASS_1_POD_1_ZN_1_FLR_1:MULT_CLASS_1_POD_1_ZN_1_FLR_1_FLOOR
  0
3DFACE
  8
MULT_CLASS_1_POD_1_ZN_1_FLR_1
 62
  8
 10
      -53.00000
 20
        9.00000
 30
        0.00000
 11
        0.00000
 21
        9.00000
 31
        0.00000
 12
        0.00000
 22
        0.00000
 32
        0.00000
 13
      -53.00000
 23
        0.00000
 33
        0.00000
999
MULT_CLASS_1_POD_1_ZN_1_FLR_1:MULT_CLASS_1_POD_1_ZN_1_FLR_1_CEILING
  0
3DFACE
  8
MULT_CLASS_1_POD_1_ZN_1_FLR_1
 62
 15
 10
      -53.00000
 20
        0.00000
 30
        4.00000
 11
        0.00000
 21
        0.00000
 31
        4.00000
 12
        0.00000
 22
        9.00000
 32
        4.00000
 13
      -53.00000
 23
        9.00000
 33
        4.00000
999
CORRIDOR_POD_1_ZN_1_FLR_1:CORRIDOR_POD_1_ZN_1_FLR_1_WALL_1
  0
3DFACE
  8
CORRIDOR_POD_1_ZN_1_FLR_1
 62
 43
 10
      -64.00000
 20
        9.00000
 30
        4.00000
 11
      -64.00000
 21
        9.00000
 31
        0.00000
 12
      -53.00000
 22
        9.00000
 32
        0.00000
 13
      -53.00000
 23
        9.00000
 33
        4.00000
999
CORRIDOR_POD_1_ZN_1_FLR_1:CORRIDOR_POD_1_ZN_1_FLR_1_WALL_2
  0
3DFACE
  8
CORRIDOR_POD_1_ZN_1_FLR_1
 62
 43
 10
      -53.00000
 20
        9.00000
 30
        4.00000
 11
      -53.00000
 21
        9.00000
 31
        0.00000
 12
        0.00000
 22
        9.00000
 32
        0.00000
 13
        0.00000
 23
        9.00000
 33
        4.00000
999
CORRIDOR_POD_1_ZN_1_FLR_1:CORRIDOR_POD_1_ZN_1_FLR_1_WALL_3
  0
3DFACE
  8
CORRIDOR_POD_1_ZN_1_FLR_1
 62
 43
 10
        0.00000
 20
        9.00000
 30
        4.00000
 11
        0.00000
 21
        9.00000
 31
        0.00000
 12
        0.00000
 22
       12.00000
 32
        0.00000
 13
        0.00000
 23
       12.00000
 33
        4.00000
999
CORRIDOR_POD_1_ZN_1_FLR_1:CORRIDOR_POD_1_ZN_1_FLR_1_WALL_4
  0
3DFACE
  8
CORRIDOR_POD_1_ZN_1_FLR_1
 62
 43
 10
        0.00000
 20
       12.00000
 30
        4.00000
 11
        0.00000
 21
       12.00000
 31
        0.00000
 12
      -53.00000
 22
       12.00000
 32
        0.00000
 13
      -53.00000
 23
       12.00000
 33
        4.00000
999
CORRIDOR_POD_1_ZN_1_FLR_1:CORRIDOR_POD_1_ZN_1_FLR_1_WALL_5
  0
3DFACE
  8
CORRIDOR_POD_1_ZN_1_FLR_1
 62
 43
 10
      -53.00000
 20
       12.00000
 30
        4.00000
 11
      -53.00000
 21
       12.00000
 31
        0.00000
 12
      -64.00000
 22
       12.00000
 32
        0.00000
 13
      -64.00000
 23
       12.00000
 33
        4.00000
999
CORRIDOR_POD_1_ZN_1_FLR_1:CORRIDOR_POD_1_ZN_1_FLR_1_WALL_6
  0
3DFACE
  8
CORRIDOR_POD_1_ZN_1_FLR_1
 62
 43
 10
      -64.00000
 20
       12.00000
 30
        4.00000
 11
      -64.00000
 21
       12.00000
 31
        0.00000
 12
      -64.00000
 22
        9.00000
 32
        0.00000
 13
      -64.00000
 23
        9.00000
 33
        4.00000
999
CORRIDOR_POD_1_ZN_1_FLR_1:CORRIDOR_POD_1_ZN_1_FLR_1_WALL_6_WINDOW_1
  0
3DFACE
  8
CORRIDOR_POD_1_ZN_1_FLR_1
 62
143
 10
      -64.00000
 20
       11.95000
 30
        2.54826
 11
      -64.00000
 21
       11.95000
 31
        1.10000
 12
      -64.00000
 22
        9.05000
 32
        1.10000
 13
      -64.00000
 23
        9.05000
 33
        2.54826
999
CORRIDOR_POD_1_ZN_1_FLR_1:CORRIDOR_POD_1_ZN_1_FLR_1_FLOOR
  0
3DFACE
  8
CORRIDOR_POD_1_ZN_1_FLR_1
 62
  8
 10
      -64.00000
 20
       12.00000
 30
        0.00000
 11
        0.00000
 21
       12.00000
 31
        0.00000
 12
        0.00000
 22
        9.00000
 32
        0.00000
 13
      -64.00000
 23
        9.00000
 33
        0.00000
999
CORRIDOR_POD_1_ZN_1_FLR_1:CORRIDOR_POD_1_ZN_1_FLR_1_CEILING
  0
3DFACE
  8
CORRIDOR_POD_1_ZN_1_FLR_1
 62
 15
 10
      -64.00000
 20
        9.00000
 30
        4.00000
 11
        0.00000
 21
        9.00000
 31
        4.00000
 12
        0.00000
 22
       12.00000
 32
        4.00000
 13
      -64.00000
 23
       12.00000
 33
        4.00000
999
CORNER_CLASS_2_POD_1_ZN_1_FLR_1:CORNER_CLASS_2_POD_1_ZN_1_FLR_1_WALL_1
  0
3DFACE
  8
CORNER_CLASS_2_POD_1_ZN_1_FLR_1
 62
 43
 10
      -64.00000
 20
       12.00000
 30
        4.00000
 11
      -64.00000
 21
       12.00000
 31
        0.00000
 12
      -53.00000
 22
       12.00000
 32
        0.00000
 13
      -53.00000
 23
       12.00000
 33
        4.00000
999
CORNER_CLASS_2_POD_1_ZN_1_FLR_1:CORNER_CLASS_2_POD_1_ZN_1_FLR_1_WALL_2
  0
3DFACE
  8
CORNER_CLASS_2_POD_1_ZN_1_FLR_1
 62
 43
 10
      -53.00000
 20
       12.00000
 30
        4.00000
 11
      -53.00000
 21
       12.00000
 31
        0.00000
 12
      -53.00000
 22
       21.00000
 32
        0.00000
 13
      -53.00000
 23
       21.00000
 33
        4.00000
999
CORNER_CLASS_2_POD_1_ZN_1_FLR_1:CORNER_CLASS_2_POD_1_ZN_1_FLR_1_WALL_3
  0
3DFACE
  8
CORNER_CLASS_2_POD_1_ZN_1_FLR_1
 62
 43
 10
      -53.00000
 20
       21.00000
 30
        4.00000
 11
      -53.00000
 21
       21.00000
 31
        0.00000
 12
      -64.00000
 22
       21.00000
 32
        0.00000
 13
      -64.00000
 23
       21.00000
 33
        4.00000
999
CORNER_CLASS_2_POD_1_ZN_1_FLR_1:CORNER_CLASS_2_POD_1_ZN_1_FLR_1_WALL_3_WINDOW1
  0
3DFACE
  8
CORNER_CLASS_2_POD_1_ZN_1_FLR_1
 62
143
 10
      -53.05000
 20
       21.00000
 30
        2.51284
 11
      -53.05000
 21
       21.00000
 31
        0.92207
 12
      -54.26920
 22
       21.00000
 32
        0.92207
 13
      -54.26920
 23
       21.00000
 33
        2.51284
999
CORNER_CLASS_2_POD_1_ZN_1_FLR_1:CORNER_CLASS_2_POD_1_ZN_1_FLR_1_WALL_3_WINDOW2
  0
3DFACE
  8
CORNER_CLASS_2_POD_1_ZN_1_FLR_1
 62
143
 10
      -55.48840
 20
       21.00000
 30
        2.51284
 11
      -55.48840
 21
       21.00000
 31
        0.92207
 12
      -63.95000
 22
       21.00000
 32
        0.92207
 13
      -63.95000
 23
       21.00000
 33
        2.51284
999
CORNER_CLASS_2_POD_1_ZN_1_FLR_1:CORNER_CLASS_2_POD_1_ZN_1_FLR_1_WALL_3_DOOR1
  0
3DFACE
  8
CORNER_CLASS_2_POD_1_ZN_1_FLR_1
 62
 45
 10
      -54.43013
 20
       21.00000
 30
        2.13360
 11
      -54.43013
 21
       21.00000
 31
        0.00000
 12
      -55.34453
 22
       21.00000
 32
        0.00000
 13
      -55.34453
 23
       21.00000
 33
        2.13360
999
CORNER_CLASS_2_POD_1_ZN_1_FLR_1:CORNER_CLASS_2_POD_1_ZN_1_FLR_1_WALL_4
  0
3DFACE
  8
CORNER_CLASS_2_POD_1_ZN_1_FLR_1
 62
 43
 10
      -64.00000
 20
       21.00000
 30
        4.00000
 11
      -64.00000
 21
       21.00000
 31
        0.00000
 12
      -64.00000
 22
       12.00000
 32
        0.00000
 13
      -64.00000
 23
       12.00000
 33
        4.00000
999
CORNER_CLASS_2_POD_1_ZN_1_FLR_1:CORNER_CLASS_2_POD_1_ZN_1_FLR_1_WALL_4_WINDOW_1
  0
3DFACE
  8
CORNER_CLASS_2_POD_1_ZN_1_FLR_1
 62
143
 10
      -64.00000
 20
       20.95000
 30
        2.51572
 11
      -64.00000
 21
       20.95000
 31
        1.10000
 12
      -64.00000
 22
       12.05000
 32
        1.10000
 13
      -64.00000
 23
       12.05000
 33
        2.51572
999
CORNER_CLASS_2_POD_1_ZN_1_FLR_1:CORNER_CLASS_2_POD_1_ZN_1_FLR_1_FLOOR
  0
3DFACE
  8
CORNER_CLASS_2_POD_1_ZN_1_FLR_1
 62
  8
 10
      -64.00000
 20
       21.00000
 30
        0.00000
 11
      -53.00000
 21
       21.00000
 31
        0.00000
 12
      -53.00000
 22
       12.00000
 32
        0.00000
 13
      -64.00000
 23
       12.00000
 33
        0.00000
999
CORNER_CLASS_2_POD_1_ZN_1_FLR_1:CORNER_CLASS_2_POD_1_ZN_1_FLR_1_CEILING
  0
3DFACE
  8
CORNER_CLASS_2_POD_1_ZN_1_FLR_1
 62
 15
 10
      -64.00000
 20
       12.00000
 30
        4.00000
 11
      -53.00000
 21
       12.00000
 31
        4.00000
 12
      -53.00000
 22
       21.00000
 32
        4.00000
 13
      -64.00000
 23
       21.00000
 33
        4.00000
999
MULT_CLASS_2_POD_1_ZN_1_FLR_1:MULT_CLASS_2_POD_1_ZN_1_FLR_1_WALL_1
  0
3DFACE
  8
MULT_CLASS_2_POD_1_ZN_1_FLR_1
 62
 43
 10
      -53.00000
 20
       12.00000
 30
        4.00000
 11
      -53.00000
 21
       12.00000
 31
        0.00000
 12
        0.00000
 22
       12.00000
 32
        0.00000
 13
        0.00000
 23
       12.00000
 33
        4.00000
999
MULT_CLASS_2_POD_1_ZN_1_FLR_1:MULT_CLASS_2_POD_1_ZN_1_FLR_1_WALL_2
  0
3DFACE
  8
MULT_CLASS_2_POD_1_ZN_1_FLR_1
 62
 43
 10
        0.00000
 20
       12.00000
 30
        4.00000
 11
        0.00000
 21
       12.00000
 31
        0.00000
 12
        0.00000
 22
       21.00000
 32
        0.00000
 13
        0.00000
 23
       21.00000
 33
        4.00000
999
MULT_CLASS_2_POD_1_ZN_1_FLR_1:MULT_CLASS_2_POD_1_ZN_1_FLR_1_WALL_3
  0
3DFACE
  8
MULT_CLASS_2_POD_1_ZN_1_FLR_1
 62
 43
 10
        0.00000
 20
       21.00000
 30
        4.00000
 11
        0.00000
 21
       21.00000
 31
        0.00000
 12
      -53.00000
 22
       21.00000
 32
        0.00000
 13
      -53.00000
 23
       21.00000
 33
        4.00000
999
MULT_CLASS_2_POD_1_ZN_1_FLR_1:MULT_CLASS_2_POD_1_ZN_1_FLR_1_WALL_3_WINDOW1
  0
3DFACE
  8
MULT_CLASS_2_POD_1_ZN_1_FLR_1
 62
143
 10
       -0.05000
 20
       21.00000
 30
        2.50266
 11
       -0.05000
 21
       21.00000
 31
        1.03222
 12
      -16.87064
 22
       21.00000
 32
        1.03222
 13
      -16.87064
 23
       21.00000
 33
        2.50266
999
MULT_CLASS_2_POD_1_ZN_1_FLR_1:MULT_CLASS_2_POD_1_ZN_1_FLR_1_WALL_3_WINDOW2
  0
3DFACE
  8
MULT_CLASS_2_POD_1_ZN_1_FLR_1
 62
143
 10
      -18.08984
 20
       21.00000
 30
        2.50266
 11
      -18.08984
 21
       21.00000
 31
        1.03222
 12
      -34.91048
 22
       21.00000
 32
        1.03222
 13
      -34.91048
 23
       21.00000
 33
        2.50266
999
MULT_CLASS_2_POD_1_ZN_1_FLR_1:MULT_CLASS_2_POD_1_ZN_1_FLR_1_WALL_3_WINDOW3
  0
3DFACE
  8
MULT_CLASS_2_POD_1_ZN_1_FLR_1
 62
143
 10
      -36.12968
 20
       21.00000
 30
        2.50266
 11
      -36.12968
 21
       21.00000
 31
        1.03222
 12
      -52.95000
 22
       21.00000
 32
        1.03222
 13
      -52.95000
 23
       21.00000
 33
        2.50266
999
MULT_CLASS_2_POD_1_ZN_1_FLR_1:MULT_CLASS_2_POD_1_ZN_1_FLR_1_WALL_3_DOOR1
  0
3DFACE
  8
MULT_CLASS_2_POD_1_ZN_1_FLR_1
 62
 45
 10
      -16.97680
 20
       21.00000
 30
        2.13360
 11
      -16.97680
 21
       21.00000
 31
        0.00000
 12
      -17.89120
 22
       21.00000
 32
        0.00000
 13
      -17.89120
 23
       21.00000
 33
        2.13360
999
MULT_CLASS_2_POD_1_ZN_1_FLR_1:MULT_CLASS_2_POD_1_ZN_1_FLR_1_WALL_3_DOOR2
  0
3DFACE
  8
MULT_CLASS_2_POD_1_ZN_1_FLR_1
 62
 45
 10
      -35.09408
 20
       21.00000
 30
        2.13360
 11
      -35.09408
 21
       21.00000
 31
        0.00000
 12
      -36.00848
 22
       21.00000
 32
        0.00000
 13
      -36.00848
 23
       21.00000
 33
        2.13360
999
MULT_CLASS_2_POD_1_ZN_1_FLR_1:MULT_CLASS_2_POD_1_ZN_1_FLR_1_WALL_4
  0
3DFACE
  8
MULT_CLASS_2_POD_1_ZN_1_FLR_1
 62
 43
 10
      -53.00000
 20
       21.00000
 30
        4.00000
 11
      -53.00000
 21
       21.00000
 31
        0.00000
 12
      -53.00000
 22
       12.00000
 32
        0.00000
 13
      -53.00000
 23
       12.00000
 33
        4.00000
999
MULT_CLASS_2_POD_1_ZN_1_FLR_1:MULT_CLASS_2_POD_1_ZN_1_FLR_1_FLOOR
  0
3DFACE
  8
MULT_CLASS_2_POD_1_ZN_1_FLR_1
 62
  8
 10
      -53.00000
 20
       21.00000
 30
        0.00000
 11
        0.00000
 21
       21.00000
 31
        0.00000
 12
        0.00000
 22
       12.00000
 32
        0.00000
 13
      -53.00000
 23
       12.00000
 33
        0.00000
999
MULT_CLASS_2_POD_1_ZN_1_FLR_1:MULT_CLASS_2_POD_1_ZN_1_FLR_1_CEILING
  0
3DFACE
  8
MULT_CLASS_2_POD_1_ZN_1_FLR_1
 62
 15
 10
      -53.00000
 20
       12.00000
 30
        4.00000
 11
        0.00000
 21
       12.00000
 31
        4.00000
 12
        0.00000
 22
       21.00000
 32
        4.00000
 13
      -53.00000
 23
       21.00000
 33
        4.00000
999
CORNER_CLASS_1_POD_2_ZN_1_FLR_1:CORNER_CLASS_1_POD_2_ZN_1_FLR_1_WALL_1
  0
3DFACE
  8
CORNER_CLASS_1_POD_2_ZN_1_FLR_1
 62
 43
 10
      -64.00000
 20
       30.00000
 30
        4.00000
 11
      -64.00000
 21
       30.00000
 31
        0.00000
 12
      -53.00000
 22
       30.00000
 32
        0.00000
 13
      -53.00000
 23
       30.00000
 33
        4.00000
999
CORNER_CLASS_1_POD_2_ZN_1_FLR_1:CORNER_CLASS_1_POD_2_ZN_1_FLR_1_WALL_1_WINDOW1
  0
3DFACE
  8
CORNER_CLASS_1_POD_2_ZN_1_FLR_1
 62
143
 10
      -63.95000
 20
       30.00000
 30
        2.51284
 11
      -63.95000
 21
       30.00000
 31
        0.92207
 12
      -62.73080
 22
       30.00000
 32
        0.92207
 13
      -62.73080
 23
       30.00000
 33
        2.51284
999
CORNER_CLASS_1_POD_2_ZN_1_FLR_1:CORNER_CLASS_1_POD_2_ZN_1_FLR_1_WALL_1_WINDOW2
  0
3DFACE
  8
CORNER_CLASS_1_POD_2_ZN_1_FLR_1
 62
143
 10
      -61.51160
 20
       30.00000
 30
        2.51284
 11
      -61.51160
 21
       30.00000
 31
        0.92207
 12
      -53.05000
 22
       30.00000
 32
        0.92207
 13
      -53.05000
 23
       30.00000
 33
        2.51284
999
CORNER_CLASS_1_POD_2_ZN_1_FLR_1:CORNER_CLASS_1_POD_2_ZN_1_FLR_1_WALL_1_DOOR
  0
3DFACE
  8
CORNER_CLASS_1_POD_2_ZN_1_FLR_1
 62
 45
 10
      -62.53242
 20
       30.00000
 30
        2.13360
 11
      -62.53242
 21
       30.00000
 31
        0.00000
 12
      -61.61802
 22
       30.00000
 32
        0.00000
 13
      -61.61802
 23
       30.00000
 33
        2.13360
999
CORNER_CLASS_1_POD_2_ZN_1_FLR_1:CORNER_CLASS_1_POD_2_ZN_1_FLR_1_WALL_2
  0
3DFACE
  8
CORNER_CLASS_1_POD_2_ZN_1_FLR_1
 62
 43
 10
      -53.00000
 20
       30.00000
 30
        4.00000
 11
      -53.00000
 21
       30.00000
 31
        0.00000
 12
      -53.00000
 22
       39.00000
 32
        0.00000
 13
      -53.00000
 23
       39.00000
 33
        4.00000
999
CORNER_CLASS_1_POD_2_ZN_1_FLR_1:CORNER_CLASS_1_POD_2_ZN_1_FLR_1_WALL_3
  0
3DFACE
  8
CORNER_CLASS_1_POD_2_ZN_1_FLR_1
 62
 43
 10
      -53.00000
 20
       39.00000
 30
        4.00000
 11
      -53.00000
 21
       39.00000
 31
        0.00000
 12
      -64.00000
 22
       39.00000
 32
        0.00000
 13
      -64.00000
 23
       39.00000
 33
        4.00000
999
CORNER_CLASS_1_POD_2_ZN_1_FLR_1:CORNER_CLASS_1_POD_2_ZN_1_FLR_1_WALL_4
  0
3DFACE
  8
CORNER_CLASS_1_POD_2_ZN_1_FLR_1
 62
 43
 10
      -64.00000
 20
       39.00000
 30
        4.00000
 11
      -64.00000
 21
       39.00000
 31
        0.00000
 12
      -64.00000
 22
       30.00000
 32
        0.00000
 13
      -64.00000
 23
       30.00000
 33
        4.00000
999
CORNER_CLASS_1_POD_2_ZN_1_FLR_1:CORNER_CLASS_1_POD_2_ZN_1_FLR_1_WALL_4_WINDOW_1
  0
3DFACE
  8
CORNER_CLASS_1_POD_2_ZN_1_FLR_1
 62
143
 10
      -64.00000
 20
       38.95000
 30
        2.51572
 11
      -64.00000
 21
       38.95000
 31
        1.10000
 12
      -64.00000
 22
       30.05000
 32
        1.10000
 13
      -64.00000
 23
       30.05000
 33
        2.51572
999
CORNER_CLASS_1_POD_2_ZN_1_FLR_1:CORNER_CLASS_1_POD_2_ZN_1_FLR_1_FLOOR
  0
3DFACE
  8
CORNER_CLASS_1_POD_2_ZN_1_FLR_1
 62
  8
 10
      -64.00000
 20
       39.00000
 30
        0.00000
 11
      -53.00000
 21
       39.00000
 31
        0.00000
 12
      -53.00000
 22
       30.00000
 32
        0.00000
 13
      -64.00000
 23
       30.00000
 33
        0.00000
999
CORNER_CLASS_1_POD_2_ZN_1_FLR_1:CORNER_CLASS_1_POD_2_ZN_1_FLR_1_CEILING
  0
3DFACE
  8
CORNER_CLASS_1_POD_2_ZN_1_FLR_1
 62
 15
 10
      -64.00000
 20
       30.00000
 30
        4.00000
 11
      -53.00000
 21
       30.00000
 31
        4.00000
 12
      -53.00000
 22
       39.00000
 32
        4.00000
 13
      -64.00000
 23
       39.00000
 33
        4.00000
999
MULT_CLASS_1_POD_2_ZN_1_FLR_1:MULT_CLASS_1_POD_2_ZN_1_FLR_1_WALL_1
  0
3DFACE
  8
MULT_CLASS_1_POD_2_ZN_1_FLR_1
 62
 43
 10
      -53.00000
 20
       30.00000
 30
        4.00000
 11
      -53.00000
 21
       30.00000
 31
        0.00000
 12
        0.00000
 22
       30.00000
 32
        0.00000
 13
        0.00000
 23
       30.00000
 33
        4.00000
999
MULT_CLASS_1_POD_2_ZN_1_FLR_1:MULT_CLASS_1_POD_2_ZN_1_FLR_1_WALL_1_WINDOW1
  0
3DFACE
  8
MULT_CLASS_1_POD_2_ZN_1_FLR_1
 62
143
 10
      -52.95000
 20
       30.00000
 30
        2.50266
 11
      -52.95000
 21
       30.00000
 31
        1.03222
 12
      -36.12936
 22
       30.00000
 32
        1.03222
 13
      -36.12936
 23
       30.00000
 33
        2.50266
999
MULT_CLASS_1_POD_2_ZN_1_FLR_1:MULT_CLASS_1_POD_2_ZN_1_FLR_1_WALL_1_WINDOW2
  0
3DFACE
  8
MULT_CLASS_1_POD_2_ZN_1_FLR_1
 62
143
 10
      -34.91016
 20
       30.00000
 30
        2.50266
 11
      -34.91016
 21
       30.00000
 31
        1.03222
 12
      -18.08952
 22
       30.00000
 32
        1.03222
 13
      -18.08952
 23
       30.00000
 33
        2.50266
999
MULT_CLASS_1_POD_2_ZN_1_FLR_1:MULT_CLASS_1_POD_2_ZN_1_FLR_1_WALL_1_WINDOW3
  0
3DFACE
  8
MULT_CLASS_1_POD_2_ZN_1_FLR_1
 62
143
 10
      -16.87032
 20
       30.00000
 30
        2.50266
 11
      -16.87032
 21
       30.00000
 31
        1.03222
 12
       -0.05000
 22
       30.00000
 32
        1.03222
 13
       -0.05000
 23
       30.00000
 33
        2.50266
999
MULT_CLASS_1_POD_2_ZN_1_FLR_1:MULT_CLASS_1_POD_2_ZN_1_FLR_1_WALL_1_DOOR1
  0
3DFACE
  8
MULT_CLASS_1_POD_2_ZN_1_FLR_1
 62
 45
 10
      -35.94437
 20
       30.00000
 30
        2.13360
 11
      -35.94437
 21
       30.00000
 31
        0.00000
 12
      -35.02997
 22
       30.00000
 32
        0.00000
 13
      -35.02997
 23
       30.00000
 33
        2.13360
999
MULT_CLASS_1_POD_2_ZN_1_FLR_1:MULT_CLASS_1_POD_2_ZN_1_FLR_1_WALL_1_DOOR2
  0
3DFACE
  8
MULT_CLASS_1_POD_2_ZN_1_FLR_1
 62
 45
 10
      -17.89472
 20
       30.00000
 30
        2.13360
 11
      -17.89472
 21
       30.00000
 31
        0.00000
 12
      -16.98032
 22
       30.00000
 32
        0.00000
 13
      -16.98032
 23
       30.00000
 33
        2.13360
999
MULT_CLASS_1_POD_2_ZN_1_FLR_1:MULT_CLASS_1_POD_2_ZN_1_FLR_1_WALL_2
  0
3DFACE
  8
MULT_CLASS_1_POD_2_ZN_1_FLR_1
 62
 43
 10
        0.00000
 20
       30.00000
 30
        4.00000
 11
        0.00000
 21
       30.00000
 31
        0.00000
 12
        0.00000
 22
       39.00000
 32
        0.00000
 13
        0.00000
 23
       39.00000
 33
        4.00000
999
MULT_CLASS_1_POD_2_ZN_1_FLR_1:MULT_CLASS_1_POD_2_ZN_1_FLR_1_WALL_3
  0
3DFACE
  8
MULT_CLASS_1_POD_2_ZN_1_FLR_1
 62
 43
 10
        0.00000
 20
       39.00000
 30
        4.00000
 11
        0.00000
 21
       39.00000
 31
        0.00000
 12
      -53.00000
 22
       39.00000
 32
        0.00000
 13
      -53.00000
 23
       39.00000
 33
        4.00000
999
MULT_CLASS_1_POD_2_ZN_1_FLR_1:MULT_CLASS_1_POD_2_ZN_1_FLR_1_WALL_4
  0
3DFACE
  8
MULT_CLASS_1_POD_2_ZN_1_FLR_1
 62
 43
 10
      -53.00000
 20
       39.00000
 30
        4.00000
 11
      -53.00000
 21
       39.00000
 31
        0.00000
 12
      -53.00000
 22
       30.00000
 32
        0.00000
 13
      -53.00000
 23
       30.00000
 33
        4.00000
999
MULT_CLASS_1_POD_2_ZN_1_FLR_1:MULT_CLASS_1_POD_2_ZN_1_FLR_1_FLOOR
  0
3DFACE
  8
MULT_CLASS_1_POD_2_ZN_1_FLR_1
 62
  8
 10
      -53.00000
 20
       39.00000
 30
        0.00000
 11
        0.00000
 21
       39.00000
 31
        0.00000
 12
        0.00000
 22
       30.00000
 32
        0.00000
 13
      -53.00000
 23
       30.00000
 33
        0.00000
999
MULT_CLASS_1_POD_2_ZN_1_FLR_1:MULT_CLASS_1_POD_2_ZN_1_FLR_1_CEILING
  0
3DFACE
  8
MULT_CLASS_1_POD_2_ZN_1_FLR_1
 62
 15
 10
      -53.00000
 20
       30.00000
 30
        4.00000
 11
        0.00000
 21
       30.00000
 31
        4.00000
 12
        0.00000
 22
       39.00000
 32
        4.00000
 13
      -53.00000
 23
       39.00000
 33
        4.00000
999
CORRIDOR_POD_2_ZN_1_FLR_1:CORRIDOR_POD_2_ZN_1_FLR_1_WALL_1
  0
3DFACE
  8
CORRIDOR_POD_2_ZN_1_FLR_1
 62
 43
 10
      -64.00000
 20
       39.00000
 30
        4.00000
 11
      -64.00000
 21
       39.00000
 31
        0.00000
 12
      -53.00000
 22
       39.00000
 32
        0.00000
 13
      -53.00000
 23
       39.00000
 33
        4.00000
999
CORRIDOR_POD_2_ZN_1_FLR_1:CORRIDOR_POD_2_ZN_1_FLR_1_WALL_2
  0
3DFACE
  8
CORRIDOR_POD_2_ZN_1_FLR_1
 62
 43
 10
      -53.00000
 20
       39.00000
 30
        4.00000
 11
      -53.00000
 21
       39.00000
 31
        0.00000
 12
        0.00000
 22
       39.00000
 32
        0.00000
 13
        0.00000
 23
       39.00000
 33
        4.00000
999
CORRIDOR_POD_2_ZN_1_FLR_1:CORRIDOR_POD_2_ZN_1_FLR_1_WALL_3
  0
3DFACE
  8
CORRIDOR_POD_2_ZN_1_FLR_1
 62
 43
 10
        0.00000
 20
       39.00000
 30
        4.00000
 11
        0.00000
 21
       39.00000
 31
        0.00000
 12
        0.00000
 22
       42.00000
 32
        0.00000
 13
        0.00000
 23
       42.00000
 33
        4.00000
999
CORRIDOR_POD_2_ZN_1_FLR_1:CORRIDOR_POD_2_ZN_1_FLR_1_WALL_4
  0
3DFACE
  8
CORRIDOR_POD_2_ZN_1_FLR_1
 62
 43
 10
        0.00000
 20
       42.00000
 30
        4.00000
 11
        0.00000
 21
       42.00000
 31
        0.00000
 12
      -53.00000
 22
       42.00000
 32
        0.00000
 13
      -53.00000
 23
       42.00000
 33
        4.00000
999
CORRIDOR_POD_2_ZN_1_FLR_1:CORRIDOR_POD_2_ZN_1_FLR_1_WALL_5
  0
3DFACE
  8
CORRIDOR_POD_2_ZN_1_FLR_1
 62
 43
 10
      -53.00000
 20
       42.00000
 30
        4.00000
 11
      -53.00000
 21
       42.00000
 31
        0.00000
 12
      -64.00000
 22
       42.00000
 32
        0.00000
 13
      -64.00000
 23
       42.00000
 33
        4.00000
999
CORRIDOR_POD_2_ZN_1_FLR_1:CORRIDOR_POD_2_ZN_1_FLR_1_WALL_6
  0
3DFACE
  8
CORRIDOR_POD_2_ZN_1_FLR_1
 62
 43
 10
      -64.00000
 20
       42.00000
 30
        4.00000
 11
      -64.00000
 21
       42.00000
 31
        0.00000
 12
      -64.00000
 22
       39.00000
 32
        0.00000
 13
      -64.00000
 23
       39.00000
 33
        4.00000
999
CORRIDOR_POD_2_ZN_1_FLR_1:CORRIDOR_POD_2_ZN_1_FLR_1_WALL_6_WINDOW_1
  0
3DFACE
  8
CORRIDOR_POD_2_ZN_1_FLR_1
 62
143
 10
      -64.00000
 20
       41.95000
 30
        2.54826
 11
      -64.00000
 21
       41.95000
 31
        1.10000
 12
      -64.00000
 22
       39.05000
 32
        1.10000
 13
      -64.00000
 23
       39.05000
 33
        2.54826
999
CORRIDOR_POD_2_ZN_1_FLR_1:CORRIDOR_POD_2_ZN_1_FLR_1_FLOOR
  0
3DFACE
  8
CORRIDOR_POD_2_ZN_1_FLR_1
 62
  8
 10
      -64.00000
 20
       42.00000
 30
        0.00000
 11
        0.00000
 21
       42.00000
 31
        0.00000
 12
        0.00000
 22
       39.00000
 32
        0.00000
 13
      -64.00000
 23
       39.00000
 33
        0.00000
999
CORRIDOR_POD_2_ZN_1_FLR_1:CORRIDOR_POD_2_ZN_1_FLR_1_CEILING
  0
3DFACE
  8
CORRIDOR_POD_2_ZN_1_FLR_1
 62
 15
 10
      -64.00000
 20
       39.00000
 30
        4.00000
 11
        0.00000
 21
       39.00000
 31
        4.00000
 12
        0.00000
 22
       42.00000
 32
        4.00000
 13
      -64.00000
 23
       42.00000
 33
        4.00000
999
CORNER_CLASS_2_POD_2_ZN_1_FLR_1:CORNER_CLASS_2_POD_2_ZN_1_FLR_1_WALL_1
  0
3DFACE
  8
CORNER_CLASS_2_POD_2_ZN_1_FLR_1
 62
 43
 10
      -64.00000
 20
       42.00000
 30
        4.00000
 11
      -64.00000
 21
       42.00000
 31
        0.00000
 12
      -53.00000
 22
       42.00000
 32
        0.00000
 13
      -53.00000
 23
       42.00000
 33
        4.00000
999
CORNER_CLASS_2_POD_2_ZN_1_FLR_1:CORNER_CLASS_2_POD_2_ZN_1_FLR_1_WALL_2
  0
3DFACE
  8
CORNER_CLASS_2_POD_2_ZN_1_FLR_1
 62
 43
 10
      -53.00000
 20
       42.00000
 30
        4.00000
 11
      -53.00000
 21
       42.00000
 31
        0.00000
 12
      -53.00000
 22
       51.00000
 32
        0.00000
 13
      -53.00000
 23
       51.00000
 33
        4.00000
999
CORNER_CLASS_2_POD_2_ZN_1_FLR_1:CORNER_CLASS_2_POD_2_ZN_1_FLR_1_WALL_3
  0
3DFACE
  8
CORNER_CLASS_2_POD_2_ZN_1_FLR_1
 62
 43
 10
      -53.00000
 20
       51.00000
 30
        4.00000
 11
      -53.00000
 21
       51.00000
 31
        0.00000
 12
      -64.00000
 22
       51.00000
 32
        0.00000
 13
      -64.00000
 23
       51.00000
 33
        4.00000
999
CORNER_CLASS_2_POD_2_ZN_1_FLR_1:CORNER_CLASS_2_POD_2_ZN_1_FLR_1_WALL_3_WINDOW1
  0
3DFACE
  8
CORNER_CLASS_2_POD_2_ZN_1_FLR_1
 62
143
 10
      -53.05000
 20
       51.00000
 30
        2.51284
 11
      -53.05000
 21
       51.00000
 31
        0.92207
 12
      -54.26920
 22
       51.00000
 32
        0.92207
 13
      -54.26920
 23
       51.00000
 33
        2.51284
999
CORNER_CLASS_2_POD_2_ZN_1_FLR_1:CORNER_CLASS_2_POD_2_ZN_1_FLR_1_WALL_3_WINDOW2
  0
3DFACE
  8
CORNER_CLASS_2_POD_2_ZN_1_FLR_1
 62
143
 10
      -55.48840
 20
       51.00000
 30
        2.51284
 11
      -55.48840
 21
       51.00000
 31
        0.92207
 12
      -63.95000
 22
       51.00000
 32
        0.92207
 13
      -63.95000
 23
       51.00000
 33
        2.51284
999
CORNER_CLASS_2_POD_2_ZN_1_FLR_1:CORNER_CLASS_2_POD_2_ZN_1_FLR_1_WALL_3_DOOR
  0
3DFACE
  8
CORNER_CLASS_2_POD_2_ZN_1_FLR_1
 62
 45
 10
      -54.44891
 20
       51.00000
 30
        2.13360
 11
      -54.44891
 21
       51.00000
 31
        0.00000
 12
      -55.36331
 22
       51.00000
 32
        0.00000
 13
      -55.36331
 23
       51.00000
 33
        2.13360
999
CORNER_CLASS_2_POD_2_ZN_1_FLR_1:CORNER_CLASS_2_POD_2_ZN_1_FLR_1_WALL_4
  0
3DFACE
  8
CORNER_CLASS_2_POD_2_ZN_1_FLR_1
 62
 43
 10
      -64.00000
 20
       51.00000
 30
        4.00000
 11
      -64.00000
 21
       51.00000
 31
        0.00000
 12
      -64.00000
 22
       42.00000
 32
        0.00000
 13
      -64.00000
 23
       42.00000
 33
        4.00000
999
CORNER_CLASS_2_POD_2_ZN_1_FLR_1:CORNER_CLASS_2_POD_2_ZN_1_FLR_1_WALL_4_WINDOW_1
  0
3DFACE
  8
CORNER_CLASS_2_POD_2_ZN_1_FLR_1
 62
143
 10
      -64.00000
 20
       50.95000
 30
        2.51572
 11
      -64.00000
 21
       50.95000
 31
        1.10000
 12
      -64.00000
 22
       42.05000
 32
        1.10000
 13
      -64.00000
 23
       42.05000
 33
        2.51572
999
CORNER_CLASS_2_POD_2_ZN_1_FLR_1:CORNER_CLASS_2_POD_2_ZN_1_FLR_1_FLOOR
  0
3DFACE
  8
CORNER_CLASS_2_POD_2_ZN_1_FLR_1
 62
  8
 10
      -64.00000
 20
       51.00000
 30
        0.00000
 11
      -53.00000
 21
       51.00000
 31
        0.00000
 12
      -53.00000
 22
       42.00000
 32
        0.00000
 13
      -64.00000
 23
       42.00000
 33
        0.00000
999
CORNER_CLASS_2_POD_2_ZN_1_FLR_1:CORNER_CLASS_2_POD_2_ZN_1_FLR_1_CEILING
  0
3DFACE
  8
CORNER_CLASS_2_POD_2_ZN_1_FLR_1
 62
 15
 10
      -64.00000
 20
       42.00000
 30
        4.00000
 11
      -53.00000
 21
       42.00000
 31
        4.00000
 12
      -53.00000
 22
       51.00000
 32
        4.00000
 13
      -64.00000
 23
       51.00000
 33
        4.00000
999
MULT_CLASS_2_POD_2_ZN_1_FLR_1:MULT_CLASS_2_POD_2_ZN_1_FLR_1_WALL_1
  0
3DFACE
  8
MULT_CLASS_2_POD_2_ZN_1_FLR_1
 62
 43
 10
      -53.00000
 20
       42.00000
 30
        4.00000
 11
      -53.00000
 21
       42.00000
 31
        0.00000
 12
        0.00000
 22
       42.00000
 32
        0.00000
 13
        0.00000
 23
       42.00000
 33
        4.00000
999
MULT_CLASS_2_POD_2_ZN_1_FLR_1:MULT_CLASS_2_POD_2_ZN_1_FLR_1_WALL_2
  0
3DFACE
  8
MULT_CLASS_2_POD_2_ZN_1_FLR_1
 62
 43
 10
        0.00000
 20
       42.00000
 30
        4.00000
 11
        0.00000
 21
       42.00000
 31
        0.00000
 12
        0.00000
 22
       51.00000
 32
        0.00000
 13
        0.00000
 23
       51.00000
 33
        4.00000
999
MULT_CLASS_2_POD_2_ZN_1_FLR_1:MULT_CLASS_2_POD_2_ZN_1_FLR_1_WALL_3
  0
3DFACE
  8
MULT_CLASS_2_POD_2_ZN_1_FLR_1
 62
 43
 10
        0.00000
 20
       51.00000
 30
        4.00000
 11
        0.00000
 21
       51.00000
 31
        0.00000
 12
      -53.00000
 22
       51.00000
 32
        0.00000
 13
      -53.00000
 23
       51.00000
 33
        4.00000
999
MULT_CLASS_2_POD_2_ZN_1_FLR_1:MULT_CLASS_2_POD_2_ZN_1_FLR_1_WALL_3_WINDOW1
  0
3DFACE
  8
MULT_CLASS_2_POD_2_ZN_1_FLR_1
 62
143
 10
       -0.05000
 20
       51.00000
 30
        2.50266
 11
       -0.05000
 21
       51.00000
 31
        1.03222
 12
      -16.87064
 22
       51.00000
 32
        1.03222
 13
      -16.87064
 23
       51.00000
 33
        2.50266
999
MULT_CLASS_2_POD_2_ZN_1_FLR_1:MULT_CLASS_2_POD_2_ZN_1_FLR_1_WALL_3_WINDOW2
  0
3DFACE
  8
MULT_CLASS_2_POD_2_ZN_1_FLR_1
 62
143
 10
      -18.08984
 20
       51.00000
 30
        2.50266
 11
      -18.08984
 21
       51.00000
 31
        1.03222
 12
      -34.91048
 22
       51.00000
 32
        1.03222
 13
      -34.91048
 23
       51.00000
 33
        2.50266
999
MULT_CLASS_2_POD_2_ZN_1_FLR_1:MULT_CLASS_2_POD_2_ZN_1_FLR_1_WALL_3_WINDOW3
  0
3DFACE
  8
MULT_CLASS_2_POD_2_ZN_1_FLR_1
 62
143
 10
      -36.12968
 20
       51.00000
 30
        2.50266
 11
      -36.12968
 21
       51.00000
 31
        1.03222
 12
      -52.95000
 22
       51.00000
 32
        1.03222
 13
      -52.95000
 23
       51.00000
 33
        2.50266
999
MULT_CLASS_2_POD_2_ZN_1_FLR_1:MULT_CLASS_2_POD_2_ZN_1_FLR_1_WALL_3_DOOR1
  0
3DFACE
  8
MULT_CLASS_2_POD_2_ZN_1_FLR_1
 62
 45
 10
      -17.04615
 20
       51.00000
 30
        2.13360
 11
      -17.04615
 21
       51.00000
 31
        0.00000
 12
      -17.96055
 22
       51.00000
 32
        0.00000
 13
      -17.96055
 23
       51.00000
 33
        2.13360
999
MULT_CLASS_2_POD_2_ZN_1_FLR_1:MULT_CLASS_2_POD_2_ZN_1_FLR_1_WALL_3_DOOR2
  0
3DFACE
  8
MULT_CLASS_2_POD_2_ZN_1_FLR_1
 62
 45
 10
      -35.10999
 20
       51.00000
 30
        2.13360
 11
      -35.10999
 21
       51.00000
 31
        0.00000
 12
      -36.02439
 22
       51.00000
 32
        0.00000
 13
      -36.02439
 23
       51.00000
 33
        2.13360
999
MULT_CLASS_2_POD_2_ZN_1_FLR_1:MULT_CLASS_2_POD_2_ZN_1_FLR_1_WALL_4
  0
3DFACE
  8
MULT_CLASS_2_POD_2_ZN_1_FLR_1
 62
 43
 10
      -53.00000
 20
       51.00000
 30
        4.00000
 11
      -53.00000
 21
       51.00000
 31
        0.00000
 12
      -53.00000
 22
       42.00000
 32
        0.00000
 13
      -53.00000
 23
       42.00000
 33
        4.00000
999
MULT_CLASS_2_POD_2_ZN_1_FLR_1:MULT_CLASS_2_POD_2_ZN_1_FLR_1_FLOOR
  0
3DFACE
  8
MULT_CLASS_2_POD_2_ZN_1_FLR_1
 62
  8
 10
      -53.00000
 20
       51.00000
 30
        0.00000
 11
        0.00000
 21
       51.00000
 31
        0.00000
 12
        0.00000
 22
       42.00000
 32
        0.00000
 13
      -53.00000
 23
       42.00000
 33
        0.00000
999
MULT_CLASS_2_POD_2_ZN_1_FLR_1:MULT_CLASS_2_POD_2_ZN_1_FLR_1_CEILING
  0
3DFACE
  8
MULT_CLASS_2_POD_2_ZN_1_FLR_1
 62
 15
 10
      -53.00000
 20
       42.00000
 30
        4.00000
 11
        0.00000
 21
       42.00000
 31
        4.00000
 12
        0.00000
 22
       51.00000
 32
        4.00000
 13
      -53.00000
 23
       51.00000
 33
        4.00000
999
CORNER_CLASS_1_POD_3_ZN_1_FLR_1:CORNER_CLASS_1_POD_3_ZN_1_FLR_1_WALL_1
  0
3DFACE
  8
CORNER_CLASS_1_POD_3_ZN_1_FLR_1
 62
 43
 10
      -64.00000
 20
       61.00000
 30
        4.00000
 11
      -64.00000
 21
       61.00000
 31
        0.00000
 12
      -53.00000
 22
       61.00000
 32
        0.00000
 13
      -53.00000
 23
       61.00000
 33
        4.00000
999
CORNER_CLASS_1_POD_3_ZN_1_FLR_1:CORNER_CLASS_1_POD_3_ZN_1_FLR_1_WALL_1_WINDOW1
  0
3DFACE
  8
CORNER_CLASS_1_POD_3_ZN_1_FLR_1
 62
143
 10
      -63.95000
 20
       61.00000
 30
        2.51284
 11
      -63.95000
 21
       61.00000
 31
        0.92207
 12
      -62.73080
 22
       61.00000
 32
        0.92207
 13
      -62.73080
 23
       61.00000
 33
        2.51284
999
CORNER_CLASS_1_POD_3_ZN_1_FLR_1:CORNER_CLASS_1_POD_3_ZN_1_FLR_1_WALL_1_WINDOW2
  0
3DFACE
  8
CORNER_CLASS_1_POD_3_ZN_1_FLR_1
 62
143
 10
      -61.51160
 20
       61.00000
 30
        2.51284
 11
      -61.51160
 21
       61.00000
 31
        0.92207
 12
      -53.05000
 22
       61.00000
 32
        0.92207
 13
      -53.05000
 23
       61.00000
 33
        2.51284
999
CORNER_CLASS_1_POD_3_ZN_1_FLR_1:CORNER_CLASS_1_POD_3_ZN_1_FLR_1_WALL_1_DOOR
  0
3DFACE
  8
CORNER_CLASS_1_POD_3_ZN_1_FLR_1
 62
 45
 10
      -62.61636
 20
       61.00000
 30
        2.13360
 11
      -62.61636
 21
       61.00000
 31
        0.00000
 12
      -61.70196
 22
       61.00000
 32
        0.00000
 13
      -61.70196
 23
       61.00000
 33
        2.13360
999
CORNER_CLASS_1_POD_3_ZN_1_FLR_1:CORNER_CLASS_1_POD_3_ZN_1_FLR_1_WALL_2
  0
3DFACE
  8
CORNER_CLASS_1_POD_3_ZN_1_FLR_1
 62
 43
 10
      -53.00000
 20
       61.00000
 30
        4.00000
 11
      -53.00000
 21
       61.00000
 31
        0.00000
 12
      -53.00000
 22
       70.00000
 32
        0.00000
 13
      -53.00000
 23
       70.00000
 33
        4.00000
999
CORNER_CLASS_1_POD_3_ZN_1_FLR_1:CORNER_CLASS_1_POD_3_ZN_1_FLR_1_WALL_3
  0
3DFACE
  8
CORNER_CLASS_1_POD_3_ZN_1_FLR_1
 62
 43
 10
      -53.00000
 20
       70.00000
 30
        4.00000
 11
      -53.00000
 21
       70.00000
 31
        0.00000
 12
      -64.00000
 22
       70.00000
 32
        0.00000
 13
      -64.00000
 23
       70.00000
 33
        4.00000
999
CORNER_CLASS_1_POD_3_ZN_1_FLR_1:CORNER_CLASS_1_POD_3_ZN_1_FLR_1_WALL_4
  0
3DFACE
  8
CORNER_CLASS_1_POD_3_ZN_1_FLR_1
 62
 43
 10
      -64.00000
 20
       70.00000
 30
        4.00000
 11
      -64.00000
 21
       70.00000
 31
        0.00000
 12
      -64.00000
 22
       61.00000
 32
        0.00000
 13
      -64.00000
 23
       61.00000
 33
        4.00000
999
CORNER_CLASS_1_POD_3_ZN_1_FLR_1:CORNER_CLASS_1_POD_3_ZN_1_FLR_1_WALL_4_WINDOW_1
  0
3DFACE
  8
CORNER_CLASS_1_POD_3_ZN_1_FLR_1
 62
143
 10
      -64.00000
 20
       69.95000
 30
        2.51572
 11
      -64.00000
 21
       69.95000
 31
        1.10000
 12
      -64.00000
 22
       61.05000
 32
        1.10000
 13
      -64.00000
 23
       61.05000
 33
        2.51572
999
CORNER_CLASS_1_POD_3_ZN_1_FLR_1:CORNER_CLASS_1_POD_3_ZN_1_FLR_1_FLOOR
  0
3DFACE
  8
CORNER_CLASS_1_POD_3_ZN_1_FLR_1
 62
  8
 10
      -64.00000
 20
       70.00000
 30
        0.00000
 11
      -53.00000
 21
       70.00000
 31
        0.00000
 12
      -53.00000
 22
       61.00000
 32
        0.00000
 13
      -64.00000
 23
       61.00000
 33
        0.00000
999
CORNER_CLASS_1_POD_3_ZN_1_FLR_1:CORNER_CLASS_1_POD_3_ZN_1_FLR_1_CEILING
  0
3DFACE
  8
CORNER_CLASS_1_POD_3_ZN_1_FLR_1
 62
 15
 10
      -64.00000
 20
       61.00000
 30
        4.00000
 11
      -53.00000
 21
       61.00000
 31
        4.00000
 12
      -53.00000
 22
       70.00000
 32
        4.00000
 13
      -64.00000
 23
       70.00000
 33
        4.00000
999
MULT_CLASS_1_POD_3_ZN_1_FLR_1:MULT_CLASS_1_POD_3_ZN_1_FLR_1_WALL_1
  0
3DFACE
  8
MULT_CLASS_1_POD_3_ZN_1_FLR_1
 62
 43
 10
      -53.00000
 20
       61.00000
 30
        4.00000
 11
      -53.00000
 21
       61.00000
 31
        0.00000
 12
        0.00000
 22
       61.00000
 32
        0.00000
 13
        0.00000
 23
       61.00000
 33
        4.00000
999
MULT_CLASS_1_POD_3_ZN_1_FLR_1:MULT_CLASS_1_POD_3_ZN_1_FLR_1_WALL_1_WINDOW1
  0
3DFACE
  8
MULT_CLASS_1_POD_3_ZN_1_FLR_1
 62
143
 10
      -52.95000
 20
       61.00000
 30
        2.50266
 11
      -52.95221
 21
       61.00000
 31
        1.03222
 12
      -36.12936
 22
       61.00000
 32
        1.03222
 13
      -36.12936
 23
       61.00000
 33
        2.50266
999
MULT_CLASS_1_POD_3_ZN_1_FLR_1:MULT_CLASS_1_POD_3_ZN_1_FLR_1_WALL_1_WINDOW2
  0
3DFACE
  8
MULT_CLASS_1_POD_3_ZN_1_FLR_1
 62
143
 10
      -34.91016
 20
       61.00000
 30
        2.50266
 11
      -34.91016
 21
       61.00000
 31
        1.03222
 12
      -18.08952
 22
       61.00000
 32
        1.03222
 13
      -18.08952
 23
       61.00000
 33
        2.50266
999
MULT_CLASS_1_POD_3_ZN_1_FLR_1:MULT_CLASS_1_POD_3_ZN_1_FLR_1_WALL_1_WINDOW3
  0
3DFACE
  8
MULT_CLASS_1_POD_3_ZN_1_FLR_1
 62
143
 10
      -16.87032
 20
       61.00000
 30
        2.50266
 11
      -16.87032
 21
       61.00000
 31
        1.03222
 12
       -0.05221
 22
       61.00000
 32
        1.03222
 13
       -0.05000
 23
       61.00000
 33
        2.50266
999
MULT_CLASS_1_POD_3_ZN_1_FLR_1:MULT_CLASS_1_POD_3_ZN_1_FLR_1_WALL_1_DOOR1
  0
3DFACE
  8
MULT_CLASS_1_POD_3_ZN_1_FLR_1
 62
 45
 10
      -35.96409
 20
       61.00000
 30
        2.13360
 11
      -35.96409
 21
       61.00000
 31
        0.00000
 12
      -35.04969
 22
       61.00000
 32
        0.00000
 13
      -35.04969
 23
       61.00000
 33
        2.13360
999
MULT_CLASS_1_POD_3_ZN_1_FLR_1:MULT_CLASS_1_POD_3_ZN_1_FLR_1_WALL_1_DOOR2
  0
3DFACE
  8
MULT_CLASS_1_POD_3_ZN_1_FLR_1
 62
 45
 10
      -17.92476
 20
       61.00000
 30
        2.13360
 11
      -17.92476
 21
       61.00000
 31
        0.00000
 12
      -17.01036
 22
       61.00000
 32
        0.00000
 13
      -17.01036
 23
       61.00000
 33
        2.13360
999
MULT_CLASS_1_POD_3_ZN_1_FLR_1:MULT_CLASS_1_POD_3_ZN_1_FLR_1_WALL_2
  0
3DFACE
  8
MULT_CLASS_1_POD_3_ZN_1_FLR_1
 62
 43
 10
        0.00000
 20
       61.00000
 30
        4.00000
 11
        0.00000
 21
       61.00000
 31
        0.00000
 12
        0.00000
 22
       70.00000
 32
        0.00000
 13
        0.00000
 23
       70.00000
 33
        4.00000
999
MULT_CLASS_1_POD_3_ZN_1_FLR_1:MULT_CLASS_1_POD_3_ZN_1_FLR_1_WALL_3
  0
3DFACE
  8
MULT_CLASS_1_POD_3_ZN_1_FLR_1
 62
 43
 10
        0.00000
 20
       70.00000
 30
        4.00000
 11
        0.00000
 21
       70.00000
 31
        0.00000
 12
      -53.00000
 22
       70.00000
 32
        0.00000
 13
      -53.00000
 23
       70.00000
 33
        4.00000
999
MULT_CLASS_1_POD_3_ZN_1_FLR_1:MULT_CLASS_1_POD_3_ZN_1_FLR_1_WALL_4
  0
3DFACE
  8
MULT_CLASS_1_POD_3_ZN_1_FLR_1
 62
 43
 10
      -53.00000
 20
       70.00000
 30
        4.00000
 11
      -53.00000
 21
       70.00000
 31
        0.00000
 12
      -53.00000
 22
       61.00000
 32
        0.00000
 13
      -53.00000
 23
       61.00000
 33
        4.00000
999
MULT_CLASS_1_POD_3_ZN_1_FLR_1:MULT_CLASS_1_POD_3_ZN_1_FLR_1_FLOOR
  0
3DFACE
  8
MULT_CLASS_1_POD_3_ZN_1_FLR_1
 62
  8
 10
      -53.00000
 20
       70.00000
 30
        0.00000
 11
        0.00000
 21
       70.00000
 31
        0.00000
 12
        0.00000
 22
       61.00000
 32
        0.00000
 13
      -53.00000
 23
       61.00000
 33
        0.00000
999
MULT_CLASS_1_POD_3_ZN_1_FLR_1:MULT_CLASS_1_POD_3_ZN_1_FLR_1_CEILING
  0
3DFACE
  8
MULT_CLASS_1_POD_3_ZN_1_FLR_1
 62
 15
 10
      -53.00000
 20
       61.00000
 30
        4.00000
 11
        0.00000
 21
       61.00000
 31
        4.00000
 12
        0.00000
 22
       70.00000
 32
        4.00000
 13
      -53.00000
 23
       70.00000
 33
        4.00000
999
CORRIDOR_POD_3_ZN_1_FLR_1:CORRIDOR_POD_3_ZN_1_FLR_1_WALL_1
  0
3DFACE
  8
CORRIDOR_POD_3_ZN_1_FLR_1
 62
 43
 10
      -64.00000
 20
       70.00000
 30
        4.00000
 11
      -64.00000
 21
       70.00000
 31
        0.00000
 12
      -53.00000
 22
       70.00000
 32
        0.00000
 13
      -53.00000
 23
       70.00000
 33
        4.00000
999
CORRIDOR_POD_3_ZN_1_FLR_1:CORRIDOR_POD_3_ZN_1_FLR_1_WALL_2
  0
3DFACE
  8
CORRIDOR_POD_3_ZN_1_FLR_1
 62
 43
 10
      -53.00000
 20
       70.00000
 30
        4.00000
 11
      -53.00000
 21
       70.00000
 31
        0.00000
 12
        0.00000
 22
       70.00000
 32
        0.00000
 13
        0.00000
 23
       70.00000
 33
        4.00000
999
CORRIDOR_POD_3_ZN_1_FLR_1:CORRIDOR_POD_3_ZN_1_FLR_1_WALL_3
  0
3DFACE
  8
CORRIDOR_POD_3_ZN_1_FLR_1
 62
 43
 10
        0.00000
 20
       70.00000
 30
        4.00000
 11
        0.00000
 21
       70.00000
 31
        0.00000
 12
        0.00000
 22
       73.00000
 32
        0.00000
 13
        0.00000
 23
       73.00000
 33
        4.00000
999
CORRIDOR_POD_3_ZN_1_FLR_1:CORRIDOR_POD_3_ZN_1_FLR_1_WALL_4
  0
3DFACE
  8
CORRIDOR_POD_3_ZN_1_FLR_1
 62
 43
 10
        0.00000
 20
       73.00000
 30
        4.00000
 11
        0.00000
 21
       73.00000
 31
        0.00000
 12
      -18.00000
 22
       73.00000
 32
        0.00000
 13
      -18.00000
 23
       73.00000
 33
        4.00000
999
CORRIDOR_POD_3_ZN_1_FLR_1:CORRIDOR_POD_3_ZN_1_FLR_1_WALL_5
  0
3DFACE
  8
CORRIDOR_POD_3_ZN_1_FLR_1
 62
 43
 10
      -18.00000
 20
       73.00000
 30
        4.00000
 11
      -18.00000
 21
       73.00000
 31
        0.00000
 12
      -53.00000
 22
       73.00000
 32
        0.00000
 13
      -53.00000
 23
       73.00000
 33
        4.00000
999
CORRIDOR_POD_3_ZN_1_FLR_1:CORRIDOR_POD_3_ZN_1_FLR_1_WALL_6
  0
3DFACE
  8
CORRIDOR_POD_3_ZN_1_FLR_1
 62
 43
 10
      -53.00000
 20
       73.00000
 30
        4.00000
 11
      -53.00000
 21
       73.00000
 31
        0.00000
 12
      -64.00000
 22
       73.00000
 32
        0.00000
 13
      -64.00000
 23
       73.00000
 33
        4.00000
999
CORRIDOR_POD_3_ZN_1_FLR_1:CORRIDOR_POD_3_ZN_1_FLR_1_WALL_7
  0
3DFACE
  8
CORRIDOR_POD_3_ZN_1_FLR_1
 62
 43
 10
      -64.00000
 20
       73.00000
 30
        4.00000
 11
      -64.00000
 21
       73.00000
 31
        0.00000
 12
      -64.00000
 22
       70.00000
 32
        0.00000
 13
      -64.00000
 23
       70.00000
 33
        4.00000
999
CORRIDOR_POD_3_ZN_1_FLR_1:CORRIDOR_POD_3_ZN_1_FLR_1_WALL_7_WINDOW_1
  0
3DFACE
  8
CORRIDOR_POD_3_ZN_1_FLR_1
 62
143
 10
      -64.00000
 20
       72.95000
 30
        2.54826
 11
      -64.00000
 21
       72.95000
 31
        1.10000
 12
      -64.00000
 22
       70.05000
 32
        1.10000
 13
      -64.00000
 23
       70.05000
 33
        2.54826
999
CORRIDOR_POD_3_ZN_1_FLR_1:CORRIDOR_POD_3_ZN_1_FLR_1_FLOOR
  0
3DFACE
  8
CORRIDOR_POD_3_ZN_1_FLR_1
 62
  8
 10
      -64.00000
 20
       73.00000
 30
        0.00000
 11
        0.00000
 21
       73.00000
 31
        0.00000
 12
        0.00000
 22
       70.00000
 32
        0.00000
 13
      -64.00000
 23
       70.00000
 33
        0.00000
999
CORRIDOR_POD_3_ZN_1_FLR_1:CORRIDOR_POD_3_ZN_1_FLR_1_CEILING
  0
3DFACE
  8
CORRIDOR_POD_3_ZN_1_FLR_1
 62
 15
 10
      -64.00000
 20
       70.00000
 30
        4.00000
 11
        0.00000
 21
       70.00000
 31
        4.00000
 12
        0.00000
 22
       73.00000
 32
        4.00000
 13
      -64.00000
 23
       73.00000
 33
        4.00000
999
CORNER_CLASS_2_POD_3_ZN_1_FLR_1:CORNER_CLASS_2_POD_3_ZN_1_FLR_1_WALL_1
  0
3DFACE
  8
CORNER_CLASS_2_POD_3_ZN_1_FLR_1
 62
 43
 10
      -64.00000
 20
       73.00000
 30
        4.00000
 11
      -64.00000
 21
       73.00000
 31
        0.00000
 12
      -53.00000
 22
       73.00000
 32
        0.00000
 13
      -53.00000
 23
       73.00000
 33
        4.00000
999
CORNER_CLASS_2_POD_3_ZN_1_FLR_1:CORNER_CLASS_2_POD_3_ZN_1_FLR_1_WALL_2
  0
3DFACE
  8
CORNER_CLASS_2_POD_3_ZN_1_FLR_1
 62
 43
 10
      -53.00000
 20
       73.00000
 30
        4.00000
 11
      -53.00000
 21
       73.00000
 31
        0.00000
 12
      -53.00000
 22
       82.00000
 32
        0.00000
 13
      -53.00000
 23
       82.00000
 33
        4.00000
999
CORNER_CLASS_2_POD_3_ZN_1_FLR_1:CORNER_CLASS_2_POD_3_ZN_1_FLR_1_WALL_3
  0
3DFACE
  8
CORNER_CLASS_2_POD_3_ZN_1_FLR_1
 62
 43
 10
      -53.00000
 20
       82.00000
 30
        4.00000
 11
      -53.00000
 21
       82.00000
 31
        0.00000
 12
      -64.00000
 22
       82.00000
 32
        0.00000
 13
      -64.00000
 23
       82.00000
 33
        4.00000
999
CORNER_CLASS_2_POD_3_ZN_1_FLR_1:CORNER_CLASS_2_POD_3_ZN_1_FLR_1_WALL_3_WINDOW1
  0
3DFACE
  8
CORNER_CLASS_2_POD_3_ZN_1_FLR_1
 62
143
 10
      -53.05000
 20
       82.00000
 30
        2.51284
 11
      -53.05000
 21
       82.00000
 31
        0.92207
 12
      -54.26920
 22
       82.00000
 32
        0.92207
 13
      -54.26920
 23
       82.00000
 33
        2.51284
999
CORNER_CLASS_2_POD_3_ZN_1_FLR_1:CORNER_CLASS_2_POD_3_ZN_1_FLR_1_WALL_3_WINDOW2
  0
3DFACE
  8
CORNER_CLASS_2_POD_3_ZN_1_FLR_1
 62
143
 10
      -55.52206
 20
       82.00000
 30
        2.51284
 11
      -55.52206
 21
       82.00000
 31
        0.92207
 12
      -63.95000
 22
       82.00000
 32
        0.92207
 13
      -63.95000
 23
       82.00000
 33
        2.51284
999
CORNER_CLASS_2_POD_3_ZN_1_FLR_1:CORNER_CLASS_2_POD_3_ZN_1_FLR_1_WALL_3_DOOR
  0
3DFACE
  8
CORNER_CLASS_2_POD_3_ZN_1_FLR_1
 62
 45
 10
      -54.44107
 20
       82.00000
 30
        2.13360
 11
      -54.44107
 21
       82.00000
 31
        0.00000
 12
      -55.35547
 22
       82.00000
 32
        0.00000
 13
      -55.35547
 23
       82.00000
 33
        2.13360
999
CORNER_CLASS_2_POD_3_ZN_1_FLR_1:CORNER_CLASS_2_POD_3_ZN_1_FLR_1_WALL_4
  0
3DFACE
  8
CORNER_CLASS_2_POD_3_ZN_1_FLR_1
 62
 43
 10
      -64.00000
 20
       82.00000
 30
        4.00000
 11
      -64.00000
 21
       82.00000
 31
        0.00000
 12
      -64.00000
 22
       73.00000
 32
        0.00000
 13
      -64.00000
 23
       73.00000
 33
        4.00000
999
CORNER_CLASS_2_POD_3_ZN_1_FLR_1:CORNER_CLASS_2_POD_3_ZN_1_FLR_1_WALL_4_WINDOW_1
  0
3DFACE
  8
CORNER_CLASS_2_POD_3_ZN_1_FLR_1
 62
143
 10
      -64.00000
 20
       81.95000
 30
        2.51572
 11
      -64.00000
 21
       81.95000
 31
        1.10000
 12
      -64.00000
 22
       73.05000
 32
        1.10000
 13
      -64.00000
 23
       73.05000
 33
        2.51572
999
CORNER_CLASS_2_POD_3_ZN_1_FLR_1:CORNER_CLASS_2_POD_3_ZN_1_FLR_1_FLOOR
  0
3DFACE
  8
CORNER_CLASS_2_POD_3_ZN_1_FLR_1
 62
  8
 10
      -64.00000
 20
       82.00000
 30
        0.00000
 11
      -53.00000
 21
       82.00000
 31
        0.00000
 12
      -53.00000
 22
       73.00000
 32
        0.00000
 13
      -64.00000
 23
       73.00000
 33
        0.00000
999
CORNER_CLASS_2_POD_3_ZN_1_FLR_1:CORNER_CLASS_2_POD_3_ZN_1_FLR_1_CEILING
  0
3DFACE
  8
CORNER_CLASS_2_POD_3_ZN_1_FLR_1
 62
 15
 10
      -64.00000
 20
       73.00000
 30
        4.00000
 11
      -53.00000
 21
       73.00000
 31
        4.00000
 12
      -53.00000
 22
       82.00000
 32
        4.00000
 13
      -64.00000
 23
       82.00000
 33
        4.00000
999
MULT_CLASS_2_POD_3_ZN_1_FLR_1:MULT_CLASS_2_POD_3_ZN_1_FLR_1_WALL_1
  0
3DFACE
  8
MULT_CLASS_2_POD_3_ZN_1_FLR_1
 62
 43
 10
      -53.00000
 20
       73.00000
 30
        4.00000
 11
      -53.00000
 21
       73.00000
 31
        0.00000
 12
      -18.00000
 22
       73.00000
 32
        0.00000
 13
      -18.00000
 23
       73.00000
 33
        4.00000
999
MULT_CLASS_2_POD_3_ZN_1_FLR_1:MULT_CLASS_2_POD_3_ZN_1_FLR_1_WALL_2
  0
3DFACE
  8
MULT_CLASS_2_POD_3_ZN_1_FLR_1
 62
 43
 10
      -18.00000
 20
       73.00000
 30
        4.00000
 11
      -18.00000
 21
       73.00000
 31
        0.00000
 12
      -18.00000
 22
       82.00000
 32
        0.00000
 13
      -18.00000
 23
       82.00000
 33
        4.00000
999
MULT_CLASS_2_POD_3_ZN_1_FLR_1:MULT_CLASS_2_POD_3_ZN_1_FLR_1_WALL_3
  0
3DFACE
  8
MULT_CLASS_2_POD_3_ZN_1_FLR_1
 62
 43
 10
      -18.00000
 20
       82.00000
 30
        4.00000
 11
      -18.00000
 21
       82.00000
 31
        0.00000
 12
      -53.00000
 22
       82.00000
 32
        0.00000
 13
      -53.00000
 23
       82.00000
 33
        4.00000
999
MULT_CLASS_2_POD_3_ZN_1_FLR_1:MULT_CLASS_2_POD_3_ZN_1_FLR_1_WALL_3_WINDOW1
  0
3DFACE
  8
MULT_CLASS_2_POD_3_ZN_1_FLR_1
 62
143
 10
      -18.05000
 20
       82.00000
 30
        2.50402
 11
      -18.05000
 21
       82.00000
 31
        0.99453
 12
      -28.87065
 22
       82.00000
 32
        0.99453
 13
      -28.87065
 23
       82.00000
 33
        2.50402
999
MULT_CLASS_2_POD_3_ZN_1_FLR_1:MULT_CLASS_2_POD_3_ZN_1_FLR_1_WALL_3_WINDOW2
  0
3DFACE
  8
MULT_CLASS_2_POD_3_ZN_1_FLR_1
 62
143
 10
      -30.08985
 20
       82.00000
 30
        2.50402
 11
      -30.08985
 21
       82.00000
 31
        0.99453
 12
      -40.91051
 22
       82.00000
 32
        0.99453
 13
      -40.91051
 23
       82.00000
 33
        2.50402
999
MULT_CLASS_2_POD_3_ZN_1_FLR_1:MULT_CLASS_2_POD_3_ZN_1_FLR_1_WALL_3_WINDOW3
  0
3DFACE
  8
MULT_CLASS_2_POD_3_ZN_1_FLR_1
 62
143
 10
      -42.12971
 20
       82.00000
 30
        2.50402
 11
      -42.12971
 21
       82.00000
 31
        0.99453
 12
      -52.95000
 22
       82.00000
 32
        0.99453
 13
      -52.95000
 23
       82.00000
 33
        2.50402
999
MULT_CLASS_2_POD_3_ZN_1_FLR_1:MULT_CLASS_2_POD_3_ZN_1_FLR_1_WALL_3_DOOR1
  0
3DFACE
  8
MULT_CLASS_2_POD_3_ZN_1_FLR_1
 62
 45
 10
      -29.00297
 20
       82.00000
 30
        2.13360
 11
      -29.00297
 21
       82.00000
 31
        0.00000
 12
      -29.91737
 22
       82.00000
 32
        0.00000
 13
      -29.91737
 23
       82.00000
 33
        2.13360
999
MULT_CLASS_2_POD_3_ZN_1_FLR_1:MULT_CLASS_2_POD_3_ZN_1_FLR_1_WALL_3_DOOR2
  0
3DFACE
  8
MULT_CLASS_2_POD_3_ZN_1_FLR_1
 62
 45
 10
      -41.09433
 20
       82.00000
 30
        2.13360
 11
      -41.09433
 21
       82.00000
 31
        0.00000
 12
      -42.00873
 22
       82.00000
 32
        0.00000
 13
      -42.00873
 23
       82.00000
 33
        2.13360
999
MULT_CLASS_2_POD_3_ZN_1_FLR_1:MULT_CLASS_2_POD_3_ZN_1_FLR_1_WALL_4
  0
3DFACE
  8
MULT_CLASS_2_POD_3_ZN_1_FLR_1
 62
 43
 10
      -53.00000
 20
       82.00000
 30
        4.00000
 11
      -53.00000
 21
       82.00000
 31
        0.00000
 12
      -53.00000
 22
       73.00000
 32
        0.00000
 13
      -53.00000
 23
       73.00000
 33
        4.00000
999
MULT_CLASS_2_POD_3_ZN_1_FLR_1:MULT_CLASS_2_POD_3_ZN_1_FLR_1_FLOOR
  0
3DFACE
  8
MULT_CLASS_2_POD_3_ZN_1_FLR_1
 62
  8
 10
      -53.00000
 20
       82.00000
 30
        0.00000
 11
      -18.00000
 21
       82.00000
 31
        0.00000
 12
      -18.00000
 22
       73.00000
 32
        0.00000
 13
      -53.00000
 23
       73.00000
 33
        0.00000
999
MULT_CLASS_2_POD_3_ZN_1_FLR_1:MULT_CLASS_2_POD_3_ZN_1_FLR_1_CEILING
  0
3DFACE
  8
MULT_CLASS_2_POD_3_ZN_1_FLR_1
 62
 15
 10
      -53.00000
 20
       73.00000
 30
        4.00000
 11
      -18.00000
 21
       73.00000
 31
        4.00000
 12
      -18.00000
 22
       82.00000
 32
        4.00000
 13
      -53.00000
 23
       82.00000
 33
        4.00000
999
COMPUTER_CLASS_ZN_1_FLR_1:COMPUTER_CLASS_ZN_1_FLR_1_WALL_1
  0
3DFACE
  8
COMPUTER_CLASS_ZN_1_FLR_1
 62
 43
 10
      -18.00000
 20
       73.00000
 30
        4.00000
 11
      -18.00000
 21
       73.00000
 31
        0.00000
 12
        0.00000
 22
       73.00000
 32
        0.00000
 13
        0.00000
 23
       73.00000
 33
        4.00000
999
COMPUTER_CLASS_ZN_1_FLR_1:COMPUTER_CLASS_ZN_1_FLR_1_WALL_2
  0
3DFACE
  8
COMPUTER_CLASS_ZN_1_FLR_1
 62
 43
 10
        0.00000
 20
       73.00000
 30
        4.00000
 11
        0.00000
 21
       73.00000
 31
        0.00000
 12
        0.00000
 22
       82.00000
 32
        0.00000
 13
        0.00000
 23
       82.00000
 33
        4.00000
999
COMPUTER_CLASS_ZN_1_FLR_1:COMPUTER_CLASS_ZN_1_FLR_1_WALL_3
  0
3DFACE
  8
COMPUTER_CLASS_ZN_1_FLR_1
 62
 43
 10
        0.00000
 20
       82.00000
 30
        4.00000
 11
        0.00000
 21
       82.00000
 31
        0.00000
 12
      -18.00000
 22
       82.00000
 32
        0.00000
 13
      -18.00000
 23
       82.00000
 33
        4.00000
999
COMPUTER_CLASS_ZN_1_FLR_1:COMPUTER_CLASS_ZN_1_FLR_1_WALL_3_WINDOW1
  0
3DFACE
  8
COMPUTER_CLASS_ZN_1_FLR_1
 62
143
 10
       -0.05000
 20
       82.00000
 30
        2.50780
 11
       -0.05000
 21
       82.00000
 31
        0.99710
 12
       -1.26920
 22
       82.00000
 32
        0.99710
 13
       -1.26920
 23
       82.00000
 33
        2.50780
999
COMPUTER_CLASS_ZN_1_FLR_1:COMPUTER_CLASS_ZN_1_FLR_1_WALL_3_WINDOW2
  0
3DFACE
  8
COMPUTER_CLASS_ZN_1_FLR_1
 62
143
 10
       -2.48840
 20
       82.00000
 30
        2.50780
 11
       -2.48840
 21
       82.00000
 31
        0.99710
 12
      -17.95000
 22
       82.00000
 32
        0.99710
 13
      -17.95000
 23
       82.00000
 33
        2.50780
999
COMPUTER_CLASS_ZN_1_FLR_1:COMPUTER_CLASS_ZN_1_FLR_1_WALL_3_DOOR
  0
3DFACE
  8
COMPUTER_CLASS_ZN_1_FLR_1
 62
 45
 10
       -1.50124
 20
       82.00000
 30
        2.13360
 11
       -1.50124
 21
       82.00000
 31
        0.00000
 12
       -2.41564
 22
       82.00000
 32
        0.00000
 13
       -2.41564
 23
       82.00000
 33
        2.13360
999
COMPUTER_CLASS_ZN_1_FLR_1:COMPUTER_CLASS_ZN_1_FLR_1_WALL_4
  0
3DFACE
  8
COMPUTER_CLASS_ZN_1_FLR_1
 62
 43
 10
      -18.00000
 20
       82.00000
 30
        4.00000
 11
      -18.00000
 21
       82.00000
 31
        0.00000
 12
      -18.00000
 22
       73.00000
 32
        0.00000
 13
      -18.00000
 23
       73.00000
 33
        4.00000
999
COMPUTER_CLASS_ZN_1_FLR_1:COMPUTER_CLASS_ZN_1_FLR_1_FLOOR
  0
3DFACE
  8
COMPUTER_CLASS_ZN_1_FLR_1
 62
  8
 10
      -18.00000
 20
       82.00000
 30
        0.00000
 11
        0.00000
 21
       82.00000
 31
        0.00000
 12
        0.00000
 22
       73.00000
 32
        0.00000
 13
      -18.00000
 23
       73.00000
 33
        0.00000
999
COMPUTER_CLASS_ZN_1_FLR_1:COMPUTER_CLASS_ZN_1_FLR_1_CEILING
  0
3DFACE
  8
COMPUTER_CLASS_ZN_1_FLR_1
 62
 15
 10
      -18.00000
 20
       73.00000
 30
        4.00000
 11
        0.00000
 21
       73.00000
 31
        4.00000
 12
        0.00000
 22
       82.00000
 32
        4.00000
 13
      -18.00000
 23
       82.00000
 33
        4.00000
999
MAIN_CORRIDOR_ZN_1_FLR_1:MAIN_CORRIDOR_ZN_1_FLR_1_WALL_1
  0
3DFACE
  8
MAIN_CORRIDOR_ZN_1_FLR_1
 62
 43
 10
        0.00000
 20
        9.00000
 30
        4.00000
 11
        0.00000
 21
        9.00000
 31
        0.00000
 12
       13.00000
 22
        9.00000
 32
        0.00000
 13
       13.00000
 23
        9.00000
 33
        4.00000
999
MAIN_CORRIDOR_ZN_1_FLR_1:MAIN_CORRIDOR_ZN_1_FLR_1_WALL_2
  0
3DFACE
  8
MAIN_CORRIDOR_ZN_1_FLR_1
 62
 43
 10
       13.00000
 20
        9.00000
 30
        4.00000
 11
       13.00000
 21
        9.00000
 31
        0.00000
 12
       13.00000
 22
       51.00000
 32
        0.00000
 13
       13.00000
 23
       51.00000
 33
        4.00000
999
MAIN_CORRIDOR_ZN_1_FLR_1:MAIN_CORRIDOR_ZN_1_FLR_1_WALL_3
  0
3DFACE
  8
MAIN_CORRIDOR_ZN_1_FLR_1
 62
 43
 10
       13.00000
 20
       51.00000
 30
        4.00000
 11
       13.00000
 21
       51.00000
 31
        0.00000
 12
        0.00000
 22
       51.00000
 32
        0.00000
 13
        0.00000
 23
       51.00000
 33
        4.00000
999
MAIN_CORRIDOR_ZN_1_FLR_1:MAIN_CORRIDOR_ZN_1_FLR_1_WALL_4
  0
3DFACE
  8
MAIN_CORRIDOR_ZN_1_FLR_1
 62
 43
 10
        0.00000
 20
       51.00000
 30
        4.00000
 11
        0.00000
 21
       51.00000
 31
        0.00000
 12
        0.00000
 22
       42.00000
 32
        0.00000
 13
        0.00000
 23
       42.00000
 33
        4.00000
999
MAIN_CORRIDOR_ZN_1_FLR_1:MAIN_CORRIDOR_ZN_1_FLR_1_WALL_5
  0
3DFACE
  8
MAIN_CORRIDOR_ZN_1_FLR_1
 62
 43
 10
        0.00000
 20
       42.00000
 30
        4.00000
 11
        0.00000
 21
       42.00000
 31
        0.00000
 12
        0.00000
 22
       39.00000
 32
        0.00000
 13
        0.00000
 23
       39.00000
 33
        4.00000
999
MAIN_CORRIDOR_ZN_1_FLR_1:MAIN_CORRIDOR_ZN_1_FLR_1_WALL_6
  0
3DFACE
  8
MAIN_CORRIDOR_ZN_1_FLR_1
 62
 43
 10
        0.00000
 20
       39.00000
 30
        4.00000
 11
        0.00000
 21
       39.00000
 31
        0.00000
 12
        0.00000
 22
       30.00000
 32
        0.00000
 13
        0.00000
 23
       30.00000
 33
        4.00000
999
MAIN_CORRIDOR_ZN_1_FLR_1:MAIN_CORRIDOR_ZN_1_FLR_1_WALL_7
  0
3DFACE
  8
MAIN_CORRIDOR_ZN_1_FLR_1
 62
 43
 10
        0.00000
 20
       30.00000
 30
        4.00000
 11
        0.00000
 21
       30.00000
 31
        0.00000
 12
        0.00000
 22
       21.00000
 32
        0.00000
 13
        0.00000
 23
       21.00000
 33
        4.00000
999
MAIN_CORRIDOR_ZN_1_FLR_1:MAIN_CORRIDOR_ZN_1_FLR_1_WALL_7_WINDOW1
  0
3DFACE
  8
MAIN_CORRIDOR_ZN_1_FLR_1
 62
143
 10
        0.00000
 20
       29.95000
 30
        2.51572
 11
        0.00000
 21
       29.95000
 31
        0.87528
 12
        0.00000
 22
       28.73080
 32
        0.87528
 13
        0.00000
 23
       28.73080
 33
        2.51572
999
MAIN_CORRIDOR_ZN_1_FLR_1:MAIN_CORRIDOR_ZN_1_FLR_1_WALL_7_WINDOW2
  0
3DFACE
  8
MAIN_CORRIDOR_ZN_1_FLR_1
 62
143
 10
        0.00000
 20
       27.51160
 30
        2.51572
 11
        0.00000
 21
       27.51160
 31
        0.87528
 12
        0.00000
 22
       21.05000
 32
        0.87528
 13
        0.00000
 23
       21.05000
 33
        2.51572
999
MAIN_CORRIDOR_ZN_1_FLR_1:MAIN_CORRIDOR_ZN_1_FLR_1_WALL_7_DOOR
  0
3DFACE
  8
MAIN_CORRIDOR_ZN_1_FLR_1
 62
 45
 10
        0.00000
 20
       28.58255
 30
        2.13360
 11
        0.00000
 21
       28.58255
 31
        0.00000
 12
        0.00000
 22
       27.66815
 32
        0.00000
 13
        0.00000
 23
       27.66815
 33
        2.13360
999
MAIN_CORRIDOR_ZN_1_FLR_1:MAIN_CORRIDOR_ZN_1_FLR_1_WALL_8
  0
3DFACE
  8
MAIN_CORRIDOR_ZN_1_FLR_1
 62
 43
 10
        0.00000
 20
       21.00000
 30
        4.00000
 11
        0.00000
 21
       21.00000
 31
        0.00000
 12
        0.00000
 22
       12.00000
 32
        0.00000
 13
        0.00000
 23
       12.00000
 33
        4.00000
999
MAIN_CORRIDOR_ZN_1_FLR_1:MAIN_CORRIDOR_ZN_1_FLR_1_WALL_9
  0
3DFACE
  8
MAIN_CORRIDOR_ZN_1_FLR_1
 62
 43
 10
        0.00000
 20
       12.00000
 30
        4.00000
 11
        0.00000
 21
       12.00000
 31
        0.00000
 12
        0.00000
 22
        9.00000
 32
        0.00000
 13
        0.00000
 23
        9.00000
 33
        4.00000
999
MAIN_CORRIDOR_ZN_1_FLR_1:MAIN_CORRIDOR_ZN_1_FLR_1_FLOOR
  0
3DFACE
  8
MAIN_CORRIDOR_ZN_1_FLR_1
 62
  8
 10
        0.00000
 20
       51.00000
 30
        0.00000
 11
       13.00000
 21
       51.00000
 31
        0.00000
 12
       13.00000
 22
        9.00000
 32
        0.00000
 13
        0.00000
 23
        9.00000
 33
        0.00000
999
MAIN_CORRIDOR_ZN_1_FLR_1:MAIN_CORRIDOR_ZN_1_FLR_1_CEILING
  0
3DFACE
  8
MAIN_CORRIDOR_ZN_1_FLR_1
 62
 15
 10
        0.00000
 20
        9.00000
 30
        4.00000
 11
       13.00000
 21
        9.00000
 31
        4.00000
 12
       13.00000
 22
       51.00000
 32
        4.00000
 13
        0.00000
 23
       51.00000
 33
        4.00000
999
LOBBY_ZN_1_FLR_1:LOBBY_ZN_1_FLR_1_WALL_1
  0
3DFACE
  8
LOBBY_ZN_1_FLR_1
 62
 43
 10
        0.00000
 20
        0.00000
 30
        4.00000
 11
        0.00000
 21
        0.00000
 31
        0.00000
 12
       19.00000
 22
        0.00000
 32
        0.00000
 13
       19.00000
 23
        0.00000
 33
        4.00000
999
LOBBY_ZN_1_FLR_1:LOBBY_ZN_1_FLR_1_WALL_1_WINDOW1
  0
3DFACE
  8
LOBBY_ZN_1_FLR_1
 62
143
 10
        0.05000
 20
        0.00000
 30
        2.50742
 11
        0.05000
 21
        0.00000
 31
        1.00294
 12
        1.26920
 22
        0.00000
 32
        1.00294
 13
        1.26920
 23
        0.00000
 33
        2.50742
999
LOBBY_ZN_1_FLR_1:LOBBY_ZN_1_FLR_1_WALL_1_WINDOW2
  0
3DFACE
  8
LOBBY_ZN_1_FLR_1
 62
143
 10
        2.48840
 20
        0.00000
 30
        2.50742
 11
        2.48840
 21
        0.00000
 31
        1.00294
 12
       18.95000
 22
        0.00000
 32
        1.00294
 13
       18.95000
 23
        0.00000
 33
        2.50742
999
LOBBY_ZN_1_FLR_1:LOBBY_ZN_1_FLR_1_WALL_1_DOOR
  0
3DFACE
  8
LOBBY_ZN_1_FLR_1
 62
 45
 10
        1.49731
 20
        0.00000
 30
        2.13360
 11
        1.49731
 21
        0.00000
 31
        0.00000
 12
        2.41171
 22
        0.00000
 32
        0.00000
 13
        2.41171
 23
        0.00000
 33
        2.13360
999
LOBBY_ZN_1_FLR_1:LOBBY_ZN_1_FLR_1_WALL_2
  0
3DFACE
  8
LOBBY_ZN_1_FLR_1
 62
 43
 10
       19.00000
 20
        0.00000
 30
        4.00000
 11
       19.00000
 21
        0.00000
 31
        0.00000
 12
       19.00000
 22
        9.00000
 32
        0.00000
 13
       19.00000
 23
        9.00000
 33
        4.00000
999
LOBBY_ZN_1_FLR_1:LOBBY_ZN_1_FLR_1_WALL_3
  0
3DFACE
  8
LOBBY_ZN_1_FLR_1
 62
 43
 10
       19.00000
 20
        9.00000
 30
        4.00000
 11
       19.00000
 21
        9.00000
 31
        0.00000
 12
       13.00000
 22
        9.00000
 32
        0.00000
 13
       13.00000
 23
        9.00000
 33
        4.00000
999
LOBBY_ZN_1_FLR_1:LOBBY_ZN_1_FLR_1_WALL_4
  0
3DFACE
  8
LOBBY_ZN_1_FLR_1
 62
 43
 10
       13.00000
 20
        9.00000
 30
        4.00000
 11
       13.00000
 21
        9.00000
 31
        0.00000
 12
        0.00000
 22
        9.00000
 32
        0.00000
 13
        0.00000
 23
        9.00000
 33
        4.00000
999
LOBBY_ZN_1_FLR_1:LOBBY_ZN_1_FLR_1_WALL_5
  0
3DFACE
  8
LOBBY_ZN_1_FLR_1
 62
 43
 10
        0.00000
 20
        9.00000
 30
        4.00000
 11
        0.00000
 21
        9.00000
 31
        0.00000
 12
        0.00000
 22
        0.00000
 32
        0.00000
 13
        0.00000
 23
        0.00000
 33
        4.00000
999
LOBBY_ZN_1_FLR_1:LOBBY_ZN_1_FLR_1_FLOOR
  0
3DFACE
  8
LOBBY_ZN_1_FLR_1
 62
  8
 10
        0.00000
 20
        9.00000
 30
        0.00000
 11
       19.00000
 21
        9.00000
 31
        0.00000
 12
       19.00000
 22
        0.00000
 32
        0.00000
 13
        0.00000
 23
        0.00000
 33
        0.00000
999
LOBBY_ZN_1_FLR_1:LOBBY_ZN_1_FLR_1_CEILING
  0
3DFACE
  8
LOBBY_ZN_1_FLR_1
 62
 15
 10
        0.00000
 20
        0.00000
 30
        4.00000
 11
       19.00000
 21
        0.00000
 31
        4.00000
 12
       19.00000
 22
        9.00000
 32
        4.00000
 13
        0.00000
 23
        9.00000
 33
        4.00000
999
MECH_ZN_1_FLR_1:MECH_ZN_1_FLR_1_WALL_1
  0
3DFACE
  8
MECH_ZN_1_FLR_1
 62
 43
 10
       13.00000
 20
        9.00000
 30
        4.00000
 11
       13.00000
 21
        9.00000
 31
        0.00000
 12
       19.00000
 22
        9.00000
 32
        0.00000
 13
       19.00000
 23
        9.00000
 33
        4.00000
999
MECH_ZN_1_FLR_1:MECH_ZN_1_FLR_1_WALL_2
  0
3DFACE
  8
MECH_ZN_1_FLR_1
 62
 43
 10
       19.00000
 20
        9.00000
 30
        4.00000
 11
       19.00000
 21
        9.00000
 31
        0.00000
 12
       19.00000
 22
       21.00000
 32
        0.00000
 13
       19.00000
 23
       21.00000
 33
        4.00000
999
MECH_ZN_1_FLR_1:MECH_ZN_1_FLR_1_WALL_3
  0
3DFACE
  8
MECH_ZN_1_FLR_1
 62
 43
 10
       19.00000
 20
       21.00000
 30
        4.00000
 11
       19.00000
 21
       21.00000
 31
        0.00000
 12
       19.00000
 22
       38.00000
 32
        0.00000
 13
       19.00000
 23
       38.00000
 33
        4.00000
999
MECH_ZN_1_FLR_1:MECH_ZN_1_FLR_1_WALL_4
  0
3DFACE
  8
MECH_ZN_1_FLR_1
 62
 43
 10
       19.00000
 20
       38.00000
 30
        4.00000
 11
       19.00000
 21
       38.00000
 31
        0.00000
 12
       19.00000
 22
       46.00000
 32
        0.00000
 13
       19.00000
 23
       46.00000
 33
        4.00000
999
MECH_ZN_1_FLR_1:MECH_ZN_1_FLR_1_WALL_5
  0
3DFACE
  8
MECH_ZN_1_FLR_1
 62
 43
 10
       19.00000
 20
       46.00000
 30
        4.00000
 11
       19.00000
 21
       46.00000
 31
        0.00000
 12
       19.00000
 22
       51.00000
 32
        0.00000
 13
       19.00000
 23
       51.00000
 33
        4.00000
999
MECH_ZN_1_FLR_1:MECH_ZN_1_FLR_1_WALL_6
  0
3DFACE
  8
MECH_ZN_1_FLR_1
 62
 43
 10
       19.00000
 20
       51.00000
 30
        4.00000
 11
       19.00000
 21
       51.00000
 31
        0.00000
 12
       13.00000
 22
       51.00000
 32
        0.00000
 13
       13.00000
 23
       51.00000
 33
        4.00000
999
MECH_ZN_1_FLR_1:MECH_ZN_1_FLR_1_WALL_7
  0
3DFACE
  8
MECH_ZN_1_FLR_1
 62
 43
 10
       13.00000
 20
       51.00000
 30
        4.00000
 11
       13.00000
 21
       51.00000
 31
        0.00000
 12
       13.00000
 22
        9.00000
 32
        0.00000
 13
       13.00000
 23
        9.00000
 33
        4.00000
999
MECH_ZN_1_FLR_1:MECH_ZN_1_FLR_1_FLOOR
  0
3DFACE
  8
MECH_ZN_1_FLR_1
 62
  8
 10
       13.00000
 20
       51.00000
 30
        0.00000
 11
       19.00000
 21
       51.00000
 31
        0.00000
 12
       19.00000
 22
        9.00000
 32
        0.00000
 13
       13.00000
 23
        9.00000
 33
        0.00000
999
MECH_ZN_1_FLR_1:MECH_ZN_1_FLR_1_CEILING
  0
3DFACE
  8
MECH_ZN_1_FLR_1
 62
 15
 10
       13.00000
 20
        9.00000
 30
        4.00000
 11
       19.00000
 21
        9.00000
 31
        4.00000
 12
       19.00000
 22
       51.00000
 32
        4.00000
 13
       13.00000
 23
       51.00000
 33
        4.00000
999
BATH_ZN_1_FLR_1:BATH_ZN_1_FLR_1_WALL_1
  0
3DFACE
  8
BATH_ZN_1_FLR_1
 62
 43
 10
        0.00000
 20
       51.00000
 30
        4.00000
 11
        0.00000
 21
       51.00000
 31
        0.00000
 12
       13.00000
 22
       51.00000
 32
        0.00000
 13
       13.00000
 23
       51.00000
 33
        4.00000
999
BATH_ZN_1_FLR_1:BATH_ZN_1_FLR_1_WALL_2
  0
3DFACE
  8
BATH_ZN_1_FLR_1
 62
 43
 10
       13.00000
 20
       51.00000
 30
        4.00000
 11
       13.00000
 21
       51.00000
 31
        0.00000
 12
       19.00000
 22
       51.00000
 32
        0.00000
 13
       19.00000
 23
       51.00000
 33
        4.00000
999
BATH_ZN_1_FLR_1:BATH_ZN_1_FLR_1_WALL_3
  0
3DFACE
  8
BATH_ZN_1_FLR_1
 62
 43
 10
       19.00000
 20
       51.00000
 30
        4.00000
 11
       19.00000
 21
       51.00000
 31
        0.00000
 12
       19.00000
 22
       61.00000
 32
        0.00000
 13
       19.00000
 23
       61.00000
 33
        4.00000
999
BATH_ZN_1_FLR_1:BATH_ZN_1_FLR_1_WALL_4
  0
3DFACE
  8
BATH_ZN_1_FLR_1
 62
 43
 10
       19.00000
 20
       61.00000
 30
        4.00000
 11
       19.00000
 21
       61.00000
 31
        0.00000
 12
        0.00000
 22
       61.00000
 32
        0.00000
 13
        0.00000
 23
       61.00000
 33
        4.00000
999
BATH_ZN_1_FLR_1:BATH_ZN_1_FLR_1_WALL_5
  0
3DFACE
  8
BATH_ZN_1_FLR_1
 62
 43
 10
        0.00000
 20
       61.00000
 30
        4.00000
 11
        0.00000
 21
       61.00000
 31
        0.00000
 12
        0.00000
 22
       51.00000
 32
        0.00000
 13
        0.00000
 23
       51.00000
 33
        4.00000
999
BATH_ZN_1_FLR_1:BATH_ZN_1_FLR_1_WALL_5_WINDOW_1
  0
3DFACE
  8
BATH_ZN_1_FLR_1
 62
143
 10
        0.00000
 20
       60.95000
 30
        2.51414
 11
        0.00000
 21
       60.95000
 31
        1.10000
 12
        0.00000
 22
       51.05000
 32
        1.10000
 13
        0.00000
 23
       51.05000
 33
        2.51414
999
BATH_ZN_1_FLR_1:BATH_ZN_1_FLR_1_FLOOR
  0
3DFACE
  8
BATH_ZN_1_FLR_1
 62
  8
 10
        0.00000
 20
       61.00000
 30
        0.00000
 11
       19.00000
 21
       61.00000
 31
        0.00000
 12
       19.00000
 22
       51.00000
 32
        0.00000
 13
        0.00000
 23
       51.00000
 33
        0.00000
999
BATH_ZN_1_FLR_1:BATH_ZN_1_FLR_1_CEILING
  0
3DFACE
  8
BATH_ZN_1_FLR_1
 62
 15
 10
        0.00000
 20
       51.00000
 30
        4.00000
 11
       19.00000
 21
       51.00000
 31
        4.00000
 12
       19.00000
 22
       61.00000
 32
        4.00000
 13
        0.00000
 23
       61.00000
 33
        4.00000
999
OFFICES_ZN_1_FLR_1:OFFICES_ZN_1_FLR_1_WALL_1
  0
3DFACE
  8
OFFICES_ZN_1_FLR_1
 62
 43
 10
       19.00000
 20
        0.00000
 30
        4.00000
 11
       19.00000
 21
        0.00000
 31
        0.00000
 12
       40.00000
 22
        0.00000
 32
        0.00000
 13
       40.00000
 23
        0.00000
 33
        4.00000
999
OFFICES_ZN_1_FLR_1:OFFICES_ZN_1_FLR_1_WALL_1_WINDOW1
  0
3DFACE
  8
OFFICES_ZN_1_FLR_1
 62
143
 10
       19.05000
 20
        0.00000
 30
        2.50669
 11
       19.05000
 21
        0.00000
 31
        1.01286
 12
       20.26920
 22
        0.00000
 32
        1.01286
 13
       20.26920
 23
        0.00000
 33
        2.50669
999
OFFICES_ZN_1_FLR_1:OFFICES_ZN_1_FLR_1_WALL_1_WINDOW2
  0
3DFACE
  8
OFFICES_ZN_1_FLR_1
 62
143
 10
       21.48840
 20
        0.00000
 30
        2.50669
 11
       21.48840
 21
        0.00000
 31
        1.01286
 12
       39.95000
 22
        0.00000
 32
        1.01286
 13
       39.95000
 23
        0.00000
 33
        2.50669
999
OFFICES_ZN_1_FLR_1:OFFICES_ZN_1_FLR_1_WALL_1_DOOR
  0
3DFACE
  8
OFFICES_ZN_1_FLR_1
 62
 45
 10
       20.38745
 20
        0.00000
 30
        2.13360
 11
       20.38745
 21
        0.00000
 31
        0.00000
 12
       21.30185
 22
        0.00000
 32
        0.00000
 13
       21.30185
 23
        0.00000
 33
        2.13360
999
OFFICES_ZN_1_FLR_1:OFFICES_ZN_1_FLR_1_WALL_2
  0
3DFACE
  8
OFFICES_ZN_1_FLR_1
 62
 43
 10
       40.00000
 20
        0.00000
 30
        4.00000
 11
       40.00000
 21
        0.00000
 31
        0.00000
 12
       40.00000
 22
       21.00000
 32
        0.00000
 13
       40.00000
 23
       21.00000
 33
        4.00000
999
OFFICES_ZN_1_FLR_1:OFFICES_ZN_1_FLR_1_WALL_2_WINDOW_1
  0
3DFACE
  8
OFFICES_ZN_1_FLR_1
 62
143
 10
       40.00000
 20
        0.05000
 30
        2.50669
 11
       40.00000
 21
        0.05000
 31
        1.10000
 12
       40.00000
 22
       20.95000
 32
        1.10000
 13
       40.00000
 23
       20.95000
 33
        2.50669
999
OFFICES_ZN_1_FLR_1:OFFICES_ZN_1_FLR_1_WALL_3
  0
3DFACE
  8
OFFICES_ZN_1_FLR_1
 62
 43
 10
       40.00000
 20
       21.00000
 30
        4.00000
 11
       40.00000
 21
       21.00000
 31
        0.00000
 12
       19.00000
 22
       21.00000
 32
        0.00000
 13
       19.00000
 23
       21.00000
 33
        4.00000
999
OFFICES_ZN_1_FLR_1:OFFICES_ZN_1_FLR_1_WALL_4
  0
3DFACE
  8
OFFICES_ZN_1_FLR_1
 62
 43
 10
       19.00000
 20
       21.00000
 30
        4.00000
 11
       19.00000
 21
       21.00000
 31
        0.00000
 12
       19.00000
 22
        9.00000
 32
        0.00000
 13
       19.00000
 23
        9.00000
 33
        4.00000
999
OFFICES_ZN_1_FLR_1:OFFICES_ZN_1_FLR_1_WALL_5
  0
3DFACE
  8
OFFICES_ZN_1_FLR_1
 62
 43
 10
       19.00000
 20
        9.00000
 30
        4.00000
 11
       19.00000
 21
        9.00000
 31
        0.00000
 12
       19.00000
 22
        0.00000
 32
        0.00000
 13
       19.00000
 23
        0.00000
 33
        4.00000
999
OFFICES_ZN_1_FLR_1:OFFICES_ZN_1_FLR_1_FLOOR
  0
3DFACE
  8
OFFICES_ZN_1_FLR_1
 62
  8
 10
       19.00000
 20
       21.00000
 30
        0.00000
 11
       40.00000
 21
       21.00000
 31
        0.00000
 12
       40.00000
 22
        0.00000
 32
        0.00000
 13
       19.00000
 23
        0.00000
 33
        0.00000
999
OFFICES_ZN_1_FLR_1:OFFICES_ZN_1_FLR_1_CEILING
  0
3DFACE
  8
OFFICES_ZN_1_FLR_1
 62
 15
 10
       19.00000
 20
        0.00000
 30
        4.00000
 11
       40.00000
 21
        0.00000
 31
        4.00000
 12
       40.00000
 22
       21.00000
 32
        4.00000
 13
       19.00000
 23
       21.00000
 33
        4.00000
999
GYM_ZN_1_FLR_1:GYM_ZN_1_FLR_1_WALL_1
  0
3DFACE
  8
GYM_ZN_1_FLR_1
 62
 43
 10
       19.00000
 20
       21.00000
 30
        4.00000
 11
       19.00000
 21
       21.00000
 31
        0.00000
 12
       40.00000
 22
       21.00000
 32
        0.00000
 13
       40.00000
 23
       21.00000
 33
        4.00000
999
GYM_ZN_1_FLR_1:GYM_ZN_1_FLR_1_WALL_2
  0
3DFACE
  8
GYM_ZN_1_FLR_1
 62
 43
 10
       40.00000
 20
       21.00000
 30
        4.00000
 11
       40.00000
 21
       21.00000
 31
        0.00000
 12
       40.00000
 22
       38.00000
 32
        0.00000
 13
       40.00000
 23
       38.00000
 33
        4.00000
999
GYM_ZN_1_FLR_1:GYM_ZN_1_FLR_1_WALL_2_WINDOW1
  0
3DFACE
  8
GYM_ZN_1_FLR_1
 62
143
 10
       40.00000
 20
       21.05000
 30
        2.50829
 11
       40.00000
 21
       21.04554
 31
        0.99050
 12
       40.00000
 22
       22.26920
 32
        0.99050
 13
       40.00000
 23
       22.26920
 33
        2.50829
999
GYM_ZN_1_FLR_1:GYM_ZN_1_FLR_1_WALL_2_WINDOW2
  0
3DFACE
  8
GYM_ZN_1_FLR_1
 62
143
 10
       40.00000
 20
       23.48840
 30
        2.50829
 11
       40.00000
 21
       23.48840
 31
        0.99050
 12
       40.00000
 22
       37.94554
 32
        0.99050
 13
       40.00000
 23
       37.95000
 33
        2.50829
999
GYM_ZN_1_FLR_1:GYM_ZN_1_FLR_1_WALL_2_DOOR
  0
3DFACE
  8
GYM_ZN_1_FLR_1
 62
 45
 10
       40.00000
 20
       22.38291
 30
        2.13360
 11
       40.00000
 21
       22.38291
 31
        0.00000
 12
       40.00000
 22
       23.29731
 32
        0.00000
 13
       40.00000
 23
       23.29731
 33
        2.13360
999
GYM_ZN_1_FLR_1:GYM_ZN_1_FLR_1_WALL_3
  0
3DFACE
  8
GYM_ZN_1_FLR_1
 62
 43
 10
       40.00000
 20
       38.00000
 30
        4.00000
 11
       40.00000
 21
       38.00000
 31
        0.00000
 12
       19.00000
 22
       38.00000
 32
        0.00000
 13
       19.00000
 23
       38.00000
 33
        4.00000
999
GYM_ZN_1_FLR_1:GYM_ZN_1_FLR_1_WALL_4
  0
3DFACE
  8
GYM_ZN_1_FLR_1
 62
 43
 10
       19.00000
 20
       38.00000
 30
        4.00000
 11
       19.00000
 21
       38.00000
 31
        0.00000
 12
       19.00000
 22
       21.00000
 32
        0.00000
 13
       19.00000
 23
       21.00000
 33
        4.00000
999
GYM_ZN_1_FLR_1:GYM_ZN_1_FLR_1_FLOOR
  0
3DFACE
  8
GYM_ZN_1_FLR_1
 62
  8
 10
       19.00000
 20
       38.00000
 30
        0.00000
 11
       40.00000
 21
       38.00000
 31
        0.00000
 12
       40.00000
 22
       21.00000
 32
        0.00000
 13
       19.00000
 23
       21.00000
 33
        0.00000
999
GYM_ZN_1_FLR_1:GYM_ZN_1_FLR_1_CEILING
  0
3DFACE
  8
GYM_ZN_1_FLR_1
 62
 15
 10
       19.00000
 20
       21.00000
 30
        4.00000
 11
       40.00000
 21
       21.00000
 31
        4.00000
 12
       40.00000
 22
       38.00000
 32
        4.00000
 13
       19.00000
 23
       38.00000
 33
        4.00000
999
GYM_ZN_1_FLR_1:GYM_ZN_1_FLR_1_CEILING_SKYLIGHT_1
  0
3DFACE
  8
GYM_ZN_1_FLR_1
 62
143
 10
       21.89040
 20
       23.22370
 30
        4.00000
 11
       23.10960
 21
       23.22370
 31
        4.00000
 12
       23.10960
 22
       24.44290
 32
        4.00000
 13
       21.89040
 23
       24.44290
 33
        4.00000
999
GYM_ZN_1_FLR_1:GYM_ZN_1_FLR_1_CEILING_SKYLIGHT_2
  0
3DFACE
  8
GYM_ZN_1_FLR_1
 62
143
 10
       28.89040
 20
       23.22370
 30
        4.00000
 11
       30.10960
 21
       23.22370
 31
        4.00000
 12
       30.10960
 22
       24.44290
 32
        4.00000
 13
       28.89040
 23
       24.44290
 33
        4.00000
999
GYM_ZN_1_FLR_1:GYM_ZN_1_FLR_1_CEILING_SKYLIGHT_3
  0
3DFACE
  8
GYM_ZN_1_FLR_1
 62
143
 10
       35.89040
 20
       23.22370
 30
        4.00000
 11
       37.10960
 21
       23.22370
 31
        4.00000
 12
       37.10960
 22
       24.44290
 32
        4.00000
 13
       35.89040
 23
       24.44290
 33
        4.00000
999
GYM_ZN_1_FLR_1:GYM_ZN_1_FLR_1_CEILING_SKYLIGHT_4
  0
3DFACE
  8
GYM_ZN_1_FLR_1
 62
143
 10
       21.89040
 20
       28.89040
 30
        4.00000
 11
       23.10960
 21
       28.89040
 31
        4.00000
 12
       23.10960
 22
       30.10960
 32
        4.00000
 13
       21.89040
 23
       30.10960
 33
        4.00000
999
GYM_ZN_1_FLR_1:GYM_ZN_1_FLR_1_CEILING_SKYLIGHT_5
  0
3DFACE
  8
GYM_ZN_1_FLR_1
 62
143
 10
       28.89040
 20
       28.89040
 30
        4.00000
 11
       30.10960
 21
       28.89040
 31
        4.00000
 12
       30.10960
 22
       30.10960
 32
        4.00000
 13
       28.89040
 23
       30.10960
 33
        4.00000
999
GYM_ZN_1_FLR_1:GYM_ZN_1_FLR_1_CEILING_SKYLIGHT_6
  0
3DFACE
  8
GYM_ZN_1_FLR_1
 62
143
 10
       35.89040
 20
       28.89040
 30
        4.00000
 11
       37.10960
 21
       28.89040
 31
        4.00000
 12
       37.10960
 22
       30.10960
 32
        4.00000
 13
       35.89040
 23
       30.10960
 33
        4.00000
999
GYM_ZN_1_FLR_1:GYM_ZN_1_FLR_1_CEILING_SKYLIGHT_7
  0
3DFACE
  8
GYM_ZN_1_FLR_1
 62
143
 10
       21.89040
 20
       34.55710
 30
        4.00000
 11
       23.10960
 21
       34.55710
 31
        4.00000
 12
       23.10960
 22
       35.77630
 32
        4.00000
 13
       21.89040
 23
       35.77630
 33
        4.00000
999
GYM_ZN_1_FLR_1:GYM_ZN_1_FLR_1_CEILING_SKYLIGHT_8
  0
3DFACE
  8
GYM_ZN_1_FLR_1
 62
143
 10
       28.89040
 20
       34.55710
 30
        4.00000
 11
       30.10960
 21
       34.55710
 31
        4.00000
 12
       30.10960
 22
       35.77630
 32
        4.00000
 13
       28.89040
 23
       35.77630
 33
        4.00000
999
GYM_ZN_1_FLR_1:GYM_ZN_1_FLR_1_CEILING_SKYLIGHT_9
  0
3DFACE
  8
GYM_ZN_1_FLR_1
 62
143
 10
       35.89040
 20
       34.55710
 30
        4.00000
 11
       37.10960
 21
       34.55710
 31
        4.00000
 12
       37.10960
 22
       35.77630
 32
        4.00000
 13
       35.89040
 23
       35.77630
 33
        4.00000
999
KITCHEN_ZN_1_FLR_1:KITCHEN_ZN_1_FLR_1_WALL_1
  0
3DFACE
  8
KITCHEN_ZN_1_FLR_1
 62
 43
 10
       19.00000
 20
       38.00000
 30
        4.00000
 11
       19.00000
 21
       38.00000
 31
        0.00000
 12
       40.00000
 22
       38.00000
 32
        0.00000
 13
       40.00000
 23
       38.00000
 33
        4.00000
999
KITCHEN_ZN_1_FLR_1:KITCHEN_ZN_1_FLR_1_WALL_2
  0
3DFACE
  8
KITCHEN_ZN_1_FLR_1
 62
 43
 10
       40.00000
 20
       38.00000
 30
        4.00000
 11
       40.00000
 21
       38.00000
 31
        0.00000
 12
       40.00000
 22
       46.00000
 32
        0.00000
 13
       40.00000
 23
       46.00000
 33
        4.00000
999
KITCHEN_ZN_1_FLR_1:KITCHEN_ZN_1_FLR_1_WALL_2_WINDOW_1
  0
3DFACE
  8
KITCHEN_ZN_1_FLR_1
 62
143
 10
       40.00000
 20
       38.05000
 30
        2.51771
 11
       40.00000
 21
       38.05000
 31
        1.10000
 12
       40.00000
 22
       45.95000
 32
        1.10000
 13
       40.00000
 23
       45.95000
 33
        2.51771
999
KITCHEN_ZN_1_FLR_1:KITCHEN_ZN_1_FLR_1_WALL_3
  0
3DFACE
  8
KITCHEN_ZN_1_FLR_1
 62
 43
 10
       40.00000
 20
       46.00000
 30
        4.00000
 11
       40.00000
 21
       46.00000
 31
        0.00000
 12
       19.00000
 22
       46.00000
 32
        0.00000
 13
       19.00000
 23
       46.00000
 33
        4.00000
999
KITCHEN_ZN_1_FLR_1:KITCHEN_ZN_1_FLR_1_WALL_4
  0
3DFACE
  8
KITCHEN_ZN_1_FLR_1
 62
 43
 10
       19.00000
 20
       46.00000
 30
        4.00000
 11
       19.00000
 21
       46.00000
 31
        0.00000
 12
       19.00000
 22
       38.00000
 32
        0.00000
 13
       19.00000
 23
       38.00000
 33
        4.00000
999
KITCHEN_ZN_1_FLR_1:KITCHEN_ZN_1_FLR_1_FLOOR
  0
3DFACE
  8
KITCHEN_ZN_1_FLR_1
 62
  8
 10
       19.00000
 20
       46.00000
 30
        0.00000
 11
       40.00000
 21
       46.00000
 31
        0.00000
 12
       40.00000
 22
       38.00000
 32
        0.00000
 13
       19.00000
 23
       38.00000
 33
        0.00000
999
KITCHEN_ZN_1_FLR_1:KITCHEN_ZN_1_FLR_1_CEILING
  0
3DFACE
  8
KITCHEN_ZN_1_FLR_1
 62
 15
 10
       19.00000
 20
       38.00000
 30
        4.00000
 11
       40.00000
 21
       38.00000
 31
        4.00000
 12
       40.00000
 22
       46.00000
 32
        4.00000
 13
       19.00000
 23
       46.00000
 33
        4.00000
999
CAFETERIA_ZN_1_FLR_1:CAFETERIA_ZN_1_FLR_1_WALL_1
  0
3DFACE
  8
CAFETERIA_ZN_1_FLR_1
 62
 43
 10
       19.00000
 20
       46.00000
 30
        4.00000
 11
       19.00000
 21
       46.00000
 31
        0.00000
 12
       40.00000
 22
       46.00000
 32
        0.00000
 13
       40.00000
 23
       46.00000
 33
        4.00000
999
CAFETERIA_ZN_1_FLR_1:CAFETERIA_ZN_1_FLR_1_WALL_2
  0
3DFACE
  8
CAFETERIA_ZN_1_FLR_1
 62
 43
 10
       40.00000
 20
       46.00000
 30
        4.00000
 11
       40.00000
 21
       46.00000
 31
        0.00000
 12
       40.00000
 22
       61.00000
 32
        0.00000
 13
       40.00000
 23
       61.00000
 33
        4.00000
999
CAFETERIA_ZN_1_FLR_1:CAFETERIA_ZN_1_FLR_1_WALL_2_WINDOW1
  0
3DFACE
  8
CAFETERIA_ZN_1_FLR_1
 62
143
 10
       40.00000
 20
       46.05000
 30
        2.50938
 11
       40.00000
 21
       46.05000
 31
        0.97440
 12
       40.00000
 22
       47.26920
 32
        0.97440
 13
       40.00000
 23
       47.26920
 33
        2.50938
999
CAFETERIA_ZN_1_FLR_1:CAFETERIA_ZN_1_FLR_1_WALL_2_WINDOW2
  0
3DFACE
  8
CAFETERIA_ZN_1_FLR_1
 62
143
 10
       40.00000
 20
       48.48840
 30
        2.50938
 11
       40.00000
 21
       48.48840
 31
        0.97440
 12
       40.00000
 22
       60.95000
 32
        0.97440
 13
       40.00000
 23
       60.95000
 33
        2.50938
999
CAFETERIA_ZN_1_FLR_1:CAFETERIA_ZN_1_FLR_1_WALL_2_DOOR
  0
3DFACE
  8
CAFETERIA_ZN_1_FLR_1
 62
 45
 10
       40.00000
 20
       47.45252
 30
        2.13360
 11
       40.00000
 21
       47.45252
 31
        0.00000
 12
       40.00000
 22
       48.36692
 32
        0.00000
 13
       40.00000
 23
       48.36692
 33
        2.13360
999
CAFETERIA_ZN_1_FLR_1:CAFETERIA_ZN_1_FLR_1_WALL_3
  0
3DFACE
  8
CAFETERIA_ZN_1_FLR_1
 62
 43
 10
       40.00000
 20
       61.00000
 30
        4.00000
 11
       40.00000
 21
       61.00000
 31
        0.00000
 12
       19.00000
 22
       61.00000
 32
        0.00000
 13
       19.00000
 23
       61.00000
 33
        4.00000
999
CAFETERIA_ZN_1_FLR_1:CAFETERIA_ZN_1_FLR_1_WALL_3_WINDOW_1
  0
3DFACE
  8
CAFETERIA_ZN_1_FLR_1
 62
143
 10
       39.95000
 20
       61.00000
 30
        2.50669
 11
       39.95000
 21
       61.00000
 31
        1.10000
 12
       19.05000
 22
       61.00000
 32
        1.10000
 13
       19.05000
 23
       61.00000
 33
        2.50669
999
CAFETERIA_ZN_1_FLR_1:CAFETERIA_ZN_1_FLR_1_WALL_4
  0
3DFACE
  8
CAFETERIA_ZN_1_FLR_1
 62
 43
 10
       19.00000
 20
       61.00000
 30
        4.00000
 11
       19.00000
 21
       61.00000
 31
        0.00000
 12
       19.00000
 22
       51.00000
 32
        0.00000
 13
       19.00000
 23
       51.00000
 33
        4.00000
999
CAFETERIA_ZN_1_FLR_1:CAFETERIA_ZN_1_FLR_1_WALL_5
  0
3DFACE
  8
CAFETERIA_ZN_1_FLR_1
 62
 43
 10
       19.00000
 20
       51.00000
 30
        4.00000
 11
       19.00000
 21
       51.00000
 31
        0.00000
 12
       19.00000
 22
       46.00000
 32
        0.00000
 13
       19.00000
 23
       46.00000
 33
        4.00000
999
CAFETERIA_ZN_1_FLR_1:CAFETERIA_ZN_1_FLR_1_FLOOR
  0
3DFACE
  8
CAFETERIA_ZN_1_FLR_1
 62
  8
 10
       19.00000
 20
       61.00000
 30
        0.00000
 11
       40.00000
 21
       61.00000
 31
        0.00000
 12
       40.00000
 22
       46.00000
 32
        0.00000
 13
       19.00000
 23
       46.00000
 33
        0.00000
999
CAFETERIA_ZN_1_FLR_1:CAFETERIA_ZN_1_FLR_1_CEILING
  0
3DFACE
  8
CAFETERIA_ZN_1_FLR_1
 62
 15
 10
       19.00000
 20
       46.00000
 30
        4.00000
 11
       40.00000
 21
       46.00000
 31
        4.00000
 12
       40.00000
 22
       61.00000
 32
        4.00000
 13
       19.00000
 23
       61.00000
 33
        4.00000
999
LIBRARY_MEDIA_CENTER_ZN_1_FLR_1:LIBRARY_MEDIA_CENTER_ZN_1_FLR_1_WALL_1
  0
3DFACE
  8
LIBRARY_MEDIA_CENTER_ZN_1_FLR_1
 62
 43
 10
        0.00000
 20
       61.00000
 30
        4.00000
 11
        0.00000
 21
       61.00000
 31
        0.00000
 12
       19.00000
 22
       61.00000
 32
        0.00000
 13
       19.00000
 23
       61.00000
 33
        4.00000
999
LIBRARY_MEDIA_CENTER_ZN_1_FLR_1:LIBRARY_MEDIA_CENTER_ZN_1_FLR_1_WALL_2
  0
3DFACE
  8
LIBRARY_MEDIA_CENTER_ZN_1_FLR_1
 62
 43
 10
       19.00000
 20
       61.00000
 30
        4.00000
 11
       19.00000
 21
       61.00000
 31
        0.00000
 12
       19.00000
 22
       82.00000
 32
        0.00000
 13
       19.00000
 23
       82.00000
 33
        4.00000
999
LIBRARY_MEDIA_CENTER_ZN_1_FLR_1:LIBRARY_MEDIA_CENTER_ZN_1_FLR_1_WALL_2_WINDOW1
  0
3DFACE
  8
LIBRARY_MEDIA_CENTER_ZN_1_FLR_1
 62
143
 10
       19.00000
 20
       61.05000
 30
        2.50669
 11
       19.00000
 21
       61.05000
 31
        1.01308
 12
       19.00000
 22
       62.26920
 32
        1.01308
 13
       19.00000
 23
       62.26920
 33
        2.50669
999
LIBRARY_MEDIA_CENTER_ZN_1_FLR_1:LIBRARY_MEDIA_CENTER_ZN_1_FLR_1_WALL_2_WINDOW2
  0
3DFACE
  8
LIBRARY_MEDIA_CENTER_ZN_1_FLR_1
 62
143
 10
       19.00000
 20
       63.48840
 30
        2.50669
 11
       19.00000
 21
       63.48840
 31
        1.01308
 12
       19.00000
 22
       81.95000
 32
        1.01308
 13
       19.00000
 23
       81.95000
 33
        2.50669
999
LIBRARY_MEDIA_CENTER_ZN_1_FLR_1:LIBRARY_MEDIA_CENTER_ZN_1_FLR_1_WALL_2_DOOR
  0
3DFACE
  8
LIBRARY_MEDIA_CENTER_ZN_1_FLR_1
 62
 45
 10
       19.00000
 20
       62.39513
 30
        2.13360
 11
       19.00000
 21
       62.39513
 31
        0.00000
 12
       19.00000
 22
       63.30953
 32
        0.00000
 13
       19.00000
 23
       63.30953
 33
        2.13360
999
LIBRARY_MEDIA_CENTER_ZN_1_FLR_1:LIBRARY_MEDIA_CENTER_ZN_1_FLR_1_WALL_3
  0
3DFACE
  8
LIBRARY_MEDIA_CENTER_ZN_1_FLR_1
 62
 43
 10
       19.00000
 20
       82.00000
 30
        4.00000
 11
       19.00000
 21
       82.00000
 31
        0.00000
 12
        0.00000
 22
       82.00000
 32
        0.00000
 13
        0.00000
 23
       82.00000
 33
        4.00000
999
LIBRARY_MEDIA_CENTER_ZN_1_FLR_1:LIBRARY_MEDIA_CENTER_ZN_1_FLR_1_WALL_3_WINDOW_1
  0
3DFACE
  8
LIBRARY_MEDIA_CENTER_ZN_1_FLR_1
 62
143
 10
       18.95000
 20
       82.00000
 30
        2.50742
 11
       18.95000
 21
       82.00000
 31
        1.10000
 12
        0.05000
 22
       82.00000
 32
        1.10000
 13
        0.05000
 23
       82.00000
 33
        2.50742
999
LIBRARY_MEDIA_CENTER_ZN_1_FLR_1:LIBRARY_MEDIA_CENTER_ZN_1_FLR_1_WALL_4
  0
3DFACE
  8
LIBRARY_MEDIA_CENTER_ZN_1_FLR_1
 62
 43
 10
        0.00000
 20
       82.00000
 30
        4.00000
 11
        0.00000
 21
       82.00000
 31
        0.00000
 12
        0.00000
 22
       73.00000
 32
        0.00000
 13
        0.00000
 23
       73.00000
 33
        4.00000
999
LIBRARY_MEDIA_CENTER_ZN_1_FLR_1:LIBRARY_MEDIA_CENTER_ZN_1_FLR_1_WALL_5
  0
3DFACE
  8
LIBRARY_MEDIA_CENTER_ZN_1_FLR_1
 62
 43
 10
        0.00000
 20
       73.00000
 30
        4.00000
 11
        0.00000
 21
       73.00000
 31
        0.00000
 12
        0.00000
 22
       70.00000
 32
        0.00000
 13
        0.00000
 23
       70.00000
 33
        4.00000
999
LIBRARY_MEDIA_CENTER_ZN_1_FLR_1:LIBRARY_MEDIA_CENTER_ZN_1_FLR_1_WALL_6
  0
3DFACE
  8
LIBRARY_MEDIA_CENTER_ZN_1_FLR_1
 62
 43
 10
        0.00000
 20
       70.00000
 30
        4.00000
 11
        0.00000
 21
       70.00000
 31
        0.00000
 12
        0.00000
 22
       61.00000
 32
        0.00000
 13
        0.00000
 23
       61.00000
 33
        4.00000
999
LIBRARY_MEDIA_CENTER_ZN_1_FLR_1:LIBRARY_MEDIA_CENTER_ZN_1_FLR_1_FLOOR
  0
3DFACE
  8
LIBRARY_MEDIA_CENTER_ZN_1_FLR_1
 62
  8
 10
        0.00000
 20
       82.00000
 30
        0.00000
 11
       19.00000
 21
       82.00000
 31
        0.00000
 12
       19.00000
 22
       61.00000
 32
        0.00000
 13
        0.00000
 23
       61.00000
 33
        0.00000
999
LIBRARY_MEDIA_CENTER_ZN_1_FLR_1:LIBRARY_MEDIA_CENTER_ZN_1_FLR_1_CEILING
  0
3DFACE
  8
LIBRARY_MEDIA_CENTER_ZN_1_FLR_1
 62
 15
 10
        0.00000
 20
       61.00000
 30
        4.00000
 11
       19.00000
 21
       61.00000
 31
        4.00000
 12
       19.00000
 22
       82.00000
 32
        4.00000
 13
        0.00000
 23
       82.00000
 33
        4.00000
999
GYM_ZN_1_FLR_1:DayRefPt:GYM_ZN_1_FLR_1_DAYLREFPT1
  0
CIRCLE
  8
GYM_ZN_1_FLR_1
 62
 10
 10
       38.35480
 20
       26.48640
 30
        0.76200
 40
        0.20000
999
GYM_ZN_1_FLR_1:DayRefPt:GYM_ZN_1_FLR_1_DAYLREFPT2
  0
CIRCLE
  8
GYM_ZN_1_FLR_1
 62
  5
 10
       25.70560
 20
       26.48640
 30
        0.76200
 40
        0.20000
999
CORNER_CLASS_1_POD_1_ZN_1_FLR_1:DayRefPt:CORNER_CLASS_1_POD_1_ZN_1_FLR_1_DAYLREFPT1
  0
CIRCLE
  8
CORNER_CLASS_1_POD_1_ZN_1_FLR_1
 62
 10
 10
      -56.38020
 20
        3.37110
 30
        0.76200
 40
        0.20000
999
CORNER_CLASS_1_POD_1_ZN_1_FLR_1:DayRefPt:CORNER_CLASS_1_POD_1_ZN_1_FLR_1_DAYLREFPT2
  0
CIRCLE
  8
CORNER_CLASS_1_POD_1_ZN_1_FLR_1
 62
  5
 10
      -60.62890
 20
        6.03130
 30
        0.76200
 40
        0.20000
999
MULT_CLASS_1_POD_1_ZN_1_FLR_1:DayRefPt:MULT_CLASS_1_POD_1_ZN_1_FLR_1_DAYLREFPT1
  0
CIRCLE
  8
MULT_CLASS_1_POD_1_ZN_1_FLR_1
 62
 10
 10
      -26.50000
 20
        1.67640
 30
        0.76200
 40
        0.20000
999
MULT_CLASS_1_POD_1_ZN_1_FLR_1:DayRefPt:MULT_CLASS_1_POD_1_ZN_1_FLR_1_DAYLREFPT2
  0
CIRCLE
  8
MULT_CLASS_1_POD_1_ZN_1_FLR_1
 62
  5
 10
      -26.50000
 20
        3.35280
 30
        0.76200
 40
        0.20000
999
CORNER_CLASS_2_POD_1_ZN_1_FLR_1:DayRefPt:CORNER_CLASS_2_POD_1_ZN_1_FLR_1_DAYLREFPT1
  0
CIRCLE
  8
CORNER_CLASS_2_POD_1_ZN_1_FLR_1
 62
 10
 10
      -56.62710
 20
       17.62890
 30
        0.76200
 40
        0.20000
999
CORNER_CLASS_2_POD_1_ZN_1_FLR_1:DayRefPt:CORNER_CLASS_2_POD_1_ZN_1_FLR_1_DAYLREFPT2
  0
CIRCLE
  8
CORNER_CLASS_2_POD_1_ZN_1_FLR_1
 62
  5
 10
      -60.62890
 20
       14.96880
 30
        0.76200
 40
        0.20000
999
MULT_CLASS_2_POD_1_ZN_1_FLR_1:DayRefPt:MULT_CLASS_2_POD_1_ZN_1_FLR_1_DAYLREFPT1
  0
CIRCLE
  8
MULT_CLASS_2_POD_1_ZN_1_FLR_1
 62
 10
 10
      -26.50000
 20
       19.32360
 30
        0.76200
 40
        0.20000
999
MULT_CLASS_2_POD_1_ZN_1_FLR_1:DayRefPt:MULT_CLASS_2_POD_1_ZN_1_FLR_1_DAYLREFPT2
  0
CIRCLE
  8
MULT_CLASS_2_POD_1_ZN_1_FLR_1
 62
  5
 10
      -26.50000
 20
       17.64720
 30
        0.76200
 40
        0.20000
999
CORNER_CLASS_1_POD_2_ZN_1_FLR_1:DayRefPt:CORNER_CLASS_1_POD_2_ZN_1_FLR_1_DAYLREFPT1
  0
CIRCLE
  8
CORNER_CLASS_1_POD_2_ZN_1_FLR_1
 62
 10
 10
      -56.38020
 20
       33.37110
 30
        0.76200
 40
        0.20000
999
CORNER_CLASS_1_POD_2_ZN_1_FLR_1:DayRefPt:CORNER_CLASS_1_POD_2_ZN_1_FLR_1_DAYLREFPT2
  0
CIRCLE
  8
CORNER_CLASS_1_POD_2_ZN_1_FLR_1
 62
  5
 10
      -60.62890
 20
       36.03130
 30
        0.76200
 40
        0.20000
999
MULT_CLASS_1_POD_2_ZN_1_FLR_1:DayRefPt:MULT_CLASS_1_POD_2_ZN_1_FLR_1_DAYLREFPT1
  0
CIRCLE
  8
MULT_CLASS_1_POD_2_ZN_1_FLR_1
 62
 10
 10
      -26.50000
 20
       31.67640
 30
        0.75970
 40
        0.20000
999
MULT_CLASS_1_POD_2_ZN_1_FLR_1:DayRefPt:MULT_CLASS_1_POD_2_ZN_1_FLR_1_DAYLREFPT2
  0
CIRCLE
  8
MULT_CLASS_1_POD_2_ZN_1_FLR_1
 62
  5
 10
      -26.50000
 20
       33.35280
 30
        0.76200
 40
        0.20000
999
CORNER_CLASS_2_POD_2_ZN_1_FLR_1:DayRefPt:CORNER_CLASS_2_POD_2_ZN_1_FLR_1_DAYLREFPT1
  0
CIRCLE
  8
CORNER_CLASS_2_POD_2_ZN_1_FLR_1
 62
 10
 10
      -56.62710
 20
       47.62890
 30
        0.76200
 40
        0.20000
999
CORNER_CLASS_2_POD_2_ZN_1_FLR_1:DayRefPt:CORNER_CLASS_2_POD_2_ZN_1_FLR_1_DAYLREFPT2
  0
CIRCLE
  8
CORNER_CLASS_2_POD_2_ZN_1_FLR_1
 62
  5
 10
      -60.62890
 20
       44.96880
 30
        0.76200
 40
        0.20000
999
MULT_CLASS_2_POD_2_ZN_1_FLR_1:DayRefPt:MULT_CLASS_2_POD_2_ZN_1_FLR_1_DAYLREFPT1
  0
CIRCLE
  8
MULT_CLASS_2_POD_2_ZN_1_FLR_1
 62
 10
 10
      -26.50070
 20
       49.32360
 30
        0.76200
 40
        0.20000
999
MULT_CLASS_2_POD_2_ZN_1_FLR_1:DayRefPt:MULT_CLASS_2_POD_2_ZN_1_FLR_1_DAYLREFPT2
  0
CIRCLE
  8
MULT_CLASS_2_POD_2_ZN_1_FLR_1
 62
  5
 10
      -26.50070
 20
       47.64490
 30
        0.76200
 40
        0.20000
999
CORNER_CLASS_1_POD_3_ZN_1_FLR_1:DayRefPt:CORNER_CLASS_1_POD_3_ZN_1_FLR_1_DAYLREFPT1
  0
CIRCLE
  8
CORNER_CLASS_1_POD_3_ZN_1_FLR_1
 62
 10
 10
      -56.38020
 20
       64.37110
 30
        0.76200
 40
        0.20000
999
CORNER_CLASS_1_POD_3_ZN_1_FLR_1:DayRefPt:CORNER_CLASS_1_POD_3_ZN_1_FLR_1_DAYLREFPT2
  0
CIRCLE
  8
CORNER_CLASS_1_POD_3_ZN_1_FLR_1
 62
  5
 10
      -60.62890
 20
       67.03130
 30
        0.76200
 40
        0.20000
999
MULT_CLASS_1_POD_3_ZN_1_FLR_1:DayRefPt:MULT_CLASS_1_POD_3_ZN_1_FLR_1_DAYLREFPT1
  0
CIRCLE
  8
MULT_CLASS_1_POD_3_ZN_1_FLR_1
 62
 10
 10
      -26.50070
 20
       62.67640
 30
        0.76200
 40
        0.20000
999
MULT_CLASS_1_POD_3_ZN_1_FLR_1:DayRefPt:MULT_CLASS_1_POD_3_ZN_1_FLR_1_DAYLREFPT2
  0
CIRCLE
  8
MULT_CLASS_1_POD_3_ZN_1_FLR_1
 62
  5
 10
      -26.50070
 20
       64.35280
 30
        0.76200
 40
        0.20000
999
CORNER_CLASS_2_POD_3_ZN_1_FLR_1:DayRefPt:CORNER_CLASS_2_POD_3_ZN_1_FLR_1_DAYLREFPT1
  0
CIRCLE
  8
CORNER_CLASS_2_POD_3_ZN_1_FLR_1
 62
 10
 10
      -56.62710
 20
       78.62890
 30
        0.76200
 40
        0.20000
999
CORNER_CLASS_2_POD_3_ZN_1_FLR_1:DayRefPt:CORNER_CLASS_2_POD_3_ZN_1_FLR_1_DAYLREFPT2
  0
CIRCLE
  8
CORNER_CLASS_2_POD_3_ZN_1_FLR_1
 62
  5
 10
      -60.62890
 20
       75.96880
 30
        0.76200
 40
        0.20000
999
MULT_CLASS_2_POD_3_ZN_1_FLR_1:DayRefPt:MULT_CLASS_2_POD_3_ZN_1_FLR_1_DAYLREFPT1
  0
CIRCLE
  8
MULT_CLASS_2_POD_3_ZN_1_FLR_1
 62
 10
 10
      -35.50000
 20
       80.32360
 30
        0.76200
 40
        0.20000
999
MULT_CLASS_2_POD_3_ZN_1_FLR_1:DayRefPt:MULT_CLASS_2_POD_3_ZN_1_FLR_1_DAYLREFPT2
  0
CIRCLE
  8
MULT_CLASS_2_POD_3_ZN_1_FLR_1
 62
  5
 10
      -35.50000
 20
       78.64490
 30
        0.76200
 40
        0.20000
999
COMPUTER_CLASS_ZN_1_FLR_1:DayRefPt:COMPUTER_CLASS_ZN_1_FLR_1_DAYLREFPT1
  0
CIRCLE
  8
COMPUTER_CLASS_ZN_1_FLR_1
 62
 10
 10
       -9.00000
 20
       80.32360
 30
        0.76200
 40
        0.20000
999
COMPUTER_CLASS_ZN_1_FLR_1:DayRefPt:COMPUTER_CLASS_ZN_1_FLR_1_DAYLREFPT2
  0
CIRCLE
  8
COMPUTER_CLASS_ZN_1_FLR_1
 62
  5
 10
       -9.00000
 20
       78.64490
 30
        0.76200
 40
        0.20000
999
LOBBY_ZN_1_FLR_1:DayRefPt:LOBBY_ZN_1_FLR_1_DAYLREFPT1
  0
CIRCLE
  8
LOBBY_ZN_1_FLR_1
 62
 10
 10
        9.50000
 20
        1.67640
 30
        0.76200
 40
        0.20000
999
LOBBY_ZN_1_FLR_1:DayRefPt:LOBBY_ZN_1_FLR_1_DAYLREFPT2
  0
CIRCLE
  8
LOBBY_ZN_1_FLR_1
 62
  5
 10
        9.50000
 20
        3.35280
 30
        0.76200
 40
        0.20000
999
OFFICES_ZN_1_FLR_1:DayRefPt:OFFICES_ZN_1_FLR_1_DAYLREFPT1
  0
CIRCLE
  8
OFFICES_ZN_1_FLR_1
 62
 10
 10
       29.50000
 20
        3.35280
 30
        0.76200
 40
        0.20000
999
OFFICES_ZN_1_FLR_1:DayRefPt:OFFICES_ZN_1_FLR_1_DAYLREFPT2
  0
CIRCLE
  8
OFFICES_ZN_1_FLR_1
 62
  5
 10
       36.64720
 20
       10.50000
 30
        0.76200
 40
        0.20000
999
CAFETERIA_ZN_1_FLR_1:DayRefPt:CAFETERIA_ZN_1_FLR_1_DAYLREFPT1
  0
CIRCLE
  8
CAFETERIA_ZN_1_FLR_1
 62
 10
 10
       29.50000
 20
       57.64720
 30
        0.76200
 40
        0.20000
999
CAFETERIA_ZN_1_FLR_1:DayRefPt:CAFETERIA_ZN_1_FLR_1_DAYLREFPT2
  0
CIRCLE
  8
CAFETERIA_ZN_1_FLR_1
 62
  5
 10
       36.64720
 20
       53.50000
 30
        0.76200
 40
        0.20000
999
LIBRARY_MEDIA_CENTER_ZN_1_FLR_1:DayRefPt:LIBRARY_MEDIA_CENTER_ZN_1_FLR_1_DAYLREFPT1
  0
CIRCLE
  8
LIBRARY_MEDIA_CENTER_ZN_1_FLR_1
 62
 10
 10
       15.64110
 20
       71.50000
 30
        0.76200
 40
        0.20000
999
LIBRARY_MEDIA_CENTER_ZN_1_FLR_1:DayRefPt:LIBRARY_MEDIA_CENTER_ZN_1_FLR_1_DAYLREFPT2
  0
CIRCLE
  8
LIBRARY_MEDIA_CENTER_ZN_1_FLR_1
 62
  5
 10
        9.50000
 20
       78.64110
 30
        0.76200
 40
        0.20000
  0
ENDSEC
  0
EOF
