  0
SECTION
  2
ENTITIES
999
DXF created from EnergyPlus
999
Program Version,EnergyPlus, Version 22.1.0-ed759b17ee, YMD=2026.07.28 21:50
999
Polygon Action,ThickPolyline
999
Color Scheme,Default
999
Text - True North
  0
TEXT
  8
1
  6
Continuous
 62
  3
 10
      -11.00000
 20
        3.00000
 30
        0.10000
 40
 .25
  1
True North
 41
 0.0
  7
MONOTXT
210
0.0
220
0.0
230
1.0
999
Text - Building Title
  0
TEXT
  8
1
  6
Continuous
 62
  3
 10
      -14.00000
 20
       -1.00000
 30
        0.10000
 40
 .4
  1
Building - RestaurantFastFood
 41
 0.0
  7
MONOTXT
210
0.0
220
0.0
230
1.0
999
North Arrow Stem
  0
3DFACE
  8
1
 62
  3
 10
      -10.00000
 20
        3.00000
 30
        0.10000
 11
      -10.00000
 21
        3.00000
 31
        0.00000
 12
      -10.00000
 22
        0.00000
 32
        0.00000
 13
      -10.00000
 23
        0.00000
 33
        0.10000
999
North Arrow Head 1
  0
3DFACE
  8
1
 62
  3
 10
      -10.00000
 20
        3.00000
 30
        0.10000
 11
      -10.00000
 21
        3.00000
 31
        0.00000
 12
      -10.50000
 22
        2.13397
 32
        0.00000
 13
      -10.50000
 23
        2.13397
 33
        0.10000
999
North Arrow Head 2
  0
3DFACE
  8
1
 62
  3
 10
      -10.00000
 20
        3.00000
 30
        0.10000
 11
      -10.00000
 21
        3.00000
 31
        0.00000
 12
       -9.50000
 22
        2.13397
 32
        0.00000
 13
       -9.50000
 23
        2.13397
 33
        0.10000
999
North Arrow Side 1
  0
3DFACE
  8
1
 62
  3
 10
      -10.50000
 20
        4.50000
 30
        0.10000
 11
      -10.50000
 21
        4.50000
 31
        0.00000
 12
      -10.50000
 22
        3.50000
 32
        0.00000
 13
      -10.50000
 23
        3.50000
 33
        0.10000
999
North Arrow Side 2
  0
3DFACE
  8
1
 62
  3
 10
      -10.50000
 20
        4.50000
 30
        0.10000
 11
      -10.50000
 21
        4.50000
 31
        0.00000
 12
       -9.50000
 22
        3.50000
 32
        0.00000
 13
       -9.50000
 23
        3.50000
 33
        0.10000
999
North Arrow Side 3
  0
3DFACE
  8
1
 62
  3
 10
       -9.50000
 20
        4.50000
 30
        0.10000
 11
       -9.50000
 21
        4.50000
 31
        0.00000
 12
       -9.50000
 22
        3.50000
 32
        0.00000
 13
       -9.50000
 23
        3.50000
 33
        0.10000
999
Zone Names
999
Zone=1:DINING
999
Zone=2:KITCHEN
999
Zone=3:ATTIC
999
DINING:DINING_WALL_EAST
  0
3DFACE
  8
DINING
 62
 43
 10
       15.24280
 20
        0.00000
 30
        3.04880
 11
       15.24280
 21
        0.00000
 31
        0.00000
 12
       15.24280
 22
        7.62140
 32
        0.00000
 13
       15.24280
 23
        7.62140
 33
        3.04880
999
DINING:DINING_WALL_EAST_WINDOW
  0
3DFACE
  8
DINING
 62
143
 10
       15.24300
 20
        0.25400
 30
        2.50000
 11
       15.24300
 21
        0.25400
 31
        1.58559
 12
       15.24300
 22
        7.36730
 32
        1.58559
 13
       15.24300
 23
        7.36730
 33
        2.50000
999
DINING:DINING_WALL_SOUTH
  0
3DFACE
  8
DINING
 62
 43
 10
        0.00000
 20
        0.00000
 30
        3.04880
 11
        0.00000
 21
        0.00000
 31
        0.00000
 12
       15.24280
 22
        0.00000
 32
        0.00000
 13
       15.24280
 23
        0.00000
 33
        3.04880
999
DINING:DINING_WALL_SOUTH_WINDOW
  0
3DFACE
  8
DINING
 62
143
 10
        0.50800
 20
        0.00000
 30
        2.50000
 11
        0.50800
 21
        0.00000
 31
        1.58559
 12
       14.73500
 22
        0.00000
 32
        1.58559
 13
       14.73500
 23
        0.00000
 33
        2.50000
999
DINING:DINING_WALL_WEST
  0
3DFACE
  8
DINING
 62
 43
 10
        0.00000
 20
        7.62140
 30
        3.04880
 11
        0.00000
 21
        7.62140
 31
        0.00000
 12
        0.00000
 22
        0.00000
 32
        0.00000
 13
        0.00000
 23
        0.00000
 33
        3.04880
999
DINING:DINING_WALL_WEST_WINDOW
  0
3DFACE
  8
DINING
 62
143
 10
        0.00000
 20
        7.36730
 30
        2.50000
 11
        0.00000
 21
        7.36730
 31
        1.58559
 12
        0.00000
 22
        0.25400
 32
        1.58559
 13
        0.00000
 23
        0.25400
 33
        2.50000
999
DINING:DINING_WALL_NORTH
  0
3DFACE
  8
DINING
 62
 43
 10
       15.24280
 20
        7.62140
 30
        3.04880
 11
       15.24280
 21
        7.62140
 31
        0.00000
 12
        0.00000
 22
        7.62140
 32
        0.00000
 13
        0.00000
 23
        7.62140
 33
        3.04880
999
DINING:DINING_FLOOR
  0
3DFACE
  8
DINING
 62
  8
 10
       15.24280
 20
        7.62140
 30
        0.00000
 11
       15.24280
 21
        0.00000
 31
        0.00000
 12
        0.00000
 22
        0.00000
 32
        0.00000
 13
        0.00000
 23
        7.62140
 33
        0.00000
999
DINING:DINING_CEILING
  0
3DFACE
  8
DINING
 62
 15
 10
        0.00000
 20
        7.62140
 30
        3.04880
 11
        0.00000
 21
        0.00000
 31
        3.04880
 12
       15.24280
 22
        0.00000
 32
        3.04880
 13
       15.24280
 23
        7.62140
 33
        3.04880
999
KITCHEN:KITCHEN_WALL_NORTH
  0
3DFACE
  8
KITCHEN
 62
 43
 10
       15.24280
 20
       15.24280
 30
        3.04880
 11
       15.24280
 21
       15.24280
 31
        0.00000
 12
        0.00000
 22
       15.24280
 32
        0.00000
 13
        0.00000
 23
       15.24280
 33
        3.04880
999
KITCHEN:KITCHEN_WALL_EAST
  0
3DFACE
  8
KITCHEN
 62
 43
 10
       15.24280
 20
        7.62140
 30
        3.04880
 11
       15.24280
 21
        7.62140
 31
        0.00000
 12
       15.24280
 22
       15.24280
 32
        0.00000
 13
       15.24280
 23
       15.24280
 33
        3.04880
999
KITCHEN:KITCHEN_WALL_EAST_DOOR
  0
3DFACE
  8
KITCHEN
 62
 45
 10
       15.24280
 20
       10.14869
 30
        2.13360
 11
       15.24280
 21
       10.14869
 31
        0.00000
 12
       15.24280
 22
       11.06309
 32
        0.00000
 13
       15.24280
 23
       11.06309
 33
        2.13360
999
KITCHEN:KITCHEN_WALL_WEST
  0
3DFACE
  8
KITCHEN
 62
 43
 10
        0.00000
 20
       15.24280
 30
        3.04880
 11
        0.00000
 21
       15.24280
 31
        0.00000
 12
        0.00000
 22
        7.62140
 32
        0.00000
 13
        0.00000
 23
        7.62140
 33
        3.04880
999
KITCHEN:DINING_WALL_NORTH-PPAUTOCREATEOTHER
  0
3DFACE
  8
KITCHEN
 62
 43
 10
        0.00000
 20
        7.62140
 30
        3.04880
 11
        0.00000
 21
        7.62140
 31
        0.00000
 12
       15.24280
 22
        7.62140
 32
        0.00000
 13
       15.24280
 23
        7.62140
 33
        3.04880
999
KITCHEN:KITCHEN_FLOOR
  0
3DFACE
  8
KITCHEN
 62
  8
 10
       15.24280
 20
       15.24280
 30
        0.00000
 11
       15.24280
 21
        7.62140
 31
        0.00000
 12
        0.00000
 22
        7.62140
 32
        0.00000
 13
        0.00000
 23
       15.24280
 33
        0.00000
999
KITCHEN:KITCHEN_CEILING
  0
3DFACE
  8
KITCHEN
 62
 15
 10
        0.00000
 20
       15.24280
 30
        3.04880
 11
        0.00000
 21
        7.62140
 31
        3.04880
 12
       15.24280
 22
        7.62140
 32
        3.04880
 13
       15.24280
 23
       15.24280
 33
        3.04880
999
ATTIC:ATTIC-FLOOR-DINNING
  0
3DFACE
  8
ATTIC
 62
  8
 10
        0.00000
 20
        0.00000
 30
        3.04880
 11
        0.00000
 21
        7.62140
 31
        3.04880
 12
       15.24280
 22
        7.62140
 32
        3.04880
 13
       15.24280
 23
        0.00000
 33
        3.04880
999
ATTIC:ATTIC-FLOOR-KITCHEN
  0
3DFACE
  8
ATTIC
 62
  8
 10
       15.24280
 20
       15.24280
 30
        3.04880
 11
       15.24280
 21
        7.62140
 31
        3.04880
 12
        0.00000
 22
        7.62140
 32
        3.04880
 13
        0.00000
 23
       15.24280
 33
        3.04880
999
ATTIC:WEST-ROOF
  0
3DFACE
  8
ATTIC
 62
 15
 10
        0.00000
 20
       15.24280
 30
        3.04880
 11
        0.00000
 21
        0.00000
 31
        3.04880
 12
        2.54050
 22
        7.62140
 32
        5.58930
 13
        2.54050
 23
        7.62140
 33
        5.58930
999
ATTIC:EAST-ROOF
  0
3DFACE
  8
ATTIC
 62
 15
 10
       15.24280
 20
        0.00000
 30
        3.04880
 11
       15.24280
 21
       15.24280
 31
        3.04880
 12
       12.70230
 22
        7.62140
 32
        5.58930
 13
       12.70230
 23
        7.62140
 33
        5.58930
999
ATTIC:NORTH-ROOF
  0
3DFACE
  8
ATTIC
 62
 15
 10
       15.24280
 20
       15.24280
 30
        3.04880
 11
        0.00000
 21
       15.24280
 31
        3.04880
 12
        2.54050
 22
        7.62140
 32
        5.58930
 13
       12.70230
 23
        7.62140
 33
        5.58930
999
ATTIC:SOUTH-ROOF
  0
3DFACE
  8
ATTIC
 62
 15
 10
        0.00000
 20
        0.00000
 30
        3.04880
 11
       15.24280
 21
        0.00000
 31
        3.04880
 12
       12.70230
 22
        7.62140
 32
        5.58930
 13
        2.54050
 23
        7.62140
 33
        5.58930
999
DINING:DayRefPt:DINING_DAYLREFPT1
  0
CIRCLE
  8
DINING
 62
 10
 10
        2.65480
 20
        2.65480
 30
        0.76200
 40
        0.20000
999
DINING:DayRefPt:DINING_DAYLREFPT2
  0
CIRCLE
  8
DINING
 62
  5
 10
       12.58800
 20
        2.65480
 30
        0.76200
 40
        0.20000
  0
ENDSEC
  0
EOF
